<svg width="14" height="14" viewBox="0 0 14 14" fill="none" xmlns="http://www.w3.org/2000/svg">
<g clip-path="url(#clip0_3519_4)">
<path d="M12.6 1.03722H11.1953V0.778184C11.1995 0.673618 11.1809 0.569338 11.1406 0.471581C11.1003 0.373825 11.0391 0.284599 10.9607 0.20924C10.8823 0.133881 10.7883 0.073938 10.6843 0.0329942C10.5803 -0.00794965 10.4684 -0.0290527 10.3554 -0.0290527C10.2424 -0.0290527 10.1306 -0.00794965 10.0266 0.0329942C9.92257 0.073938 9.82855 0.133881 9.75015 0.20924C9.67174 0.284599 9.61055 0.373825 9.57025 0.471581C9.52994 0.569338 9.51134 0.673618 9.51555 0.778184V1.03722H4.47977V0.778184C4.48398 0.673618 4.46538 0.569338 4.42507 0.471581C4.38476 0.373825 4.32358 0.284599 4.24517 0.20924C4.16676 0.133881 4.07275 0.073938 3.96875 0.0329942C3.86475 -0.00794965 3.7529 -0.0290527 3.63988 -0.0290527C3.52687 -0.0290527 3.41502 -0.00794965 3.31102 0.0329942C3.20702 0.073938 3.113 0.133881 3.0346 0.20924C2.95619 0.284599 2.895 0.373825 2.85469 0.471581C2.81439 0.569338 2.79578 0.673618 2.8 0.778184V1.03722H1.40468C1.03214 1.03722 0.67485 1.17425 0.411421 1.41816C0.147992 1.66207 0 1.99289 0 2.33783V12.708C0 13.053 0.147992 13.3838 0.411421 13.6277C0.67485 13.8716 1.03214 14.0087 1.40468 14.0087H12.6047C12.9772 14.0087 13.3345 13.8716 13.5979 13.6277C13.8614 13.3838 14.0094 13.053 14.0094 12.708V2.3335C14.0087 2.1627 13.9718 1.99368 13.9006 1.8361C13.8295 1.67852 13.7255 1.53546 13.5946 1.41509C13.4638 1.29472 13.3086 1.1994 13.1379 1.13456C12.9672 1.06973 12.7845 1.03665 12.6 1.03722ZM2.8 2.59254C2.80812 2.79376 2.90015 2.98424 3.05677 3.12394C3.2134 3.26365 3.42241 3.3417 3.63988 3.3417C3.85736 3.3417 4.06637 3.26365 4.22299 3.12394C4.37961 2.98424 4.47165 2.79376 4.47977 2.59254H9.52023C9.51602 2.6971 9.53462 2.80138 9.57493 2.89914C9.61524 2.9969 9.67642 3.08612 9.75483 3.16148C9.83324 3.23684 9.92725 3.29678 10.0313 3.33773C10.1353 3.37867 10.2471 3.39977 10.3601 3.39977C10.4731 3.39977 10.585 3.37867 10.689 3.33773C10.793 3.29678 10.887 3.23684 10.9654 3.16148C11.0438 3.08612 11.105 2.9969 11.1453 2.89914C11.1856 2.80138 11.2042 2.6971 11.2 2.59254H12.3202V4.14785H1.67977V2.59254H2.8ZM1.67977 12.4447V5.70425H12.3202V12.4447H1.67977Z" fill="#727583"/>
<path d="M4.63027 8.28357C4.78262 8.14251 4.86821 7.95119 4.86821 7.7517H4.87055C4.8704 7.65283 4.8492 7.55495 4.80816 7.46368C4.76711 7.3724 4.70704 7.28951 4.63137 7.21975C4.5557 7.14999 4.46592 7.09473 4.36717 7.05712C4.26841 7.01952 4.16262 7.00031 4.05584 7.00059H3.59101C3.48181 6.99675 3.3729 7.01335 3.27079 7.0494C3.16868 7.08544 3.07547 7.14019 2.99675 7.21036C2.91803 7.28054 2.8554 7.3647 2.81263 7.45781C2.76985 7.55091 2.74781 7.65106 2.74781 7.75224C2.74781 7.85342 2.76985 7.95356 2.81263 8.04667C2.8554 8.13978 2.91803 8.22394 2.99675 8.29411C3.07547 8.36429 3.16868 8.41904 3.27079 8.45508C3.3729 8.49112 3.48181 8.50772 3.59101 8.50388H4.05584C4.27129 8.50388 4.47792 8.42463 4.63027 8.28357Z" fill="#727583"/>
<path d="M4.63027 10.5079C4.78262 10.3668 4.86821 10.1755 4.86821 9.97601H4.87055C4.8704 9.87714 4.8492 9.77926 4.80816 9.68799C4.76711 9.59671 4.70704 9.51382 4.63137 9.44406C4.5557 9.3743 4.46592 9.31904 4.36717 9.28144C4.26841 9.24383 4.16262 9.22462 4.05584 9.2249H3.59101C3.48181 9.22106 3.3729 9.23766 3.27079 9.27371C3.16868 9.30975 3.07547 9.3645 2.99675 9.43467C2.91803 9.50485 2.8554 9.58901 2.81263 9.68212C2.76985 9.77523 2.74781 9.87537 2.74781 9.97655C2.74781 10.0777 2.76985 10.1779 2.81263 10.271C2.8554 10.3641 2.91803 10.4483 2.99675 10.5184C3.07547 10.5886 3.16868 10.6433 3.27079 10.6794C3.3729 10.7154 3.48181 10.732 3.59101 10.7282H4.05584C4.27129 10.7282 4.47792 10.6489 4.63027 10.5079Z" fill="#727583"/>
<path d="M7.81976 8.28357C7.97211 8.14251 8.0577 7.95119 8.0577 7.7517H8.06004C8.05988 7.65283 8.03868 7.55495 7.99764 7.46368C7.9566 7.3724 7.89653 7.28951 7.82086 7.21975C7.74519 7.14999 7.65541 7.09473 7.55665 7.05712C7.4579 7.01952 7.3521 7.00031 7.24532 7.00059H6.7805C6.6713 6.99675 6.56238 7.01335 6.46028 7.0494C6.35817 7.08544 6.26496 7.14019 6.18624 7.21036C6.10751 7.28054 6.04489 7.3647 6.00211 7.45781C5.95934 7.55091 5.93729 7.65106 5.93729 7.75224C5.93729 7.85342 5.95934 7.95356 6.00211 8.04667C6.04489 8.13978 6.10751 8.22394 6.18624 8.29411C6.26496 8.36429 6.35817 8.41904 6.46028 8.45508C6.56238 8.49112 6.6713 8.50772 6.7805 8.50388H7.24532C7.46078 8.50388 7.66741 8.42463 7.81976 8.28357Z" fill="#727583"/>
<path d="M7.81962 10.5079C7.97196 10.3668 8.05755 10.1755 8.05755 9.97601H8.05989C8.05974 9.87714 8.03854 9.77926 7.9975 9.68799C7.95646 9.59671 7.89638 9.51382 7.82071 9.44406C7.74504 9.3743 7.65526 9.31904 7.55651 9.28144C7.45775 9.24383 7.35196 9.22462 7.24518 9.2249H6.78036C6.67116 9.22106 6.56224 9.23766 6.46013 9.27371C6.35802 9.30975 6.26482 9.3645 6.18609 9.43467C6.10737 9.50485 6.04475 9.58901 6.00197 9.68212C5.9592 9.77523 5.93715 9.87537 5.93715 9.97655C5.93715 10.0777 5.9592 10.1779 6.00197 10.271C6.04475 10.3641 6.10737 10.4483 6.18609 10.5184C6.26482 10.5886 6.35802 10.6433 6.46013 10.6794C6.56224 10.7154 6.67116 10.732 6.78036 10.7282H7.24518C7.46063 10.7282 7.66727 10.6489 7.81962 10.5079Z" fill="#727583"/>
<path d="M10.9971 8.28357C11.1494 8.14251 11.235 7.95119 11.235 7.7517H11.2374C11.2372 7.65283 11.216 7.55495 11.175 7.46368C11.1339 7.3724 11.0739 7.28951 10.9982 7.21975C10.9225 7.14999 10.8327 7.09473 10.734 7.05712C10.6352 7.01952 10.5294 7.00031 10.4227 7.00059H9.95784C9.84864 6.99675 9.73972 7.01335 9.63761 7.0494C9.53551 7.08544 9.4423 7.14019 9.36358 7.21036C9.28485 7.28054 9.22223 7.3647 9.17945 7.45781C9.13668 7.55091 9.11463 7.65106 9.11463 7.75224C9.11463 7.85342 9.13668 7.95356 9.17945 8.04667C9.22223 8.13978 9.28485 8.22394 9.36358 8.29411C9.4423 8.36429 9.53551 8.41904 9.63761 8.45508C9.73972 8.49112 9.84864 8.50772 9.95784 8.50388H10.4227C10.6381 8.50388 10.8447 8.42463 10.9971 8.28357Z" fill="#727583"/>
</g>
<defs>
<clipPath id="clip0_3519_4">
<rect width="14" height="14" fill="white"/>
</clipPath>
</defs>
</svg>
