<svg width="12" height="13" viewBox="0 0 12 13" fill="none" xmlns="http://www.w3.org/2000/svg">
<g clip-path="url(#clip0_1830_2)">
<path d="M10.764 0.956996H9.564V0.717997C9.5676 0.621519 9.55171 0.525306 9.51728 0.435112C9.48284 0.344918 9.43057 0.262594 9.36359 0.193065C9.29661 0.123536 9.21629 0.0682293 9.12745 0.0304527C9.0386 -0.00732382 8.94304 -0.0267944 8.8465 -0.0267944C8.74996 -0.0267944 8.6544 -0.00732382 8.56556 0.0304527C8.47671 0.0682293 8.39639 0.123536 8.32941 0.193065C8.26243 0.262594 8.21016 0.344918 8.17572 0.435112C8.14129 0.525306 8.1254 0.621519 8.129 0.717997V0.956996H3.827V0.717997C3.8306 0.621519 3.81471 0.525306 3.78028 0.435112C3.74584 0.344918 3.69357 0.262594 3.62659 0.193065C3.55961 0.123536 3.47929 0.0682293 3.39044 0.0304527C3.3016 -0.00732382 3.20605 -0.0267944 3.1095 -0.0267944C3.01296 -0.0267944 2.9174 -0.00732382 2.82856 0.0304527C2.73971 0.0682293 2.65939 0.123536 2.59241 0.193065C2.52543 0.262594 2.47316 0.344918 2.43872 0.435112C2.40429 0.525306 2.3884 0.621519 2.392 0.717997V0.956996H1.2C0.881741 0.956996 0.576515 1.08342 0.351471 1.30847C0.126427 1.53351 0 1.83874 0 2.157V11.725C0 12.0433 0.126427 12.3485 0.351471 12.5735C0.576515 12.7986 0.881741 12.925 1.2 12.925H10.768C11.0863 12.925 11.3915 12.7986 11.6165 12.5735C11.8416 12.3485 11.968 12.0433 11.968 11.725V2.153C11.9675 1.99541 11.9359 1.83947 11.8751 1.69408C11.8143 1.54869 11.7255 1.4167 11.6137 1.30564C11.5019 1.19458 11.3693 1.10663 11.2235 1.04681C11.0777 0.986988 10.9216 0.95647 10.764 0.956996ZM2.392 2.392C2.39893 2.57765 2.47756 2.7534 2.61136 2.88229C2.74516 3.01119 2.92371 3.08321 3.1095 3.08321C3.29529 3.08321 3.47384 3.01119 3.60764 2.88229C3.74144 2.7534 3.82007 2.57765 3.827 2.392H8.133C8.1294 2.48847 8.14529 2.58469 8.17973 2.67488C8.21416 2.76508 8.26643 2.8474 8.33341 2.91693C8.40039 2.98646 8.48071 3.04176 8.56956 3.07954C8.6584 3.11732 8.75395 3.13679 8.8505 3.13679C8.94704 3.13679 9.0426 3.11732 9.13144 3.07954C9.22029 3.04176 9.30061 2.98646 9.36759 2.91693C9.43457 2.8474 9.48684 2.76508 9.52127 2.67488C9.55571 2.58469 9.5716 2.48847 9.568 2.392H10.525V3.827H1.435V2.392H2.392ZM1.435 11.482V5.263H10.525V11.482H1.435Z" fill="#727583"/>
<path d="M3.95558 7.64279C4.08573 7.51264 4.15884 7.33612 4.15884 7.15206H4.16084C4.16071 7.06084 4.1426 6.97053 4.10754 6.88632C4.07248 6.8021 4.02116 6.72563 3.95651 6.66126C3.89187 6.5969 3.81517 6.54591 3.73081 6.51122C3.64644 6.47652 3.55607 6.45879 3.46484 6.45906H3.06775C2.97446 6.45551 2.88142 6.47083 2.79419 6.50409C2.70696 6.53734 2.62733 6.58785 2.56008 6.6526C2.49283 6.71735 2.43933 6.795 2.40279 6.8809C2.36625 6.96681 2.34741 7.0592 2.34741 7.15256C2.34741 7.24591 2.36625 7.33831 2.40279 7.42421C2.43933 7.51012 2.49283 7.58777 2.56008 7.65252C2.62733 7.71726 2.70696 7.76777 2.79419 7.80103C2.88142 7.83428 2.97446 7.8496 3.06775 7.84606H3.46484C3.6489 7.84606 3.82543 7.77294 3.95558 7.64279Z" fill="#727583"/>
<path d="M3.95558 9.69503C4.08573 9.56488 4.15884 9.38836 4.15884 9.2043H4.16084C4.16071 9.11308 4.1426 9.02278 4.10754 8.93856C4.07248 8.85435 4.02116 8.77787 3.95651 8.71351C3.89187 8.64914 3.81517 8.59816 3.73081 8.56346C3.64644 8.52876 3.55607 8.51104 3.46484 8.5113H3.06775C2.97446 8.50776 2.88142 8.52308 2.79419 8.55633C2.70696 8.58959 2.62733 8.6401 2.56008 8.70485C2.49283 8.76959 2.43933 8.84724 2.40279 8.93315C2.36625 9.01905 2.34741 9.11145 2.34741 9.2048C2.34741 9.29816 2.36625 9.39055 2.40279 9.47646C2.43933 9.56236 2.49283 9.64001 2.56008 9.70476C2.62733 9.76951 2.70696 9.82002 2.79419 9.85328C2.88142 9.88653 2.97446 9.90185 3.06775 9.8983H3.46484C3.6489 9.8983 3.82543 9.82518 3.95558 9.69503Z" fill="#727583"/>
<path d="M6.68031 7.64279C6.81046 7.51264 6.88358 7.33612 6.88358 7.15206H6.88557C6.88544 7.06084 6.86733 6.97053 6.83227 6.88632C6.79721 6.8021 6.74589 6.72563 6.68125 6.66126C6.6166 6.5969 6.53991 6.54591 6.45554 6.51122C6.37117 6.47652 6.2808 6.45879 6.18958 6.45906H5.79248C5.69919 6.45551 5.60615 6.47083 5.51892 6.50409C5.43169 6.53734 5.35207 6.58785 5.28481 6.6526C5.21756 6.71735 5.16406 6.795 5.12752 6.8809C5.09098 6.96681 5.07214 7.0592 5.07214 7.15256C5.07214 7.24591 5.09098 7.33831 5.12752 7.42421C5.16406 7.51012 5.21756 7.58777 5.28481 7.65252C5.35207 7.71726 5.43169 7.76777 5.51892 7.80103C5.60615 7.83428 5.69919 7.8496 5.79248 7.84606H6.18958C6.37364 7.84606 6.55016 7.77294 6.68031 7.64279Z" fill="#727583"/>
<path d="M6.68019 9.69503C6.81034 9.56488 6.88345 9.38836 6.88345 9.2043H6.88545C6.88532 9.11308 6.86721 9.02278 6.83215 8.93856C6.79709 8.85435 6.74577 8.77787 6.68112 8.71351C6.61648 8.64914 6.53978 8.59816 6.45542 8.56346C6.37105 8.52876 6.28067 8.51104 6.18945 8.5113H5.79236C5.69907 8.50776 5.60603 8.52308 5.5188 8.55633C5.43157 8.58959 5.35194 8.6401 5.28469 8.70485C5.21744 8.76959 5.16394 8.84724 5.1274 8.93315C5.09086 9.01905 5.07202 9.11145 5.07202 9.2048C5.07202 9.29816 5.09086 9.39055 5.1274 9.47646C5.16394 9.56236 5.21744 9.64001 5.28469 9.70476C5.35194 9.76951 5.43157 9.82002 5.5188 9.85328C5.60603 9.88653 5.69907 9.90185 5.79236 9.8983H6.18945C6.37351 9.8983 6.55003 9.82518 6.68019 9.69503Z" fill="#727583"/>
<path d="M9.39466 7.64279C9.52481 7.51264 9.59793 7.33612 9.59793 7.15206H9.59993C9.5998 7.06084 9.58169 6.97053 9.54663 6.88632C9.51156 6.8021 9.46024 6.72563 9.3956 6.66126C9.33096 6.5969 9.25426 6.54591 9.1699 6.51122C9.08553 6.47652 8.99515 6.45879 8.90393 6.45906H8.50684C8.41355 6.45551 8.32051 6.47083 8.23328 6.50409C8.14605 6.53734 8.06642 6.58785 7.99917 6.6526C7.93192 6.71735 7.87842 6.795 7.84188 6.8809C7.80533 6.96681 7.7865 7.0592 7.7865 7.15256C7.7865 7.24591 7.80533 7.33831 7.84188 7.42421C7.87842 7.51012 7.93192 7.58777 7.99917 7.65252C8.06642 7.71726 8.14605 7.76777 8.23328 7.80103C8.32051 7.83428 8.41355 7.8496 8.50684 7.84606H8.90393C9.08799 7.84606 9.26451 7.77294 9.39466 7.64279Z" fill="#727583"/>
</g>
<defs>
<clipPath id="clip0_1830_2">
<rect width="11.96" height="12.917" fill="white"/>
</clipPath>
</defs>
</svg>
