<svg width="15" height="15" viewBox="0 0 15 15" fill="none" xmlns="http://www.w3.org/2000/svg">
<g clip-path="url(#clip0_3514_8)">
<path d="M7.75863 1.51398C6.52388 1.51398 5.31686 1.88012 4.2902 2.56611C3.26355 3.2521 2.46337 4.22712 1.99085 5.36788C1.51833 6.50864 1.3947 7.7639 1.63559 8.97493C1.87647 10.1859 2.47106 11.2983 3.34416 12.1714C4.21726 13.0445 5.32966 13.6391 6.54068 13.88C7.7517 14.1209 9.00696 13.9973 10.1477 13.5248C11.2885 13.0522 12.2635 12.2521 12.9495 11.2254C13.6355 10.1987 14.0016 8.99173 14.0016 7.75698C14.0016 6.10123 13.3439 4.5133 12.1731 3.34251C11.0023 2.17172 9.41437 1.51398 7.75863 1.51398ZM7.75863 12.614C6.79857 12.6136 5.86018 12.3286 5.06209 11.7949C4.26399 11.2613 3.64203 10.503 3.27481 9.61598C2.90759 8.72893 2.81162 7.75291 2.99901 6.81132C3.18641 5.86973 3.64876 5.00484 4.32762 4.32597C5.00649 3.64711 5.87138 3.18476 6.81297 2.99736C7.75457 2.80997 8.73058 2.90594 9.61763 3.27316C10.5047 3.64037 11.263 4.26234 11.7966 5.06044C12.3302 5.85853 12.6152 6.79692 12.6156 7.75698C12.6159 8.39488 12.4904 9.02659 12.2464 9.61598C12.0025 10.2054 11.6447 10.7409 11.1936 11.192C10.7426 11.643 10.207 12.0008 9.61763 12.2448C9.02824 12.4888 8.39653 12.6142 7.75863 12.614ZM11.6896 7.75898C11.6896 7.94304 11.6165 8.11956 11.4864 8.24971C11.3562 8.37986 11.1797 8.45298 10.9956 8.45298H7.75863C7.57457 8.45298 7.39805 8.37986 7.2679 8.24971C7.13775 8.11956 7.06463 7.94304 7.06463 7.75898V4.51998C7.07144 4.34061 7.14749 4.17085 7.2768 4.04636C7.40611 3.92186 7.57863 3.85232 7.75813 3.85232C7.93763 3.85232 8.11015 3.92186 8.23946 4.04636C8.36877 4.17085 8.44482 4.34061 8.45163 4.51998V7.06298H10.9956C11.1795 7.06324 11.3558 7.13648 11.4857 7.2666C11.6156 7.39672 11.6886 7.57309 11.6886 7.75698L11.6896 7.75898Z" fill="#727583"/>
</g>
<defs>
<clipPath id="clip0_3514_8">
<rect width="14" height="14" fill="white" transform="translate(0.757812 0.756958)"/>
</clipPath>
</defs>
</svg>
