<svg width="14" height="13" viewBox="0 0 14 13" fill="none" xmlns="http://www.w3.org/2000/svg">
<g clip-path="url(#clip0_1830_4)">
<path d="M7.01644 0C5.78169 0 4.57467 0.366146 3.54802 1.05214C2.52136 1.73813 1.72118 2.71315 1.24866 3.85391C0.776143 4.99467 0.65251 6.24993 0.893398 7.46095C1.13429 8.67197 1.72887 9.78437 2.60197 10.6575C3.47507 11.5306 4.58747 12.1252 5.79849 12.366C7.00952 12.6069 8.26477 12.4833 9.40553 12.0108C10.5463 11.5383 11.5213 10.7381 12.2073 9.71143C12.8933 8.68477 13.2594 7.47775 13.2594 6.243C13.2594 4.58725 12.6017 2.99932 11.4309 1.82853C10.2601 0.657744 8.67219 0 7.01644 0ZM7.01644 11.1C6.05638 11.0996 5.11799 10.8146 4.3199 10.281C3.52181 9.74733 2.89984 8.98906 2.53262 8.10201C2.16541 7.21495 2.06943 6.23894 2.25683 5.29735C2.44422 4.35575 2.90657 3.49086 3.58544 2.812C4.2643 2.13313 5.1292 1.67078 6.07079 1.48339C7.01238 1.29599 7.98839 1.39197 8.87545 1.75918C9.7625 2.1264 10.5208 2.74836 11.0544 3.54646C11.588 4.34455 11.873 5.28294 11.8734 6.243C11.8737 6.8809 11.7483 7.51261 11.5043 8.10201C11.2603 8.6914 10.9025 9.22694 10.4514 9.678C10.0004 10.1291 9.46484 10.4868 8.87545 10.7308C8.28605 10.9748 7.65435 11.1003 7.01644 11.1ZM10.9474 6.245C10.9474 6.42906 10.8743 6.60558 10.7442 6.73573C10.614 6.86588 10.4375 6.939 10.2534 6.939H7.01644C6.83238 6.939 6.65586 6.86588 6.52571 6.73573C6.39556 6.60558 6.32244 6.42906 6.32244 6.245V3.006C6.32925 2.82663 6.4053 2.65687 6.53461 2.53238C6.66392 2.40789 6.83644 2.33834 7.01594 2.33834C7.19544 2.33834 7.36796 2.40789 7.49727 2.53238C7.62658 2.65687 7.70263 2.82663 7.70944 3.006V5.549H10.2534C10.4373 5.54926 10.6136 5.6225 10.7435 5.75262C10.8735 5.88274 10.9464 6.05911 10.9464 6.243L10.9474 6.245Z" fill="#727583"/>
</g>
<defs>
<clipPath id="clip0_1830_4">
<rect width="12.485" height="12.485" fill="white" transform="translate(0.773438)"/>
</clipPath>
</defs>
</svg>
