<svg width="14" height="14" viewBox="0 0 14 14" fill="none" xmlns="http://www.w3.org/2000/svg">
<path d="M12.5489 2.14398H1.44892C1.14268 2.14451 0.849159 2.26654 0.632799 2.48327C0.416439 2.70001 0.294921 2.99374 0.294922 3.29998V10.7C0.294922 11.0066 0.416715 11.3006 0.633507 11.5174C0.850299 11.7342 1.14433 11.856 1.45092 11.856H12.5509C12.8575 11.856 13.1515 11.7342 13.3683 11.5174C13.5851 11.3006 13.7069 11.0066 13.7069 10.7V3.29998C13.7069 3.14801 13.677 2.99752 13.6187 2.85714C13.5605 2.71675 13.4752 2.58923 13.3676 2.48186C13.2601 2.37449 13.1324 2.28938 12.9919 2.23141C12.8514 2.17343 12.7009 2.14372 12.5489 2.14398ZM12.3179 3.53098V4.68698H1.68192V3.53098H12.3179ZM1.68192 10.467V6.07498H12.3179V10.468L1.68192 10.467ZM11.6239 9.07998C11.6239 9.26404 11.5508 9.44056 11.4207 9.57071C11.2905 9.70087 11.114 9.77398 10.9299 9.77398H9.07992C8.98663 9.77753 8.89359 9.76221 8.80636 9.72896C8.71913 9.6957 8.6395 9.64519 8.57225 9.58044C8.505 9.5157 8.4515 9.43805 8.41496 9.35214C8.37842 9.26623 8.35958 9.17384 8.35958 9.08048C8.35958 8.98713 8.37842 8.89473 8.41496 8.80883C8.4515 8.72292 8.505 8.64527 8.57225 8.58053C8.6395 8.51578 8.71913 8.46527 8.80636 8.43201C8.89359 8.39876 8.98663 8.38344 9.07992 8.38698H10.9299C11.1138 8.38698 11.2902 8.45997 11.4203 8.5899C11.5504 8.71983 11.6237 8.8961 11.6239 9.07998ZM7.69292 9.07998C7.69292 9.26404 7.6198 9.44056 7.48965 9.57071C7.3595 9.70087 7.18298 9.77398 6.99892 9.77398H6.30492C6.21163 9.77753 6.11859 9.76221 6.03136 9.72896C5.94413 9.6957 5.86451 9.64519 5.79725 9.58044C5.73 9.5157 5.6765 9.43805 5.63996 9.35214C5.60342 9.26623 5.58458 9.17384 5.58458 9.08048C5.58458 8.98713 5.60342 8.89473 5.63996 8.80883C5.6765 8.72292 5.73 8.64527 5.79725 8.58053C5.86451 8.51578 5.94413 8.46527 6.03136 8.43201C6.11859 8.39876 6.21163 8.38344 6.30492 8.38698H6.99892C7.09014 8.38672 7.18052 8.40445 7.26489 8.43914C7.34925 8.47384 7.42595 8.52483 7.49059 8.58919C7.55524 8.65355 7.60656 8.73003 7.64162 8.81425C7.67668 8.89846 7.69479 8.98876 7.69492 9.07998H7.69292Z" fill="#727583"/>
</svg>
