<svg width="15" height="10" viewBox="0 0 15 10" fill="none" xmlns="http://www.w3.org/2000/svg">
<g clip-path="url(#clip0_1830_6)">
<path d="M13.2149 1.73021e-06H2.11494C1.80869 0.000531564 1.51517 0.122558 1.29881 0.339292C1.08246 0.556027 0.960937 0.849756 0.960938 1.156V8.556C0.960938 8.86259 1.08273 9.15663 1.29952 9.37342C1.51631 9.59021 1.81035 9.712 2.11694 9.712H13.2169C13.5235 9.712 13.8176 9.59021 14.0344 9.37342C14.2511 9.15663 14.3729 8.86259 14.3729 8.556V1.156C14.3729 1.00402 14.343 0.853538 14.2848 0.713156C14.2265 0.572773 14.1412 0.445248 14.0336 0.337877C13.9261 0.230506 13.7984 0.1454 13.6579 0.0874231C13.5175 0.0294464 13.3669 -0.000261205 13.2149 1.73021e-06ZM12.9839 1.387V2.543H2.34794V1.387H12.9839ZM2.34794 8.323V3.931H12.9839V8.324L2.34794 8.323ZM12.2899 6.936C12.2899 7.12006 12.2168 7.29658 12.0867 7.42673C11.9565 7.55688 11.78 7.63 11.5959 7.63H9.74594C9.65265 7.63355 9.55961 7.61823 9.47238 7.58497C9.38515 7.55172 9.30552 7.50121 9.23827 7.43646C9.17101 7.37171 9.11752 7.29406 9.08097 7.20816C9.04443 7.12225 9.0256 7.02986 9.0256 6.9365C9.0256 6.84315 9.04443 6.75075 9.08097 6.66485C9.11752 6.57894 9.17101 6.50129 9.23827 6.43654C9.30552 6.3718 9.38515 6.32129 9.47238 6.28803C9.55961 6.25478 9.65265 6.23946 9.74594 6.243H11.5959C11.7798 6.243 11.9562 6.31598 12.0863 6.44592C12.2164 6.57585 12.2897 6.75212 12.2899 6.936ZM8.35894 6.936C8.35894 7.12006 8.28582 7.29658 8.15567 7.42673C8.02552 7.55688 7.849 7.63 7.66494 7.63H6.97094C6.87765 7.63355 6.78461 7.61823 6.69738 7.58497C6.61015 7.55172 6.53052 7.50121 6.46327 7.43646C6.39602 7.37171 6.34252 7.29406 6.30597 7.20816C6.26943 7.12225 6.2506 7.02986 6.2506 6.9365C6.2506 6.84315 6.26943 6.75075 6.30597 6.66485C6.34252 6.57894 6.39602 6.50129 6.46327 6.43654C6.53052 6.3718 6.61015 6.32129 6.69738 6.28803C6.78461 6.25478 6.87765 6.23946 6.97094 6.243H7.66494C7.75616 6.24274 7.84654 6.26046 7.9309 6.29516C8.01527 6.32986 8.09197 6.38084 8.15661 6.44521C8.22125 6.50957 8.27257 6.58605 8.30763 6.67026C8.34269 6.75448 8.36081 6.84478 8.36094 6.936H8.35894Z" fill="#727583"/>
</g>
<defs>
<clipPath id="clip0_1830_6">
<rect width="13.41" height="9.711" fill="white" transform="translate(0.960938)"/>
</clipPath>
</defs>
</svg>
