<svg width="14" height="14" viewBox="0 0 14 14" fill="none" xmlns="http://www.w3.org/2000/svg">
<g clip-path="url(#clip0_1830_8)">
<path d="M13.4231 6.294L7.48014 0.351003C7.36937 0.239426 7.23755 0.150946 7.09233 0.0906942C6.94711 0.0304422 6.79137 -0.00038308 6.63414 3.59318e-06H1.08714C0.896719 3.59318e-06 0.714092 0.0756491 0.579441 0.2103C0.44479 0.344951 0.369144 0.527579 0.369144 0.718004V6.265C0.368758 6.42223 0.399583 6.57797 0.459835 6.72319C0.520087 6.86841 0.608567 7.00023 0.720144 7.111L6.66314 13.054C6.88798 13.2775 7.19212 13.403 7.50914 13.403C7.82617 13.403 8.13031 13.2775 8.35514 13.054L13.4231 7.986C13.6466 7.76117 13.7721 7.45703 13.7721 7.14C13.7721 6.82298 13.6466 6.51884 13.4231 6.294ZM7.50914 11.869L1.80914 6.163V1.436H6.53614L12.2361 7.13601L7.50914 11.869ZM4.67714 3.351C4.67714 3.54028 4.62102 3.72531 4.51586 3.88268C4.41071 4.04006 4.26124 4.16272 4.08637 4.23516C3.9115 4.30759 3.71908 4.32654 3.53344 4.28962C3.3478 4.25269 3.17728 4.16154 3.04344 4.02771C2.9096 3.89387 2.81846 3.72334 2.78153 3.5377C2.74461 3.35206 2.76356 3.15964 2.83599 2.98478C2.90842 2.80991 3.03109 2.66044 3.18846 2.55529C3.34584 2.45013 3.53087 2.394 3.72014 2.394C3.97396 2.394 4.21737 2.49483 4.39685 2.6743C4.57632 2.85378 4.67714 3.09719 4.67714 3.351Z" fill="#727583"/>
</g>
<defs>
<clipPath id="clip0_1830_8">
<rect width="13.404" height="13.404" fill="white" transform="translate(0.369141)"/>
</clipPath>
</defs>
</svg>
