<svg width="14" height="14" viewBox="0 0 14 14" fill="none" xmlns="http://www.w3.org/2000/svg">
<g clip-path="url(#clip0_3519_2)">
<path d="M13.6344 6.57386L7.42719 0.366611C7.31149 0.250072 7.17381 0.157658 7.02213 0.0947269C6.87045 0.0317958 6.70779 -0.000400113 6.54357 3.75295e-06H0.74993C0.551037 3.75295e-06 0.360289 0.0790128 0.219651 0.219651C0.0790128 0.360289 3.75295e-06 0.551037 3.75295e-06 0.74993V6.54357C-0.000400113 6.70779 0.0317958 6.87045 0.0947269 7.02213C0.157658 7.17381 0.250072 7.31149 0.366611 7.42719L6.57386 13.6344C6.80869 13.8679 7.12636 13.9989 7.45748 13.9989C7.7886 13.9989 8.10626 13.8679 8.3411 13.6344L13.6344 8.3411C13.8679 8.10626 13.9989 7.7886 13.9989 7.45748C13.9989 7.12636 13.8679 6.80869 13.6344 6.57386ZM7.45748 12.3968L1.50403 6.43704V1.49986H6.44122L12.3947 7.4533L7.45748 12.3968ZM4.49956 3.5C4.49956 3.6977 4.44093 3.89095 4.3311 4.05533C4.22127 4.2197 4.06516 4.34782 3.88252 4.42347C3.69987 4.49912 3.4989 4.51892 3.305 4.48035C3.11111 4.44178 2.933 4.34659 2.79321 4.2068C2.65342 4.06701 2.55822 3.8889 2.51966 3.69501C2.48109 3.50111 2.50088 3.30014 2.57654 3.11749C2.65219 2.93485 2.78031 2.77874 2.94468 2.66891C3.10906 2.55908 3.30231 2.50045 3.5 2.50045C3.7651 2.50045 4.01934 2.60576 4.2068 2.79321C4.39425 2.98067 4.49956 3.23491 4.49956 3.5Z" fill="#727583"/>
</g>
<defs>
<clipPath id="clip0_3519_2">
<rect width="14" height="14" fill="white"/>
</clipPath>
</defs>
</svg>
