<svg id="Component_10_1" data-name="Component 10 – 1" xmlns="http://www.w3.org/2000/svg" width="100.718" height="73.237" viewBox="0 0 100.718 73.237">
  <g id="Group_2086" data-name="Group 2086" transform="translate(-3335 -4028.162)">
    <g id="Group_2085" data-name="Group 2085" transform="translate(1348.47 -275)">
      <g id="Group_2081" data-name="Group 2081" transform="translate(2 6)">
        <g id="Group_1882" data-name="Group 1882" transform="translate(51.001 3405)">
          <path id="Path_1360" data-name="Path 1360" d="M4165.574-315.591" transform="translate(-2154.01 1261.792)" fill="#bcc3cd" stroke="#838eaa" stroke-linecap="round" stroke-linejoin="round" stroke-width="17"/>
          <g id="Group_1848" data-name="Group 1848" transform="translate(2024.843 892.162)">
            <g id="Group_1844" data-name="Group 1844" transform="translate(0 3.94)">
              <g id="Group_1842" data-name="Group 1842">
                <path id="Path_1392" data-name="Path 1392" d="M4661.925-156.765h-1.572a.762.762,0,0,1-.762-.762.762.762,0,0,1,.762-.762h1.572a.762.762,0,0,1,.762.762A.762.762,0,0,1,4661.925-156.765Z" transform="translate(-4659.591 158.289)" fill="#bcc3cd"/>
              </g>
              <g id="Group_1843" data-name="Group 1843" transform="translate(6.308)">
                <path id="Path_1393" data-name="Path 1393" d="M4753.007-156.765h-1.572a.762.762,0,0,1-.762-.762.762.762,0,0,1,.762-.762h1.572a.762.762,0,0,1,.762.762A.762.762,0,0,1,4753.007-156.765Z" transform="translate(-4750.673 158.289)" fill="#bcc3cd"/>
              </g>
            </g>
            <g id="Group_1847" data-name="Group 1847" transform="translate(3.94 0)">
              <g id="Group_1845" data-name="Group 1845">
                <path id="Path_1394" data-name="Path 1394" d="M4717.243-212.082a.761.761,0,0,1-.762-.762v-1.572a.761.761,0,0,1,.762-.762.762.762,0,0,1,.762.762v1.572A.762.762,0,0,1,4717.243-212.082Z" transform="translate(-4716.481 215.178)" fill="#bcc3cd"/>
              </g>
              <g id="Group_1846" data-name="Group 1846" transform="translate(0 6.308)">
                <path id="Path_1395" data-name="Path 1395" d="M4717.243-121a.761.761,0,0,1-.762-.762v-1.572a.761.761,0,0,1,.762-.762.762.762,0,0,1,.762.762v1.572A.762.762,0,0,1,4717.243-121Z" transform="translate(-4716.481 124.097)" fill="#bcc3cd"/>
              </g>
            </g>
          </g>
          <g id="Group_1855" data-name="Group 1855" transform="translate(1940.178 952.099) rotate(45)">
            <g id="Group_1851" data-name="Group 1851" transform="translate(0 3.94)">
              <g id="Group_1849" data-name="Group 1849">
                <path id="Path_1396" data-name="Path 1396" d="M3515.983-822.6h-1.572a.762.762,0,0,1-.762-.762.762.762,0,0,1,.762-.762h1.572a.762.762,0,0,1,.762.762A.762.762,0,0,1,3515.983-822.6Z" transform="translate(-3513.649 824.122)" fill="#bcc3cd"/>
              </g>
              <g id="Group_1850" data-name="Group 1850" transform="translate(6.308)">
                <path id="Path_1397" data-name="Path 1397" d="M3607.064-822.6h-1.572a.762.762,0,0,1-.762-.762.762.762,0,0,1,.762-.762h1.572a.762.762,0,0,1,.762.762A.762.762,0,0,1,3607.064-822.6Z" transform="translate(-3604.73 824.122)" fill="#bcc3cd"/>
              </g>
            </g>
            <g id="Group_1854" data-name="Group 1854" transform="translate(3.94 0)">
              <g id="Group_1852" data-name="Group 1852">
                <path id="Path_1398" data-name="Path 1398" d="M3571.3-877.916a.762.762,0,0,1-.762-.762v-1.572a.762.762,0,0,1,.762-.762.762.762,0,0,1,.762.762v1.572A.762.762,0,0,1,3571.3-877.916Z" transform="translate(-3570.539 881.012)" fill="#bcc3cd"/>
              </g>
              <g id="Group_1853" data-name="Group 1853" transform="translate(0 6.308)">
                <path id="Path_1399" data-name="Path 1399" d="M3571.3-786.834a.762.762,0,0,1-.762-.762v-1.572a.762.762,0,0,1,.762-.762.762.762,0,0,1,.762.762v1.572A.762.762,0,0,1,3571.3-786.834Z" transform="translate(-3570.539 789.93)" fill="#bcc3cd"/>
              </g>
            </g>
          </g>
        </g>
        <g id="Ellipse_378" data-name="Ellipse 378" transform="translate(1991.001 4303)" fill="none" stroke="#838eaa" stroke-width="1">
          <circle cx="3" cy="3" r="3" stroke="none"/>
          <circle cx="3" cy="3" r="2.5" fill="none"/>
        </g>
        <g id="Ellipse_383" data-name="Ellipse 383" transform="translate(2078.001 4357)" fill="none" stroke="#838eaa" stroke-width="1">
          <circle cx="3" cy="3" r="3" stroke="none"/>
          <circle cx="3" cy="3" r="2.5" fill="none"/>
        </g>
      </g>
    </g>
  </g>
  <g id="checked_2_" data-name="checked(2)" transform="translate(27 13.838)">
    <g id="Group_2843" data-name="Group 2843" transform="translate(10.922 5.779)">
      <g id="Group_2842" data-name="Group 2842">
        <path id="Path_1968" data-name="Path 1968" d="M155.33,64.837a1.733,1.733,0,0,0-2.451,0l-20.8,20.743-7.5-8.15a1.734,1.734,0,1,0-2.551,2.349l8.726,9.477a1.732,1.732,0,0,0,1.238.559h.037a1.735,1.735,0,0,0,1.224-.506l22.075-22.018A1.733,1.733,0,0,0,155.33,64.837Z" transform="translate(-121.568 -64.327)" fill="#bcc3cd"/>
      </g>
    </g>
    <g id="Group_2845" data-name="Group 2845">
      <g id="Group_2844" data-name="Group 2844">
        <path id="Path_1969" data-name="Path 1969" d="M44.266,21.266A1.734,1.734,0,0,0,42.533,23,19.533,19.533,0,1,1,23,3.467,1.734,1.734,0,1,0,23,0,23,23,0,1,0,46,23,1.734,1.734,0,0,0,44.266,21.266Z" fill="#bcc3cd"/>
      </g>
    </g>
  </g>
</svg>
