<svg xmlns="http://www.w3.org/2000/svg" width="18.872" height="18.872" viewBox="0 0 18.872 18.872"><defs><style>.a{fill:#4267b2;}</style></defs><g transform="translate(-243.5 -684.316)"><path class="a" d="M17.823,0H1.048A1.048,1.048,0,0,0,0,1.048V17.823a1.048,1.048,0,0,0,1.048,1.048h9.032v-7.3H7.63V8.718h2.451v-2.1a3.433,3.433,0,0,1,3.67-3.764,20.3,20.3,0,0,1,2.2.113V5.5h-1.51c-1.179,0-1.408.561-1.408,1.387V8.71h2.828l-.367,2.857H13.029v7.3h4.794a1.048,1.048,0,0,0,1.048-1.048V1.048A1.048,1.048,0,0,0,17.823,0Z" transform="translate(243.5 684.316)"/></g></svg>