<svg width="31" height="30" viewBox="0 0 31 30" fill="none" xmlns="http://www.w3.org/2000/svg">
<path d="M27.5 6.99993H24.23C24.6004 5.96545 24.5785 4.83106 24.1685 3.81165C23.7584 2.79223 22.9887 1.95861 22.0052 1.4687C21.0217 0.978791 19.8927 0.866618 18.832 1.15343C17.7713 1.44025 16.8526 2.10613 16.25 3.02493L15.5 4.02993L14.75 3.00993C14.1471 2.08838 13.2265 1.4205 12.1633 1.13325C11.1002 0.845998 9.96853 0.959407 8.98351 1.45192C7.99849 1.94442 7.22878 2.7817 6.82068 3.80458C6.41258 4.82746 6.39455 5.96463 6.77002 6.99993H3.50002C3.10646 6.99886 2.71659 7.07584 2.35297 7.22641C1.98935 7.37698 1.65919 7.59816 1.3816 7.87714C1.10401 8.15613 0.884491 8.48739 0.735744 8.85176C0.586997 9.21613 0.511975 9.60638 0.515017 9.99993L0.500017 26.4999C0.498696 26.8943 0.575391 27.285 0.725687 27.6495C0.875984 28.0141 1.09691 28.3454 1.37575 28.6242C1.65459 28.903 1.98583 29.124 2.35041 29.2743C2.71498 29.4246 3.10568 29.5013 3.50002 29.4999H27.5C27.8944 29.5013 28.2851 29.4246 28.6496 29.2743C29.0142 29.124 29.3454 28.903 29.6243 28.6242C29.9031 28.3454 30.1241 28.0141 30.2743 27.6495C30.4246 27.285 30.5013 26.8943 30.5 26.4999V9.99993C30.5013 9.60559 30.4246 9.21489 30.2743 8.85032C30.1241 8.48575 29.9031 8.1545 29.6243 7.87566C29.3454 7.59683 29.0142 7.3759 28.6496 7.2256C28.2851 7.0753 27.8944 6.99861 27.5 6.99993ZM20 3.99993C20.2967 3.99993 20.5867 4.0879 20.8334 4.25273C21.08 4.41755 21.2723 4.65182 21.3858 4.9259C21.4994 5.19999 21.5291 5.50159 21.4712 5.79257C21.4133 6.08354 21.2705 6.35081 21.0607 6.56059C20.8509 6.77037 20.5836 6.91323 20.2927 6.97111C20.0017 7.02899 19.7001 6.99928 19.426 6.88575C19.1519 6.77222 18.9176 6.57996 18.7528 6.33328C18.588 6.08661 18.5 5.7966 18.5 5.49993C18.5 5.10211 18.6581 4.72057 18.9394 4.43927C19.2207 4.15796 19.6022 3.99993 20 3.99993ZM11 3.99993C11.2967 3.99993 11.5867 4.0879 11.8334 4.25273C12.08 4.41755 12.2723 4.65182 12.3858 4.9259C12.4994 5.19999 12.5291 5.50159 12.4712 5.79257C12.4133 6.08354 12.2705 6.35081 12.0607 6.56059C11.8509 6.77037 11.5836 6.91323 11.2927 6.97111C11.0017 7.02899 10.7001 6.99928 10.426 6.88575C10.1519 6.77222 9.91763 6.57996 9.75281 6.33328C9.58799 6.08661 9.50002 5.7966 9.50002 5.49993C9.50002 5.10211 9.65805 4.72057 9.93936 4.43927C10.2207 4.15796 10.6022 3.99993 11 3.99993ZM27.5 26.4999H3.50002V23.4999H27.5V26.4999ZM27.5 18.9999H3.50002V9.99993H11.12L8.00002 14.2449L10.43 15.9999L14 11.1399L15.5 9.09993L17 11.1399L20.57 15.9999L23 14.2449L19.88 9.99993H27.5V18.9999Z" fill="#CCD5E2"/>
</svg>
