<svg width="100.718" height="73.237" xmlns="http://www.w3.org/2000/svg" data-name="Component 10 – 1" color="red">

 <g>
  <title>Layer 1</title>
  <g fill="red" data-name="Group 2086" id="Group_2086">
   <g data-name="Group 2085" id="Group_2085">
    <g data-name="Group 2081" id="Group_2081">
     <g data-name="Group 1882" id="Group_1882">
      <path stroke-width="17" stroke-linejoin="round" stroke-linecap="round" stroke="#838eaa" fill="#bcc3cd" d="m78.03496,54.03888" data-name="Path 1360" id="Path_1360"/>
      <g data-name="Group 1848" id="Group_1848">
       <g data-name="Group 1844" id="Group_1844">
        <g data-name="Group 1842" id="Group_1842">
         <path fill="#bcc3cd" d="m93.64817,5.46388l-1.572,0a0.762,0.762 0 0 1 -0.762,-0.762a0.762,0.762 0 0 1 0.762,-0.762l1.572,0a0.762,0.762 0 0 1 0.762,0.762a0.762,0.762 0 0 1 -0.762,0.762z" data-name="Path 1392" id="Path_1392"/>
        </g>
        <g data-name="Group 1843" id="Group_1843">
         <path fill="#bcc3cd" d="m99.95614,5.46388l-1.572,0a0.762,0.762 0 0 1 -0.762,-0.762a0.762,0.762 0 0 1 0.762,-0.762l1.572,0a0.762,0.762 0 0 1 0.762,0.762a0.762,0.762 0 0 1 -0.762,0.762z" data-name="Path 1393" id="Path_1393"/>
        </g>
       </g>
       <g data-name="Group 1847" id="Group_1847">
        <g data-name="Group 1845" id="Group_1845">
         <path fill="#bcc3cd" d="m96.01603,3.09587a0.761,0.761 0 0 1 -0.762,-0.762l0,-1.572a0.761,0.761 0 0 1 0.762,-0.762a0.762,0.762 0 0 1 0.762,0.762l0,1.572a0.762,0.762 0 0 1 -0.762,0.762z" data-name="Path 1394" id="Path_1394"/>
        </g>
        <g data-name="Group 1846" id="Group_1846">
         <path fill="#bcc3cd" d="m96.01603,9.40488a0.761,0.761 0 0 1 -0.762,-0.762l0,-1.572a0.761,0.761 0 0 1 0.762,-0.762a0.762,0.762 0 0 1 0.762,0.762l0,1.572a0.762,0.762 0 0 1 -0.762,0.762z" data-name="Path 1395" id="Path_1395"/>
        </g>
       </g>
      </g>
      <g transform="rotate(45 6.64893 59.9369)" data-name="Group 1855" id="Group_1855">
       <g data-name="Group 1851" id="Group_1851">
        <g data-name="Group 1849" id="Group_1849">
         <path fill="#bcc3cd" d="m8.98302,65.3989l-1.572,0a0.762,0.762 0 0 1 -0.762,-0.762a0.762,0.762 0 0 1 0.762,-0.762l1.572,0a0.762,0.762 0 0 1 0.762,0.762a0.762,0.762 0 0 1 -0.762,0.762z" data-name="Path 1396" id="Path_1396"/>
        </g>
        <g data-name="Group 1850" id="Group_1850">
         <path fill="#bcc3cd" d="m15.29097,65.3989l-1.572,0a0.762,0.762 0 0 1 -0.762,-0.762a0.762,0.762 0 0 1 0.762,-0.762l1.572,0a0.762,0.762 0 0 1 0.762,0.762a0.762,0.762 0 0 1 -0.762,0.762z" data-name="Path 1397" id="Path_1397"/>
        </g>
       </g>
       <g data-name="Group 1854" id="Group_1854">
        <g data-name="Group 1852" id="Group_1852">
         <path fill="#bcc3cd" d="m11.34989,63.03291a0.762,0.762 0 0 1 -0.762,-0.762l0,-1.572a0.762,0.762 0 0 1 0.762,-0.762a0.762,0.762 0 0 1 0.762,0.762l0,1.572a0.762,0.762 0 0 1 -0.762,0.762z" data-name="Path 1398" id="Path_1398"/>
        </g>
        <g data-name="Group 1853" id="Group_1853">
         <path fill="#bcc3cd" d="m11.34989,69.34088a0.762,0.762 0 0 1 -0.762,-0.762l0,-1.572a0.762,0.762 0 0 1 0.762,-0.762a0.762,0.762 0 0 1 0.762,0.762l0,1.572a0.762,0.762 0 0 1 -0.762,0.762z" data-name="Path 1399" id="Path_1399"/>
        </g>
       </g>
      </g>
     </g>
     <g stroke="#838eaa" fill="none" data-name="Ellipse 378" id="Ellipse_378">
      <circle id="svg_1" r="3" cy="8.83789" cx="9.47095"/>
      <circle id="svg_2" fill="none" r="2.5" cy="8.83789" cx="9.47095"/>
     </g>
     <g stroke="#838eaa" fill="none" data-name="Ellipse 383" id="Ellipse_383">
      <circle id="svg_3" r="3" cy="62.83789" cx="96.47095"/>
      <circle id="svg_4" fill="none" r="2.5" cy="62.83789" cx="96.47095"/>
     </g>
    </g>
   </g>
  </g>
  <g data-name="checked(2)" id="checked_2_">
   <g data-name="Group 2843" id="Group_2843">
    <g data-name="Group 2842" id="Group_2842">
     <path fill="#4eb7a1" d="m71.684,20.127a1.733,1.733 0 0 0 -2.451,0l-20.8,20.743l-7.5,-8.15a1.734,1.734 0 1 0 -2.551,2.349l8.726,9.477a1.732,1.732 0 0 0 1.238,0.559l0.037,0a1.735,1.735 0 0 0 1.224,-0.506l22.075,-22.018a1.733,1.733 0 0 0 0.002,-2.454z" data-name="Path 1968" id="Path_1968"/>
    </g>
   </g>
   <g data-name="Group 2845" id="Group_2845">
    <g data-name="Group 2844" id="Group_2844">
     <path fill="#4eb7a1" d="m71.266,35.104a1.734,1.734 0 0 0 -1.733,1.734a19.533,19.533 0 1 1 -19.533,-19.533a1.734,1.734 0 1 0 0,-3.467a23,23 0 1 0 23,23a1.734,1.734 0 0 0 -1.734,-1.734z" data-name="Path 1969" id="Path_1969"/>
    </g>
   </g>
  </g>
 </g>
</svg>