<svg xmlns="http://www.w3.org/2000/svg" width="18" height="18" viewBox="0 0 18 18"><defs><style>.a{fill:#d3dbe6;}.b{fill:#f8fafd;}.c{fill:none;}.d,.e{stroke:none;}.e{fill:#d3dbe6;}</style></defs><g transform="translate(-421 -539)"><rect class="a" width="18" height="18" rx="3" transform="translate(421 539)"/></g><path class="b" d="M12.3,1.928a1.8,1.8,0,0,1,1.441,2.883l-.721.721L11.929,4.439,10.5,3.009l.721-.721a1.794,1.794,0,0,1,1.081-.36ZM3.291,10.216l-.721,3.243,3.243-.721,6.667-6.667L9.958,3.55Zm7.338-4.194L5.584,11.067l-.621-.621L10.008,5.4l.621.621Z" transform="translate(0.479 1.396)"/><rect class="b" width="1.869" height="7.476" transform="translate(10.139 6.289) rotate(45)"/><rect class="a" width="7.476" height="1.2" rx="0.6" transform="translate(6.123 6.949) rotate(45)"/><rect class="b" width="14.448" height="1.4" rx="0.7" transform="translate(4.392 3.363) rotate(45)"/><g class="c" transform="translate(4.499 14.856) rotate(-135)"><path class="d" d="M1,0,2,1.707H0Z"/><path class="e" d="M 1 -3.099441528320312e-06 L 2 1.706776976585388 L 0 1.706776976585388 L 1 -3.099441528320312e-06 Z"/></g><path class="b" d="M0,0H1.127A2.387,2.387,0,0,1,.664.9.7.7,0,0,1,0,1.01Z" transform="translate(3.977 13.316) rotate(45)"/></svg>