<svg id="Group_3644" data-name="Group 3644" xmlns="http://www.w3.org/2000/svg" width="58" height="58" viewBox="0 0 58 58">
  <g id="Rectangle_4" data-name="Rectangle 4" fill="#edf1ff" stroke="#e1e9f4" stroke-miterlimit="10" stroke-width="1">
    <rect width="58" height="58" rx="10" stroke="none"/>
    <rect x="0.5" y="0.5" width="57" height="57" rx="9.5" fill="none"/>
  </g>
  <g id="Group_3649" data-name="Group 3649" transform="translate(-0.424)">
    <path id="Polygon_11" data-name="Polygon 11" d="M21.889.951a2,2,0,0,1,2.7.722l1.353,2.273a2,2,0,0,0,1.692.977l2.645.035a2,2,0,0,1,1.973,1.973l.035,2.645a2,2,0,0,0,.977,1.692l2.273,1.353a2,2,0,0,1,.722,2.7l-1.292,2.308a2,2,0,0,0,0,1.954l1.292,2.308a2,2,0,0,1-.722,2.7l-2.273,1.353a2,2,0,0,0-.977,1.692l-.035,2.645a2,2,0,0,1-1.973,1.973l-2.645.035a2,2,0,0,0-1.692.977l-1.353,2.273a2,2,0,0,1-2.7.722l-2.309-1.292a2,2,0,0,0-1.954,0l-2.309,1.292a2,2,0,0,1-2.7-.722L11.27,33.259a2,2,0,0,0-1.692-.977l-2.645-.035a2,2,0,0,1-1.973-1.973l-.035-2.645a2,2,0,0,0-.977-1.692L1.674,24.584a2,2,0,0,1-.722-2.7L2.244,19.58a2,2,0,0,0,0-1.954L.951,15.318a2,2,0,0,1,.722-2.7l2.273-1.353a2,2,0,0,0,.977-1.692l.035-2.645A2,2,0,0,1,6.932,4.959l2.645-.035a2,2,0,0,0,1.692-.977l1.353-2.273a2,2,0,0,1,2.7-.722l2.309,1.292a2,2,0,0,0,1.954,0Z" transform="matrix(0.966, 0.259, -0.259, 0.966, 16.269, 6.216)" fill="#3550a0"/>
    <path id="Path_2621" data-name="Path 2621" d="M-8.407-13.727V-27.841h4.194v14.114Zm8.243,0V-27.841H4.031v14.114Z" transform="translate(31.611 49.652)" fill="#f5f2fd"/>
    <path id="Path_2621_-_Outline" data-name="Path 2621 - Outline" d="M4.331-13.427H-.464V-28.141H4.331Zm-4.194-.6H3.731V-27.541H.136Zm-4.049.6H-8.707V-28.141h4.794Zm-4.194-.6h3.594V-27.541H-8.107Z" transform="translate(31.611 49.652)" fill="#3550a0"/>
  </g>
</svg>
