<?xml version="1.0" encoding="UTF-8"?><svg xmlns="http://www.w3.org/2000/svg" width="20" height="13" viewBox="0 0 92.72 114.87"><defs><style>.d{fill:#5db98f;}</style></defs><g id="a"/><g id="b"><g id="c"><path class="d" d="M86.78,49.82c.43-2.44,.66-4.95,.66-7.52,0-23.33-18.43-42.31-41.08-42.31S5.28,18.98,5.28,42.31c0,2.57,.24,5.07,.66,7.52-3.57,2.28-5.94,6.26-5.94,10.81v41.42c0,7.08,5.74,12.83,12.82,12.83H79.89c7.08,0,12.82-5.74,12.82-12.83h0V60.63c0-4.55-2.37-8.53-5.94-10.81Zm-34.76,36.16v9c0,3.13-2.53,5.66-5.66,5.66s-5.66-2.53-5.66-5.66v-9c-3.63-2-6.09-5.86-6.09-10.3,0-6.49,5.26-11.76,11.76-11.76s11.76,5.26,11.76,11.76c0,4.44-2.47,8.31-6.1,10.31Zm19.79-38.18H20.91c-.35-1.78-.53-3.62-.53-5.5,0-15,11.66-27.21,25.99-27.21s25.98,12.2,25.98,27.21c0,1.88-.18,3.72-.53,5.5Z"/></g></g></svg>