<svg xmlns="http://www.w3.org/2000/svg" xmlns:xlink="http://www.w3.org/1999/xlink" width="490" height="199.005" viewBox="0 0 490 199.005"><defs><style>.a{fill:#af60aa;opacity:0.338;}.b,.e,.k{fill:#f8fafd;}.c,.j{fill:none;}.d,.f{opacity:0.146;}.d{clip-path:url(#c);}.e,.j{stroke:#d3dbe6;}.e{stroke-width:1.5px;}.f{clip-path:url(#f);}.g,.i,.j{opacity:0.716;}.h,.i{fill:#d3dbe6;}.l,.m,.n{stroke:none;}.m{fill:rgba(211,219,230,0.3);}.n{fill:rgba(211,219,230,0.6);}.o{filter:url(#d);}.p{filter:url(#a);}</style><filter id="a" x="22.002" y="29.494" width="450.224" height="169.511" filterUnits="userSpaceOnUse"><feOffset dy="5" input="SourceAlpha"/><feGaussianBlur stdDeviation="5" result="b"/><feFlood flood-opacity="0.039"/><feComposite operator="in" in2="b"/><feComposite in="SourceGraphic"/></filter><clipPath id="c"><rect class="a" width="52.409" height="52.216" rx="12" transform="translate(0)"/></clipPath><filter id="d" x="0" y="0" width="490" height="181" filterUnits="userSpaceOnUse"><feOffset dy="5" input="SourceAlpha"/><feGaussianBlur stdDeviation="5" result="e"/><feFlood flood-opacity="0.039"/><feComposite operator="in" in2="e"/><feComposite in="SourceGraphic"/></filter><clipPath id="f"><rect class="a" width="54.313" height="54.113" rx="12" transform="translate(0)"/></clipPath></defs><g transform="translate(-411 -430)"><g transform="translate(448.002 469.494)"><g class="b" transform="translate(18.319 28.065)"><path class="l" d="M9.262,0H374.324a9.262,9.262,0,0,1,9.262,9.262V118.086a9.262,9.262,0,0,1-9.262,9.262H9.262A9.262,9.262,0,0,1,0,118.086V9.262A9.262,9.262,0,0,1,9.262,0Z"/><path class="m" d="M 9.2615966796875 1.5 C 4.98187255859375 1.5 1.5 4.981849670410156 1.5 9.261604309082031 L 1.5 118.0857543945312 C 1.5 122.3655548095703 4.98187255859375 125.8474044799805 9.2615966796875 125.8474044799805 L 352.3265075683594 125.8474044799805 L 374.3241577148438 125.8474044799805 C 378.6039428710938 125.8474044799805 382.0858154296875 122.3655548095703 382.0858154296875 118.0857543945312 L 382.0858154296875 9.261604309082031 C 382.0858154296875 4.981849670410156 378.6039428710938 1.5 374.3241577148438 1.5 L 9.2615966796875 1.5 M 9.2615966796875 0 L 374.3241577148438 0 C 379.4392700195312 0 383.5858154296875 4.146553039550781 383.5858154296875 9.261604309082031 L 383.5858154296875 118.0857543945312 C 383.5858154296875 123.2008056640625 379.4392700195312 127.3474044799805 374.3241577148438 127.3474044799805 L 352.3265075683594 127.3474044799805 L 9.2615966796875 127.3474044799805 C 4.14654541015625 127.3474044799805 0 123.2008056640625 0 118.0857543945312 L 0 9.261604309082031 C 0 4.146553039550781 4.14654541015625 0 9.2615966796875 0 Z"/></g><g class="p" transform="matrix(1, 0, 0, 1, -37, -39.49)"><g class="b" transform="translate(37 39.49)"><path class="l" d="M10.146,0H410.077a10.146,10.146,0,0,1,10.146,10.146V129.365a10.146,10.146,0,0,1-10.146,10.146H10.146A10.146,10.146,0,0,1,0,129.365V10.146A10.146,10.146,0,0,1,10.146,0Z"/><path class="n" d="M 10.14627075195312 1.5 C 5.378692626953125 1.5 1.5 5.378692626953125 1.5 10.14620971679688 L 1.5 129.3645782470703 C 1.5 134.1321563720703 5.378692626953125 138.0108489990234 10.14627075195312 138.0108489990234 L 385.978515625 138.0108489990234 L 410.0773010253906 138.0108489990234 C 414.8448791503906 138.0108489990234 418.7235717773438 134.1321563720703 418.7235717773438 129.3645782470703 L 418.7235717773438 10.14620971679688 C 418.7235717773438 5.378692626953125 414.8448791503906 1.5 410.0773010253906 1.5 L 10.14627075195312 1.5 M 10.14627075195312 0 L 410.0773010253906 0 C 415.6809387207031 0 420.2235717773438 4.542633056640625 420.2235717773438 10.14620971679688 L 420.2235717773438 129.3645782470703 C 420.2235717773438 134.9682159423828 415.6809387207031 139.5108489990234 410.0773010253906 139.5108489990234 L 385.978515625 139.5108489990234 L 10.14627075195312 139.5108489990234 C 4.542633056640625 139.5108489990234 0 134.9682159423828 0 129.3645782470703 L 0 10.14620971679688 C 0 4.542633056640625 4.542633056640625 0 10.14627075195312 0 Z"/></g></g><g transform="translate(221.526 76.097)"><rect class="c" width="11" height="11" transform="translate(0.472 0.409)"/></g></g><g class="o" transform="matrix(1, 0, 0, 1, 411, 430)"><g class="e" transform="translate(15 10)"><rect class="l" width="460" height="151" rx="12"/><rect class="c" x="0.75" y="0.75" width="458.5" height="149.5" rx="11.25"/></g></g><g transform="translate(667.819 522.861)"><rect class="c" width="12" height="12" transform="translate(0.181 0.139)"/></g><g class="g" transform="translate(442.065 460.292)"><rect class="h" width="49" height="49" rx="10" transform="translate(-0.065 -0.293)"/></g><rect class="i" width="35" height="31" rx="2" transform="translate(793 468)"/><rect class="i" width="120" height="31" rx="15.5" transform="translate(752 538)"/><rect class="i" width="36" height="12" rx="2" transform="translate(831 487)"/><rect class="i" width="176" height="16" rx="2" transform="translate(504 460)"/><rect class="i" width="191" height="8" rx="2" transform="translate(504 488)"/><rect class="i" width="152" height="7" rx="2" transform="translate(504 502)"/><path class="j" d="M8874,6954.242h427.833" transform="translate(-8429.38 -6427.894)"/><g transform="translate(455 496)"><path class="k" d="M23-1H1V-17H23Zm.5-17H.5a.5.5,0,0,0-.5.5v17A.5.5,0,0,0,.5,0h23A.5.5,0,0,0,24-.5v-17a.5.5,0,0,0-.5-.5"/><path class="k" d="M2.585-20H22.42a.5.5,0,0,0,.5-.5.5.5,0,0,0-.5-.5H2.585a.5.5,0,0,0-.5.5.5.5,0,0,0,.5.5"/><path class="k" d="M4.474-23H19.486a.5.5,0,0,0,.5-.5.5.5,0,0,0-.5-.5H4.474a.5.5,0,0,0-.5.5.5.5,0,0,0,.5.5"/></g></g></svg>