<svg xmlns="http://www.w3.org/2000/svg" width="93.667" height="91.963" viewBox="0 0 93.667 91.963"><defs><style>.a{fill:#cb4477;}</style></defs><g transform="translate(0 -0.5)"><path class="a" d="M83.448,14.124V.5H0V80.542H11.921V92.463H93.666V14.124ZM3.406,77.136V3.906H80.042V14.124H11.921V77.136ZM90.26,89.057H15.327V17.53H90.26Z" transform="translate(0 0)"/><path class="a" d="M51.622,23.221a1.7,1.7,0,0,0-2.408,0L37.171,35.263,25.129,23.221a1.7,1.7,0,0,0-2.408,2.408L34.763,37.671,22.721,49.713a1.7,1.7,0,1,0,2.408,2.408L37.171,40.079,49.213,52.122a1.7,1.7,0,0,0,2.408-2.408L39.579,37.671,51.622,25.629A1.7,1.7,0,0,0,51.622,23.221Z" transform="translate(15.622 15.622)"/></g></svg>