<svg xmlns="http://www.w3.org/2000/svg" xmlns:xlink="http://www.w3.org/1999/xlink" width="9" height="11" viewBox="0 0 9 11"><defs><path id="x6hja" d="M330.55 629.67c.04.1.18.13.64.1l.58-.02.06-.56c.13-1.28.68-1.9 1.7-1.9.89 0 1.52.58 1.62 1.52l.1.7.04.29h1.2v-.55c0-1.34-.6-2.43-1.59-2.91-1.51-.75-3.24-.21-3.95 1.23a4.82 4.82 0 0 0-.4 2.1zm3.3 5.47c-.17.24-.53.25-.65.03-.05-.1-.09-.38-.09-.64 0-.36-.05-.53-.21-.75a1.09 1.09 0 0 1-.22-.5c0-.76.87-1.16 1.4-.64.3.32.34.82.07 1.16-.12.16-.17.35-.17.68 0 .28-.05.55-.14.66zm-3.85 1.77c.27.14.63.15 3.53.15 4.55 0 4.2.27 4.24-3.33.02-2.5.02-2.52-.17-2.8-.11-.17-.31-.38-.45-.48-.23-.17-.35-.18-3.48-.2-3.07-.03-3.26-.02-3.63.14-.23.1-.45.28-.56.46-.16.27-.17.43-.17 2.8 0 2.48 0 2.53.2 2.82.1.16.32.36.49.44z"/></defs><g><g transform="translate(-329 -626)"><use fill="#5cb98f" xlink:href="#x6hja"/></g></g></svg>