<svg xmlns="http://www.w3.org/2000/svg" width="35.985" height="32.696" viewBox="0 0 35.985 32.696"><defs><style>.a{fill:#fff;}</style></defs><path class="a" d="M.068,27.03c.108-.174.28-.186.522-.033a34.862,34.862,0,0,0,17.805,4.749,35.245,35.245,0,0,0,12.67-2.392l.472-.21c.207-.09.351-.15.44-.195a.6.6,0,0,1,.787.195c.18.261.135.5-.18.72-.384.285-.9.615-1.509.981A24.35,24.35,0,0,1,24.8,33.434a26.425,26.425,0,0,1-6.774.915,26.292,26.292,0,0,1-9.653-1.78A26.819,26.819,0,0,1,.226,27.543.452.452,0,0,1,0,27.213a.326.326,0,0,1,.075-.195ZM9.915,17.7a6.6,6.6,0,0,1,1.115-3.865,6.864,6.864,0,0,1,3.06-2.422,16.592,16.592,0,0,1,4.368-1.08c.585-.069,1.549-.155,2.88-.261V9.519a6,6,0,0,0-.45-2.812,2.456,2.456,0,0,0-2.16-.975h-.273a3.6,3.6,0,0,0-1.869.69,2.712,2.712,0,0,0-1.012,1.644.841.841,0,0,1-.653.765l-3.78-.472c-.372-.09-.558-.27-.558-.585a.9.9,0,0,1,.033-.225,6.31,6.31,0,0,1,2.73-4.32,10.492,10.492,0,0,1,5.085-1.575h.81a8.326,8.326,0,0,1,5.832,1.935c.2.225.405.45.608.72a3.888,3.888,0,0,1,.424.675,2.876,2.876,0,0,1,.292.855c.09.381.157.63.2.765a4.321,4.321,0,0,1,.114.923c.015.47.03.739.03.829v7.92a4.891,4.891,0,0,0,.247,1.554,3.577,3.577,0,0,0,.472,1.011l.765,1.011a1.022,1.022,0,0,1,.2.54.577.577,0,0,1-.27.471c-1.8,1.575-2.79,2.43-2.944,2.565a.876.876,0,0,1-.945.067,9.093,9.093,0,0,1-.789-.744l-.465-.521c-.09-.111-.249-.315-.476-.63l-.45-.653a8.039,8.039,0,0,1-3.6,2.5,9.484,9.484,0,0,1-2.745.34,5.756,5.756,0,0,1-4.14-1.551,5.81,5.81,0,0,1-1.62-4.41l-.075-.114Zm5.63-.657a3.1,3.1,0,0,0,.638,2.046,2.156,2.156,0,0,0,1.733.768,2.21,2.21,0,0,0,.292-.03,1.656,1.656,0,0,1,.249-.035,3.365,3.365,0,0,0,2.136-1.767,4.719,4.719,0,0,0,.54-1.365,5.856,5.856,0,0,0,.2-1.2c.022-.292.022-.81.022-1.507v-.81a11.6,11.6,0,0,0-2.88.27,3.515,3.515,0,0,0-2.88,3.645l-.052-.03ZM29.288,27.587a1.088,1.088,0,0,1,.2-.255,5.345,5.345,0,0,1,1.575-.75,12.141,12.141,0,0,1,2.418-.36,1.994,1.994,0,0,1,.615.045c.975.09,1.575.252,1.758.5a1.043,1.043,0,0,1,.135.585v.225a7.494,7.494,0,0,1-.623,2.7,6.53,6.53,0,0,1-1.734,2.52.494.494,0,0,1-.3.135.35.35,0,0,1-.135-.018c-.135-.066-.16-.18-.1-.36a12.311,12.311,0,0,0,1.209-3.96.86.86,0,0,0-.131-.516c-.217-.249-.825-.385-1.836-.385-.365,0-.8.024-1.305.069-.545.067-1.05.135-1.5.2a.4.4,0,0,1-.27-.066c-.045-.045-.054-.07-.03-.115a.247.247,0,0,1,.03-.094v-.09Z" transform="translate(-0.002 -1.653)"/></svg>