<svg xmlns="http://www.w3.org/2000/svg" width="41.888" height="26.754" viewBox="0 0 41.888 26.754">
  <g id="Group_1643" data-name="Group 1643" transform="translate(-2130.556 -4670.123)">
    <g id="Group_1630" data-name="Group 1630" transform="translate(2130.556 4670.123)">
      <path id="Path_1177" data-name="Path 1177" d="M3.783,0H38.1a3.783,3.783,0,0,1,3.783,3.783V22.971A3.783,3.783,0,0,1,38.1,26.754H3.783A3.783,3.783,0,0,1,0,22.971V3.783A3.783,3.783,0,0,1,3.783,0Z" fill="#2c8cd0"/>
    </g>
    <path id="Path_1178" data-name="Path 1178" d="M115.417,307.855l1.587-1.71v3.471Zm-5.065-1.284v.787h2.277v.884h-2.277v.865H112.9l1.181-1.277-1.136-1.265-2.594.006Zm28.169.652a1.9,1.9,0,0,1,.516,1.419c0,1.3-.871,2.084-2.342,2.084h-2.013a.719.719,0,0,1-.658-.432,2.656,2.656,0,0,1-1.555.432H130.45a.709.709,0,0,1-.31-.077.732.732,0,0,1-.31.077h-3.458a.684.684,0,0,0-.632,0h-1.045a.708.708,0,0,1-.71-.71v-.632c0-.065,0-.155-.006-.232a1.767,1.767,0,0,0-.206-.006h-.387v.871a.709.709,0,0,1-.716.71h-1.045a.708.708,0,0,1-.71-.71v-1.1a3.033,3.033,0,0,1-1.574.361h-.574v.742a.708.708,0,0,1-.71.71h-2.013a.715.715,0,0,1-.535-.239l-.748-.845-.787.858a.712.712,0,0,1-.529.226h-4.09a.713.713,0,0,1-.716-.71v-4.329a.715.715,0,0,1,.716-.716H113.5a.715.715,0,0,1,.535.239l.755.839.787-.845a.7.7,0,0,1,.523-.226h3.31a2.867,2.867,0,0,1,1.6.4.706.706,0,0,1,.632-.4h2.394a3.186,3.186,0,0,1,1.581.29,1.121,1.121,0,0,1,.135.11.708.708,0,0,1,.632-.394h3.452a.693.693,0,0,1,.613.381,2.38,2.38,0,0,1,1.361-.381h2.077a.7.7,0,0,1,.665.477,2.3,2.3,0,0,1,1.484-.477H138.1a.709.709,0,0,1,.71.716v.916a.713.713,0,0,1-.329.606c.019-.013.026-.006.039,0Zm-17.388-.123c0-1.2-.923-1.426-1.748-1.426h-3.3l-1.316,1.419-1.277-1.419H109.32v4.336h4.1l1.329-1.439,1.271,1.439h2.013v-1.452h1.29c.91,0,1.813-.252,1.813-1.458Zm3.923.9a1.216,1.216,0,0,0,.735-1.155,1.008,1.008,0,0,0-.529-.961,2.581,2.581,0,0,0-1.245-.2h-2.394v4.336h1.039v-1.581h1.1c.381,0,.613.039.755.187.2.2.168.587.168.845v.542h1.045v-.858a1.275,1.275,0,0,0-.174-.794,1.128,1.128,0,0,0-.5-.361Zm4.768-2.316h-3.458v4.336h3.458v-.9h-2.432v-.865h2.368v-.884h-2.368v-.787h2.432Zm4.258,2.961a1.205,1.205,0,0,0-.31-.916,1.643,1.643,0,0,0-1.181-.348l-.555-.019a1.336,1.336,0,0,1-.4-.045.367.367,0,0,1-.071-.639.749.749,0,0,1,.413-.077h1.9v-.916h-2.071c-1.09,0-1.484.658-1.484,1.29,0,1.368,1.213,1.31,2.181,1.342a.514.514,0,0,1,.368.1.377.377,0,0,1,.123.284.4.4,0,0,1-.123.284.617.617,0,0,1-.419.11H130.45v.929h2.013c1.039-.006,1.619-.439,1.619-1.374Zm4.232,0a1.205,1.205,0,0,0-.31-.916,1.664,1.664,0,0,0-1.181-.348l-.561-.019a1.364,1.364,0,0,1-.4-.045.367.367,0,0,1-.071-.639.761.761,0,0,1,.419-.077h1.9v-.916h-2.071c-1.09,0-1.484.658-1.484,1.29,0,1.368,1.213,1.31,2.187,1.342a.524.524,0,0,1,.368.1.355.355,0,0,1,.123.284.4.4,0,0,1-.123.284.617.617,0,0,1-.419.11h-2.007v.929H136.7c1.039-.006,1.619-.439,1.619-1.374Zm-18.93-2.071h-1.348v1.1h1.336c.4,0,.645-.2.645-.574s-.252-.529-.632-.529ZM120,300a.445.445,0,0,0,.213-.413A.408.408,0,0,0,120,299.2a1.12,1.12,0,0,0-.49-.077H118.23v.961h1.258A.978.978,0,0,0,120,300Zm4.432,6.658a.972.972,0,0,0-.49-.077h-1.277v.974h1.265a1.015,1.015,0,0,0,.516-.09.46.46,0,0,0,.213-.413.428.428,0,0,0-.226-.394Zm3.832-7.7-.71,1.729h1.432Zm-25.3,1.729h1.413l-.7-1.729Zm5.8,2.587a.714.714,0,0,1-.652-.426l-.135-.31v.019a.708.708,0,0,1-.71.71h-2.11a.714.714,0,0,1-.658-.445l-.213-.523h-1.2l-.219.523a.714.714,0,0,1-.658.445h-1.136a.708.708,0,0,1-.652-.994l1.852-4.336a.722.722,0,0,1,.658-.432h1.536a.719.719,0,0,1,.658.432l.387.91v-.619a.715.715,0,0,1,.716-.716h1.69a.706.706,0,0,1,.645.419l.677,1.471.613-1.452a.718.718,0,0,1,.658-.439h1.729a.679.679,0,0,1,.387.129.664.664,0,0,1,.387-.129h3.452a.65.65,0,0,0,.723,0h2.374a3.081,3.081,0,0,1,1.613.3.965.965,0,0,1,.129.1.713.713,0,0,1,.632-.4H123a.719.719,0,0,1,.7.607,2.835,2.835,0,0,1,1.942-.607h1a.723.723,0,0,1,.432.142.7.7,0,0,1,.426-.142h1.555a.713.713,0,0,1,.652.432l.381.89v-.607a.713.713,0,0,1,.71-.716h1.574a.729.729,0,0,1,.613.348l.5.813v-.452a.709.709,0,0,1,.716-.71h1.058a.708.708,0,0,1,.71.71v4.336a.708.708,0,0,1-.71.71h-1.465a.707.707,0,0,1-.613-.348l-.632-1.052v.684a.708.708,0,0,1-.71.71h-2.1a.716.716,0,0,1-.665-.445l-.213-.523h-1.194l-.206.523a.709.709,0,0,1-.665.445h-1.213a3.043,3.043,0,0,1-1.877-.574.7.7,0,0,1-.684.574h-1.058a.827.827,0,0,1-.329-.084.66.66,0,0,1-.316.084h-1.032a.717.717,0,0,1-.716-.71l-.006-.542.006-.1c0-.052,0-.142-.006-.213a1.653,1.653,0,0,0-.2-.006h-.413v.858a.708.708,0,0,1-.71.71H117.2a.65.65,0,0,0-.723,0h-3.458a.707.707,0,0,1-.387-.123.724.724,0,0,1-.387.123h-1.058a.709.709,0,0,1-.716-.71v-.019l-.135.3a.714.714,0,0,1-.652.426l-.916.013Zm14.749-2.852a1.833,1.833,0,0,0,2.052,2.129h1.226l.387-.968h2.155l.4.968h2.1v-3.252l1.961,3.252h1.465V298.21h-1.052v3.019l-1.826-3.019h-1.574v4.1l-1.748-4.1H127.5l-1.465,3.413h-.465a1,1,0,0,1-.723-.226,1.492,1.492,0,0,1-.284-1.019,1.409,1.409,0,0,1,.3-.981.989.989,0,0,1,.794-.258h.981v-.929H125.63a2.128,2.128,0,0,0-1.574.5,2.417,2.417,0,0,0-.542,1.7Zm2.155-.555c-.245,0-.271.026-.3.052a1.184,1.184,0,0,0-.077.471,1.136,1.136,0,0,0,.077.5.678.678,0,0,0,.2.026l.452-1.045Zm-3.716,2.7h1.058v-4.336h-1.058Zm-4.761,0h1.032v-1.574h1.11c.374,0,.606.032.755.187a1.3,1.3,0,0,1,.161.845l.006.542h1.052v-.845a1.222,1.222,0,0,0-.174-.794,1.176,1.176,0,0,0-.516-.361,1.22,1.22,0,0,0,.729-1.155,1.021,1.021,0,0,0-.523-.961,2.437,2.437,0,0,0-1.252-.2h-2.381v4.316Zm-4.181,0h3.458v-.9h-2.426V300.8h2.368v-.9h-2.368v-.781h2.426v-.9H113.01Zm-4.245,0h.91l1.5-3.394.006,3.394h1.065v-4.336H110.52l-1.245,2.942-1.361-2.942h-1.69v4.1l-1.761-4.1h-1.536l-1.858,4.336H102.2l.4-.968h2.155l.4.968h2.11v-3.4Z" transform="translate(2031.818 4379.465)" fill="#fff"/>
  </g>
</svg>
