<svg xmlns="http://www.w3.org/2000/svg" width="37.938" height="33.115" viewBox="0 0 37.938 33.115"><defs><style>.a{fill:#fff;}</style></defs><g transform="translate(-66.976 -261.917)"><g transform="translate(66.976 286.616)"><path class="a" d="M-410.908,527.946a2.714,2.714,0,0,0-2.646,2.875,2.694,2.694,0,0,0,2.646,2.854,2.127,2.127,0,0,0,1.75-.813v.354a.373.373,0,0,0,.354.354h.875v-5.5h-1.229v.7A2.13,2.13,0,0,0-410.908,527.946Zm.219,1.125a1.683,1.683,0,0,1,1.637,1.75,1.7,1.7,0,0,1-1.635,1.749,1.663,1.663,0,0,1-1.617-1.761A1.639,1.639,0,0,1-410.689,529.071Z" transform="translate(413.554 -525.26)"/><path class="a" d="M-364.525,533.561a.344.344,0,0,1-.354-.354v-5.146h1.229v.681a1.917,1.917,0,0,1,1.658-.807,2.054,2.054,0,0,1,2.092,2.106v3.521h-.854a.376.376,0,0,1-.375-.375v-2.875a1.166,1.166,0,0,0-1.145-1.249,1.486,1.486,0,0,0-1.376,1.583v2.917Z" transform="translate(371.859 -525.249)"/><path class="a" d="M-320.97,512.264a2.714,2.714,0,0,0-2.646,2.875,2.694,2.694,0,0,0,2.646,2.854,2.127,2.127,0,0,0,1.75-.812v.354a.373.373,0,0,0,.354.354h.875v-8.25h-1.229v3.448A2.13,2.13,0,0,0-320.97,512.264Zm.219,1.125a1.683,1.683,0,0,1,1.637,1.75,1.7,1.7,0,0,1-1.635,1.749,1.663,1.663,0,0,1-1.617-1.761A1.639,1.639,0,0,1-320.751,513.389Z" transform="translate(336.512 -509.578)"/><path class="a" d="M-274.588,533.944a.344.344,0,0,1-.354-.354v-5.146h1.229v.917a1.515,1.515,0,0,1,1.479-.979,2.565,2.565,0,0,1,.438.042v1.271a1.77,1.77,0,0,0-.583-.1,1.453,1.453,0,0,0-1.333,1.582v2.772Z" transform="translate(294.818 -525.633)"/><path class="a" d="M-203.1,534.318a.344.344,0,0,1-.354-.354v-5.146h1.229v5.5Z" transform="translate(233.583 -526.006)"/><path class="a" d="M-185.556,512.264a2.714,2.714,0,0,0-2.646,2.875,2.694,2.694,0,0,0,2.646,2.854,2.127,2.127,0,0,0,1.75-.812v.354a.373.373,0,0,0,.354.354h.875v-8.25h-1.229v3.448A2.13,2.13,0,0,0-185.556,512.264Zm.219,1.125a1.683,1.683,0,0,1,1.637,1.75,1.7,1.7,0,0,1-1.635,1.749,1.663,1.663,0,0,1-1.617-1.761A1.639,1.639,0,0,1-185.337,513.389Z" transform="translate(220.515 -509.578)"/><circle class="a" cx="0.813" cy="0.813" r="0.813" transform="translate(29.919 0)"/><path class="a" d="M-247.523,527.933a2.831,2.831,0,0,0-2.867,2.867,2.8,2.8,0,0,0,2.864,2.864,2.837,2.837,0,0,0,2.908-2.854A2.856,2.856,0,0,0-247.523,527.933Zm0,1.148a1.66,1.66,0,0,1,1.649,1.723,1.685,1.685,0,0,1-1.647,1.733,1.672,1.672,0,0,1-1.645-1.716A1.657,1.657,0,0,1-247.518,529.081Z" transform="translate(273.786 -525.248)"/></g><path class="a" d="M95.335,268.322l3.145-5.448a.639.639,0,0,0-.231-.871.631.631,0,0,0-.867.231L94.2,267.753a19.882,19.882,0,0,0-16.22,0l-3.186-5.518a.637.637,0,0,0-1.1.64l3.145,5.448a18.778,18.778,0,0,0-9.7,14.854h37.913a18.772,18.772,0,0,0-9.707-14.854Zm-17.954,9.53a1.589,1.589,0,1,1,1.589-1.589A1.59,1.59,0,0,1,77.382,277.852Zm17.4,0a1.589,1.589,0,1,1,1.589-1.589A1.59,1.59,0,0,1,94.786,277.852Z" transform="translate(-0.131)"/></g></svg>