<svg xmlns="http://www.w3.org/2000/svg" width="40.983" height="35.773" viewBox="0 0 40.983 35.773"><defs><style>.a{fill:#62dba3;}</style></defs><g transform="translate(-66.976 -261.917)"><g transform="translate(66.976 288.598)"><path class="a" d="M-410.7,527.946a2.932,2.932,0,0,0-2.858,3.106,2.91,2.91,0,0,0,2.858,3.083,2.3,2.3,0,0,0,1.891-.878v.383a.4.4,0,0,0,.383.383h.945v-5.941h-1.328v.754A2.3,2.3,0,0,0-410.7,527.946Zm.237,1.215a1.818,1.818,0,0,1,1.769,1.89,1.833,1.833,0,0,1-1.766,1.89,1.8,1.8,0,0,1-1.746-1.9A1.771,1.771,0,0,1-410.459,529.161Z" transform="translate(413.554 -525.044)"/><path class="a" d="M-364.5,534.013a.372.372,0,0,1-.383-.383v-5.559h1.328v.735a2.071,2.071,0,0,1,1.791-.872,2.219,2.219,0,0,1,2.26,2.275v3.8h-.923a.407.407,0,0,1-.405-.405V530.5a1.26,1.26,0,0,0-1.237-1.349,1.606,1.606,0,0,0-1.486,1.71v3.151Z" transform="translate(372.419 -525.034)"/><path class="a" d="M-320.758,512.475a2.932,2.932,0,0,0-2.858,3.106,2.91,2.91,0,0,0,2.858,3.083,2.3,2.3,0,0,0,1.89-.878v.383a.4.4,0,0,0,.383.383h.945v-8.912h-1.328v3.725A2.3,2.3,0,0,0-320.758,512.475Zm.237,1.215a1.818,1.818,0,0,1,1.769,1.89,1.833,1.833,0,0,1-1.766,1.89,1.8,1.8,0,0,1-1.746-1.9A1.771,1.771,0,0,1-320.522,513.69Z" transform="translate(337.547 -509.573)"/><path class="a" d="M-274.56,534.391a.372.372,0,0,1-.383-.383v-5.559h1.328v.99a1.636,1.636,0,0,1,1.6-1.058,2.77,2.77,0,0,1,.473.045V529.8a1.912,1.912,0,0,0-.63-.112,1.57,1.57,0,0,0-1.44,1.709v2.994Z" transform="translate(296.413 -525.412)"/><path class="a" d="M-203.075,534.759a.372.372,0,0,1-.383-.383v-5.559h1.328v5.942Z" transform="translate(236 -525.781)"/><path class="a" d="M-185.343,512.475a2.932,2.932,0,0,0-2.858,3.106,2.91,2.91,0,0,0,2.858,3.083,2.3,2.3,0,0,0,1.89-.878v.383a.4.4,0,0,0,.383.383h.945v-8.912h-1.328v3.725A2.3,2.3,0,0,0-185.343,512.475Zm.237,1.215a1.818,1.818,0,0,1,1.769,1.89,1.833,1.833,0,0,1-1.766,1.89,1.8,1.8,0,0,1-1.746-1.9A1.771,1.771,0,0,1-185.107,513.69Z" transform="translate(223.108 -509.573)"/><circle class="a" cx="0.878" cy="0.878" r="0.878" transform="translate(32.32 0)"/><path class="a" d="M-247.292,527.933a3.058,3.058,0,0,0-3.1,3.1,3.024,3.024,0,0,0,3.094,3.094,3.065,3.065,0,0,0,3.142-3.083A3.085,3.085,0,0,0-247.292,527.933Zm0,1.24a1.793,1.793,0,0,1,1.782,1.861,1.82,1.82,0,0,1-1.779,1.872,1.806,1.806,0,0,1-1.777-1.854A1.79,1.79,0,0,1-247.288,529.173Z" transform="translate(275.663 -525.033)"/></g><path class="a" d="M97.6,268.836l3.4-5.885a.69.69,0,0,0-.25-.941.681.681,0,0,0-.936.25l-3.442,5.961a21.477,21.477,0,0,0-17.522,0L75.4,262.26a.688.688,0,0,0-1.19.691l3.4,5.885a20.284,20.284,0,0,0-10.482,16.046h40.956A20.279,20.279,0,0,0,97.6,268.836ZM78.2,279.131a1.717,1.717,0,1,1,1.717-1.717A1.717,1.717,0,0,1,78.2,279.131Zm18.8,0a1.717,1.717,0,1,1,1.717-1.717A1.717,1.717,0,0,1,97.006,279.131Z" transform="translate(-0.13 0)"/></g></svg>