<svg xmlns="http://www.w3.org/2000/svg" width="23.419" height="28.102" viewBox="0 0 23.419 28.102"><defs><style>.a{fill:#fff;}</style></defs><path class="a" d="M25.419,20.617c-.92,2.67-3.676,7.4-6.514,7.448-1.883.036-2.488-1.116-4.64-1.116S11.44,28.03,9.66,28.1C6.649,28.216,2,21.277,2,15.226,2,9.667,5.873,6.912,9.258,6.862c1.815-.033,3.529,1.224,4.636,1.224S17.086,6.575,19.275,6.8A6.567,6.567,0,0,1,24.414,9.58c-4.381,2.859-3.7,8.839,1,11.037ZM19.3,0a6.219,6.219,0,0,0-5.632,6.477C16.731,6.714,19.665,3.286,19.3,0Z" transform="translate(-2)"/></svg>