<svg xmlns="http://www.w3.org/2000/svg" width="47.654" height="19.573" viewBox="0 0 47.654 19.573">
  <g id="Group_2834" data-name="Group 2834" transform="translate(-657.466 -581)" style="isolation: isolate">
    <path id="Path_1960" data-name="Path 1960" d="M1467.467,704.565l-.286-.067v-1.7c.185,0,.367,0,.55,0a1.776,1.776,0,0,0,1.94-1.33,1.993,1.993,0,0,0,.016-1.529c-1.181-3.175-2.317-6.367-3.467-9.554-.033-.093-.061-.188-.1-.306.759,0,1.5,0,2.231.009.061,0,.149.116.174.193.429,1.368.851,2.739,1.274,4.11s.838,2.711,1.258,4.066c.018.059.04.117.085.248.048-.14.078-.219.1-.3q1.256-4.054,2.509-8.109c.047-.152.1-.225.282-.222.675.013,1.35.005,2.054.005a1.762,1.762,0,0,1-.043.183q-2,5.618-4.013,11.236a6.341,6.341,0,0,1-1,1.859,3.174,3.174,0,0,1-2.229,1.162c-.075.008-.149.029-.224.045Z" transform="translate(-770.97 -103.991)" fill="#bcc3cd"/>
    <path id="Path_1961" data-name="Path 1961" d="M797.059,581a3.426,3.426,0,0,1-2.41,3.554,6.35,6.35,0,0,1-.737.105,2.5,2.5,0,0,1,.142-1.272,3.529,3.529,0,0,1,2.668-2.344.658.658,0,0,0,.1-.043Z" transform="translate(-130.062)" fill="#bcc3cd"/>
    <path id="Path_1962" data-name="Path 1962" d="M669.862,664.428a3.518,3.518,0,0,0,.433,6.231c-.177.409-.338.827-.535,1.227a9.013,9.013,0,0,1-1.437,2.11,2.06,2.06,0,0,1-2.608.558,3.254,3.254,0,0,0-2.029-.339,7.95,7.95,0,0,0-1.057.345,2.538,2.538,0,0,1-1.266.233,2.054,2.054,0,0,1-1.2-.67,9.773,9.773,0,0,1-2.395-4.331,7.133,7.133,0,0,1-.086-3.795,4.007,4.007,0,0,1,2.43-2.816,3.2,3.2,0,0,1,2.364-.052c.291.107.583.211.869.332a1.559,1.559,0,0,0,1.22.008,9.333,9.333,0,0,1,1.5-.5,3.611,3.611,0,0,1,3.581,1.164c.052.057.1.121.144.183C669.812,664.346,669.831,664.379,669.862,664.428Z" transform="translate(0 -78.064)" fill="#bcc3cd"/>
    <path id="Path_1963" data-name="Path 1963" d="M1022.6,604.825c.079,0,.141-.009.2-.009,1.77,0,3.541-.009,5.311,0a4.561,4.561,0,0,1,3.579,1.551,4.722,4.722,0,0,1,1.116,3.342,4.588,4.588,0,0,1-1.508,3.461,4.8,4.8,0,0,1-3.225,1.19c-.97.019-1.941.006-2.911.007h-.312v4.941H1022.6Zm2.262,1.9v5.744c.839,0,1.661,0,2.483,0,.186,0,.374,0,.558-.018a3.061,3.061,0,0,0,1.6-.566,2.689,2.689,0,0,0,1-2.277,2.561,2.561,0,0,0-1.951-2.758,3.458,3.458,0,0,0-.8-.12c-.916-.018-1.833-.014-2.749-.018A1.42,1.42,0,0,0,1024.865,606.726Z" transform="translate(-348.121 -22.703)" fill="#bcc3cd"/>
    <path id="Path_1964" data-name="Path 1964" d="M1262.627,697.649h-2.076v-1.688l-.087-.057a.252.252,0,0,1-.013.1,4.076,4.076,0,0,1-5.783.966,2.914,2.914,0,0,1,.538-4.849,6.933,6.933,0,0,1,2.6-.572c.829-.05,1.659-.094,2.488-.15.06,0,.165-.084.164-.127a7.5,7.5,0,0,0-.053-1.16,1.494,1.494,0,0,0-1.126-1.211,3.037,3.037,0,0,0-1.543-.08,1.839,1.839,0,0,0-1.56,1.412h-2.02a2.759,2.759,0,0,1,.373-1.334,3.622,3.622,0,0,1,2.283-1.682,5.54,5.54,0,0,1,3.954.28,3.051,3.051,0,0,1,1.862,2.928c.01,2.346,0,4.691,0,7.037Zm-2.195-4.729a.535.535,0,0,0-.089-.009c-.751.047-1.5.092-2.253.142a3.907,3.907,0,0,0-1.448.3,1.339,1.339,0,0,0,.028,2.483,2.722,2.722,0,0,0,1.5.188A2.463,2.463,0,0,0,1260.432,692.92Z" transform="translate(-568.363 -101.039)" fill="#bcc3cd"/>
  </g>
</svg>
