<svg width="24" height="15" viewBox="0 0 24 15" fill="none" xmlns="http://www.w3.org/2000/svg">
<path d="M0.820801 14.9343V11.5062H1.83709C2.57578 11.5062 3.05099 11.7952 3.05099 12.3926C3.05099 12.7305 2.90043 12.9656 2.6887 13.1027C2.99452 13.2496 3.17331 13.5337 3.17331 13.9205C3.17331 14.6111 2.6887 14.9343 1.93589 14.9343H0.820801ZM1.4748 12.9313H1.95942C2.25583 12.9313 2.38288 12.7795 2.38288 12.5004C2.38288 12.2016 2.15232 12.1037 1.84179 12.1037H1.4748L1.4748 12.9313ZM1.4748 14.3368H1.87943C2.27466 14.3368 2.5052 14.234 2.5052 13.9108C2.5052 13.5924 2.30759 13.4602 1.93589 13.4602H1.4748L1.4748 14.3368ZM4.44158 14.993C3.79699 14.993 3.47234 14.6649 3.47234 14.2242C3.47234 13.7393 3.85345 13.4553 4.41806 13.4504C4.55836 13.4531 4.69829 13.4662 4.8368 13.4896V13.3721C4.8368 13.0733 4.67212 12.9313 4.35689 12.9313C4.14453 12.9285 3.93365 12.9684 3.73582 13.0489L3.6182 12.52C3.82051 12.4318 4.14516 12.373 4.43217 12.373C5.12381 12.373 5.46727 12.755 5.46727 13.4161V14.7776C5.27437 14.8804 4.91208 14.993 4.44158 14.993ZM4.8368 14.4397V13.9157C4.72711 13.8903 4.61512 13.8771 4.50275 13.8765C4.28631 13.8765 4.11694 13.9646 4.11694 14.1948C4.11694 14.4005 4.25808 14.5082 4.50745 14.5082C4.62084 14.5121 4.73356 14.4886 4.8368 14.4397ZM5.9244 14.9343V12.5885C6.26251 12.4471 6.62337 12.374 6.98774 12.373C7.67466 12.373 8.06989 12.7256 8.06989 13.377V14.9343H7.42059V13.4259C7.42059 13.088 7.27003 12.9313 6.98302 12.9313C6.84051 12.9292 6.69926 12.9593 6.56898 13.0195V14.9343L5.9244 14.9343ZM10.3389 12.52L10.2166 13.0537C10.0485 12.9779 9.86805 12.9364 9.68494 12.9313C9.30384 12.9313 9.09682 13.2105 9.09682 13.6708C9.09682 14.1752 9.31324 14.4348 9.71788 14.4348C9.89846 14.4296 10.0761 14.3863 10.2401 14.3074L10.3436 14.851C10.1306 14.9497 9.89925 14.9982 9.66612 14.993C8.88509 14.993 8.43341 14.4886 8.43341 13.6904C8.43341 12.897 8.88039 12.373 9.62849 12.373C9.87239 12.3718 10.114 12.4218 10.3389 12.52ZM11.7416 14.993C11.017 14.993 10.5654 14.469 10.5654 13.6806C10.5654 12.897 11.017 12.373 11.7416 12.373C12.4709 12.373 12.9132 12.897 12.9132 13.6806C12.9132 14.469 12.4709 14.993 11.7416 14.993ZM11.7416 14.4348C12.0757 14.4348 12.2498 14.1458 12.2498 13.6806C12.2498 13.2202 12.0757 12.9313 11.7416 12.9313C11.4123 12.9313 11.2288 13.2202 11.2288 13.6806C11.2288 14.1458 11.4123 14.4348 11.7416 14.4348ZM13.2889 14.9343V12.5885C13.627 12.4471 13.9879 12.374 14.3522 12.373C15.0392 12.373 15.4344 12.7256 15.4344 13.377V14.9343H14.7851V13.4259C14.7851 13.088 14.6345 12.9313 14.3475 12.9313C14.205 12.9292 14.0638 12.9593 13.9335 13.0195V14.9343L13.2889 14.9343ZM16.8987 14.993C16.3388 14.993 16.0518 14.6747 16.0518 14.0283V12.9705H15.7319V12.4318H16.0518V11.8882L16.7011 11.8539V12.4318H17.2234V12.9705H16.7011V14.0185C16.7011 14.3025 16.814 14.4348 17.0257 14.4348C17.1096 14.4345 17.1933 14.4247 17.2751 14.4054L17.308 14.949C17.1737 14.98 17.0363 14.9947 16.8987 14.993ZM18.5376 14.993C17.893 14.993 17.5683 14.6649 17.5683 14.2242C17.5683 13.7393 17.9494 13.4553 18.514 13.4504C18.6543 13.4531 18.7943 13.4662 18.9328 13.4896V13.3721C18.9328 13.0733 18.7681 12.9313 18.4529 12.9313C18.2405 12.9285 18.0296 12.9684 17.8318 13.0489L17.7142 12.52C17.9165 12.4318 18.2412 12.373 18.5282 12.373C19.2198 12.373 19.5633 12.755 19.5633 13.4161V14.7776C19.3704 14.8804 19.0081 14.993 18.5376 14.993ZM18.9328 14.4397V13.9157C18.8231 13.8903 18.7111 13.8771 18.5987 13.8765C18.3823 13.8765 18.2129 13.9646 18.2129 14.1948C18.2129 14.4005 18.3541 14.5082 18.6034 14.5082C18.7168 14.5121 18.8295 14.4886 18.9328 14.4397ZM21.7847 12.52L21.6624 13.0537C21.4943 12.9779 21.3138 12.9364 21.1307 12.9313C20.7496 12.9313 20.5426 13.2105 20.5426 13.6708C20.5426 14.1752 20.759 14.4348 21.1637 14.4348C21.3442 14.4296 21.5219 14.3863 21.6859 14.3074L21.7894 14.851C21.5764 14.9497 21.345 14.9982 21.1119 14.993C20.3309 14.993 19.8792 14.4886 19.8792 13.6904C19.8792 12.897 20.3262 12.373 21.0743 12.373C21.3182 12.3718 21.5598 12.4218 21.7847 12.52ZM23.2123 14.993C22.6524 14.993 22.3654 14.6747 22.3654 14.0283V12.9705H22.0454V12.4318H22.3654V11.8882L23.0146 11.8539V12.4318H23.5369V12.9705H23.0146V14.0185C23.0146 14.3025 23.1276 14.4348 23.3393 14.4348C23.4232 14.4345 23.5068 14.4247 23.5887 14.4054L23.6216 14.949C23.4872 14.98 23.3499 14.9947 23.2123 14.993Z" fill="#1E3764"/>
<path d="M5.29647 9.89674C8.69178 9.89674 10.3894 7.61666 12.0871 5.33658H0.820801V9.89674H5.29647Z" fill="url(#paint0_linear_30_173)"/>
<path d="M19.0394 0.776443C15.5633 0.776443 13.8252 3.05652 12.0871 5.33661H23.6216V0.776443H19.0394Z" fill="url(#paint1_linear_30_173)"/>
<defs>
<linearGradient id="paint0_linear_30_173" x1="3.09961" y1="7.82718" x2="11.3558" y2="4.78283" gradientUnits="userSpaceOnUse">
<stop stop-color="#005AB9"/>
<stop offset="1" stop-color="#1E3764"/>
</linearGradient>
<linearGradient id="paint1_linear_30_173" x1="12.7855" y1="5.73212" x2="21.7142" y2="2.63597" gradientUnits="userSpaceOnUse">
<stop stop-color="#FBA900"/>
<stop offset="1" stop-color="#FFD800"/>
</linearGradient>
</defs>
</svg>
