<?xml version="1.0" encoding="UTF-8"?><svg id="Warstwa_2" xmlns="http://www.w3.org/2000/svg" xmlns:xlink="http://www.w3.org/1999/xlink" viewBox="0 0 503.7 312.79"><defs><style>.cls-1{fill:url(#Bancontact_blauw_rgb);}.cls-2{fill:#1e3764;}.cls-3{fill:url(#Bancontact_geel_rgb);}</style><linearGradient id="Bancontact_blauw_rgb" x1="50.94" y1="156.47" x2="235.18" y2="88.04" gradientUnits="userSpaceOnUse"><stop offset="0" stop-color="#005ab9"/><stop offset="1" stop-color="#1e3764"/></linearGradient><linearGradient id="Bancontact_geel_rgb" x1="267.1" y1="109.98" x2="462.72" y2="43.24" gradientUnits="userSpaceOnUse"><stop offset="0" stop-color="#fba900"/><stop offset="1" stop-color="#ffd800"/></linearGradient></defs><g id="logo"><path id="Bancontact" class="cls-2" d="m0,311.54v-72.76h22.45c16.32,0,26.82,6.13,26.82,18.81,0,7.17-3.33,12.16-8,15.07,6.76,3.12,10.71,9.15,10.71,17.36,0,14.66-10.71,21.52-27.34,21.52H0Zm14.45-42.51h10.71c6.55,0,9.35-3.22,9.35-9.15,0-6.34-5.09-8.42-11.95-8.42h-8.11v17.57Zm0,29.83h8.94c8.73,0,13.82-2.18,13.82-9.04s-4.37-9.56-12.58-9.56h-10.19v18.61Zm65.54,13.93c-14.24,0-21.41-6.96-21.41-16.32,0-10.29,8.42-16.32,20.89-16.42,2.91,0,6.65.42,9.25.83v-2.49c0-6.34-3.64-9.35-10.6-9.35-4.57,0-9.46.73-13.72,2.49l-2.6-11.23c4.47-1.87,11.64-3.12,17.98-3.12,15.28,0,22.87,8.11,22.87,22.14v28.9c-4.26,2.18-12.26,4.57-22.66,4.57Zm8.73-11.75v-11.12c-2.39-.52-4.89-.83-7.38-.83-4.78,0-8.52,1.87-8.52,6.76,0,4.37,3.12,6.65,8.63,6.65,3.12,0,5.72-.62,7.28-1.46Zm24.03,10.5v-49.79c6.55-2.81,15.49-4.57,23.49-4.57,15.18,0,23.91,7.48,23.91,21.31v33.05h-14.34v-32.01c0-7.17-3.33-10.5-9.67-10.5-3.33,0-6.44.62-9.15,1.87v40.64h-14.24Zm97.52-51.24l-2.7,11.33c-3.95-1.66-8.21-2.6-11.75-2.6-8.42,0-12.99,5.92-12.99,15.7,0,10.71,4.78,16.21,13.72,16.21,3.43,0,7.59-.94,11.54-2.7l2.29,11.54c-3.53,1.77-8.94,3.01-14.97,3.01-17.25,0-27.23-10.71-27.23-27.65s9.87-27.96,26.4-27.96c5.92,0,11.85,1.35,15.69,3.12Zm30.99,52.49c-16.01,0-25.99-11.12-25.99-27.86s9.98-27.75,25.99-27.75,25.88,11.12,25.88,27.75-9.77,27.86-25.88,27.86Zm0-11.85c7.38,0,11.23-6.13,11.23-16.01s-3.85-15.9-11.23-15.9-11.33,6.13-11.33,15.9,4.05,16.01,11.33,16.01Zm34.18,10.6v-49.79c6.55-2.81,15.49-4.57,23.49-4.57,15.18,0,23.91,7.48,23.91,21.31v33.05h-14.34v-32.01c0-7.17-3.33-10.5-9.67-10.5-3.33,0-6.44.62-9.15,1.87v40.64h-14.24Zm79.75,1.25c-12.37,0-18.71-6.76-18.71-20.48v-22.45h-7.07v-11.43h7.07v-11.54l14.34-.73v12.26h11.54v11.43h-11.54v22.24c0,6.03,2.49,8.83,7.17,8.83,2.18,0,4.16-.31,5.51-.62l.73,11.54c-2.49.62-5.82.94-9.04.94Zm36.2,0c-14.24,0-21.41-6.96-21.41-16.32,0-10.29,8.42-16.32,20.89-16.42,2.91,0,6.65.42,9.25.83v-2.49c0-6.34-3.64-9.35-10.6-9.35-4.57,0-9.46.73-13.72,2.49l-2.6-11.23c4.47-1.87,11.64-3.12,17.98-3.12,15.28,0,22.87,8.11,22.87,22.14v28.9c-4.26,2.18-12.26,4.57-22.66,4.57Zm8.73-11.75v-11.12c-2.39-.52-4.89-.83-7.38-.83-4.78,0-8.52,1.87-8.52,6.76,0,4.37,3.12,6.65,8.63,6.65,3.12,0,5.72-.62,7.28-1.46Zm63-40.74l-2.7,11.33c-3.95-1.66-8.21-2.6-11.75-2.6-8.42,0-12.99,5.92-12.99,15.7,0,10.71,4.78,16.21,13.72,16.21,3.43,0,7.59-.94,11.54-2.7l2.29,11.54c-3.53,1.77-8.94,3.01-14.97,3.01-17.25,0-27.23-10.71-27.23-27.65s9.87-27.96,26.4-27.96c5.92,0,11.85,1.35,15.7,3.12Zm31.54,52.49c-12.37,0-18.71-6.76-18.71-20.48v-22.45h-7.07v-11.43h7.07v-11.54l14.34-.73v12.26h11.54v11.43h-11.54v22.24c0,6.03,2.49,8.83,7.17,8.83,2.18,0,4.16-.31,5.51-.62l.73,11.54c-2.49.62-5.82.94-9.04.94Z"/><path id="blue-symbol" class="cls-1" d="m100.05,202.4c75.9,0,113.85-50.6,151.8-101.2H0v101.2h100.05Z"/><path id="yellow-symbol" class="cls-3" d="m403.65,0c-75.9,0-113.85,50.6-151.8,101.2h251.85V0h-100.05Z"/></g></svg>