<svg width="30" height="24" viewBox="0 0 30 24" fill="none" xmlns="http://www.w3.org/2000/svg">
<path opacity="0.75" d="M27 1.67801e-05H3.00002C2.60646 -0.00105258 2.21659 0.0759249 1.85297 0.226496C1.48935 0.377068 1.15919 0.598244 0.881602 0.877231C0.60401 1.15622 0.384491 1.48748 0.235744 1.85185C0.086997 2.21622 0.0119748 2.60647 0.0150169 3.00002L1.67801e-05 21C-0.00130429 21.3944 0.0753912 21.7851 0.225687 22.1496C0.375984 22.5142 0.596911 22.8454 0.875751 23.1243C1.15459 23.4031 1.48583 23.6241 1.85041 23.7743C2.21498 23.9246 2.60568 24.0013 3.00002 24H27C27.3944 24.0013 27.7851 23.9246 28.1496 23.7743C28.5142 23.6241 28.8454 23.4031 29.1243 23.1243C29.4031 22.8454 29.6241 22.5142 29.7743 22.1496C29.9246 21.7851 30.0013 21.3944 30 21V3.00002C30.0013 2.60568 29.9246 2.21498 29.7743 1.85041C29.6241 1.48583 29.4031 1.15459 29.1243 0.875751C28.8454 0.596911 28.5142 0.375984 28.1496 0.225688C27.7851 0.0753914 27.3944 -0.00130429 27 1.67801e-05ZM27 21H3.00002V12H27V21ZM27 6.00002H3.00002V3.00002H27V6.00002Z" fill="#BCC3CD"/>
</svg>
