<svg xmlns="http://www.w3.org/2000/svg" width="38" height="23" viewBox="0 0 38 23">
  <g id="Group_3627" data-name="Group 3627" transform="translate(-855 -293)">
    <rect id="Rectangle_3920" data-name="Rectangle 3920" width="38" height="23" rx="5" transform="translate(855 293)" fill="#0079be"/>
    <g id="Group_3627-2" data-name="Group 3627" transform="translate(874.721 799.566)">
      <path id="Path_2549" data-name="Path 2549" d="M13.216-486.131c4.885.023,9.343-3.984,9.343-8.858A9.126,9.126,0,0,0,13.216-504h-4.2A8.815,8.815,0,0,0,0-494.989a8.953,8.953,0,0,0,9.012,8.858Z" transform="translate(-12 0)" fill="#fff"/>
      <path id="Path_2550" data-name="Path 2550" d="M32.249-483.173a8.181,8.181,0,0,0-8.178,8.181,8.181,8.181,0,0,0,8.178,8.18,8.181,8.181,0,0,0,8.18-8.18A8.181,8.181,0,0,0,32.249-483.173Zm-5.184,8.181a5.194,5.194,0,0,1,3.328-4.839v9.677A5.191,5.191,0,0,1,27.065-474.992Zm7.039,4.84v-9.68a5.191,5.191,0,0,1,3.33,4.84A5.193,5.193,0,0,1,34.1-470.151Z" transform="translate(-35.217 -20.091)" fill="#0078c4"/>
    </g>
  </g>
</svg>
