<svg xmlns="http://www.w3.org/2000/svg" xmlns:xlink="http://www.w3.org/1999/xlink" width="38" height="23" viewBox="0 0 38 23">
  <defs>
    <clipPath id="clip-path">
      <rect id="Rectangle_3916" data-name="Rectangle 3916" width="38" height="23" rx="5" transform="translate(0)" fill="#fff"/>
    </clipPath>
  </defs>
  <g id="Group_3631" data-name="Group 3631" transform="translate(-855 -293)">
    <g id="Group_3626" data-name="Group 3626">
      <g id="Rectangle_3917" data-name="Rectangle 3917" transform="translate(855 293)" fill="none" stroke="#d4d4df" stroke-width="1">
        <rect width="38" height="23" rx="5" stroke="none"/>
        <rect x="0.5" y="0.5" width="37" height="22" rx="4.5" fill="none"/>
      </g>
    </g>
    <g id="cdnlogo.com_discover" transform="translate(791.5 82.7)">
      <path id="Path_2551" data-name="Path 2551" d="M68.861,220.9H67.5v4.769h1.361a2.482,2.482,0,0,0,1.7-.553,2.384,2.384,0,0,0-1.7-4.216Zm1.089,3.581a1.749,1.749,0,0,1-1.271.38h-.248v-3.152h.248a1.7,1.7,0,0,1,1.271.388,1.6,1.6,0,0,1,.512,1.188A1.632,1.632,0,0,1,69.951,224.481Z" transform="translate(0 -1.468)" fill="#231f20"/>
      <rect id="XMLID_422_" width="0.932" height="4.769" transform="translate(71.848 219.432)" fill="#231f20"/>
      <path id="XMLID_421_" d="M137.714,221.906c-.561-.206-.718-.347-.718-.6,0-.3.289-.528.693-.528a.968.968,0,0,1,.751.388l.487-.635a2.089,2.089,0,0,0-1.4-.528,1.4,1.4,0,0,0-1.485,1.361c0,.66.3.99,1.172,1.3a3.935,3.935,0,0,1,.644.272.572.572,0,0,1,.281.5.673.673,0,0,1-.718.668,1.1,1.1,0,0,1-1.015-.635l-.6.578a1.855,1.855,0,0,0,1.65.908,1.537,1.537,0,0,0,1.642-1.568C139.092,222.632,138.779,222.294,137.714,221.906Z" transform="translate(-62.664 -0.642)" fill="#231f20"/>
      <path id="XMLID_420_" d="M179.2,222a2.463,2.463,0,0,0,2.517,2.484,2.587,2.587,0,0,0,1.163-.281v-1.1a1.486,1.486,0,0,1-1.122.52,1.558,1.558,0,0,1-1.6-1.642,1.581,1.581,0,0,1,1.559-1.634,1.547,1.547,0,0,1,1.163.536v-1.1a2.366,2.366,0,0,0-1.147-.289A2.516,2.516,0,0,0,179.2,222Z" transform="translate(-102.483 -0.183)" fill="#231f20"/>
      <path id="XMLID_419_" d="M287.686,224.1l-1.271-3.2H285.4l2.03,4.893h.5l2.063-4.893h-1.007Z" transform="translate(-199.921 -1.468)" fill="#231f20"/>
      <path id="XMLID_418_" d="M346.1,225.669h2.632v-.809h-1.708v-1.287h1.642v-.809h-1.642v-1.056h1.708V220.9H346.1Z" transform="translate(-255.612 -1.468)" fill="#231f20"/>
      <path id="Path_2552" data-name="Path 2552" d="M388.561,222.311c0-.891-.611-1.411-1.683-1.411H385.5v4.769h.932v-1.914h.124l1.287,1.914h1.147l-1.5-2.005A1.278,1.278,0,0,0,388.561,222.311Zm-1.865.784h-.272v-1.444h.289c.578,0,.891.239.891.71S387.29,223.095,386.7,223.095Z" transform="translate(-291.761 -1.468)" fill="#231f20"/>
      <circle id="XMLID_415_" cx="2.533" cy="2.533" r="2.533" transform="translate(80.702 219.3)" fill="#fff"/>
      <circle id="XMLID_414_" cx="2.533" cy="2.533" r="2.533" transform="translate(80.702 219.3)" fill="#ee7523"/>
      <g id="XMLID_430_" transform="translate(96.891 219.325)">
        <path id="Path_2553" data-name="Path 2553" d="M426.589,221.632c0-.083-.058-.132-.157-.132H426.3v.421h.1v-.165l.116.165h.124l-.14-.173A.115.115,0,0,0,426.589,221.632Zm-.173.058H426.4v-.107h.017c.049,0,.074.017.074.058S426.465,221.69,426.416,221.69Z" transform="translate(-426.085 -221.343)" fill="#231f20"/>
        <path id="Path_2554" data-name="Path 2554" d="M424.063,219.6a.363.363,0,0,0,0,.726.363.363,0,1,0,0-.726Zm0,.668a.3.3,0,0,1,0-.594.3.3,0,0,1,.289.3A.294.294,0,0,1,424.063,220.268Z" transform="translate(-423.7 -219.6)" fill="#231f20"/>
      </g>
    </g>
  </g>
</svg>
