<svg width="22" height="19" viewBox="0 0 22 19" fill="none" xmlns="http://www.w3.org/2000/svg">
<path d="M0.390137 1.93534V17.298C0.390137 18.0333 1.01404 18.635 1.77659 18.635H11.2946C18.4903 18.635 21.6098 14.7509 21.6098 9.5966C21.6098 4.46904 18.4903 0.598297 11.2946 0.598297H1.77659C1.01404 0.598297 0.390137 1.19997 0.390137 1.93534Z" fill="white"/>
<path d="M6.76089 4.36875V15.7203H11.8838C16.5354 15.7203 18.5527 13.1866 18.5527 9.60328C18.5527 6.17376 16.5354 3.51305 11.8838 3.51305H7.64822C7.15603 3.51305 6.76089 3.90079 6.76089 4.36875Z" fill="#CC0066"/>
<path d="M11.2946 17.4116H3.01746C2.28264 17.4116 1.68646 16.8367 1.68646 16.1281V3.11195C1.68646 2.40331 2.28264 1.82838 3.01746 1.82838H11.2946C19.1488 1.82838 20.3204 6.70191 20.3204 9.60329C20.3204 14.6373 17.1108 17.4116 11.2946 17.4116ZM3.01746 2.25624C2.52527 2.25624 2.13013 2.6373 2.13013 3.11195V16.1281C2.13013 16.6027 2.52527 16.9838 3.01746 16.9838H11.2946C16.8265 16.9838 19.8767 14.3632 19.8767 9.60329C19.8767 3.21222 14.4973 2.25624 11.2946 2.25624H3.01746Z" fill="black"/>
<path d="M8.56327 8.07237C8.7435 8.07237 8.90988 8.09912 9.06932 8.1526C9.22876 8.20608 9.36048 8.29299 9.47832 8.39995C9.58924 8.5136 9.67936 8.65399 9.74868 8.81443C9.81107 8.98156 9.84573 9.17544 9.84573 9.40273C9.84573 9.60329 9.818 9.78379 9.76948 9.95092C9.71402 10.1181 9.63777 10.2651 9.53378 10.3855C9.4298 10.5058 9.29808 10.5994 9.13864 10.6729C8.9792 10.7398 8.79203 10.7799 8.57713 10.7799H7.36398V8.06569H8.56327V8.07237ZM8.52167 10.2852C8.61179 10.2852 8.69498 10.2718 8.7851 10.2451C8.86828 10.2183 8.94454 10.1715 9.00693 10.1047C9.06932 10.0378 9.12478 9.95761 9.16637 9.85064C9.20797 9.74368 9.22876 9.62334 9.22876 9.46958C9.22876 9.33588 9.2149 9.20886 9.18717 9.1019C9.15944 8.99493 9.11091 8.89466 9.04852 8.82112C8.98613 8.74758 8.90295 8.68073 8.79896 8.64062C8.69498 8.60051 8.5702 8.58045 8.41769 8.58045H7.97402V10.2919H8.52167V10.2852Z" fill="white"/>
<path d="M12.3483 8.07237V8.57377H10.8648V9.15538H12.2304V9.61666H10.8648V10.2785H12.3829V10.7799H10.2478V8.06569H12.3483V8.07237Z" fill="white"/>
<path d="M14.4696 8.07237L15.5233 10.7866H14.8786L14.6637 10.1849H13.61L13.3881 10.7866H12.7642L13.8249 8.07237H14.4696ZM14.5042 9.73699L14.1507 8.74089H14.1437L13.7763 9.73699H14.5042Z" fill="white"/>
<path d="M16.5284 8.07237V10.2852H17.901V10.7866H15.9115V8.07237H16.5284Z" fill="white"/>
<path d="M4.4455 10.6796C5.16145 10.6796 5.74184 10.1199 5.74184 9.42947C5.74184 8.73904 5.16145 8.17934 4.4455 8.17934C3.72956 8.17934 3.14917 8.73904 3.14917 9.42947C3.14917 10.1199 3.72956 10.6796 4.4455 10.6796Z" fill="black"/>
<path d="M5.42295 15.7203C4.33459 15.7203 3.46112 14.8712 3.46112 13.8283V12.3509C3.46112 11.8295 3.89785 11.4016 4.4455 11.4016C4.98622 11.4016 5.42988 11.8228 5.42988 12.3509V15.7203H5.42295Z" fill="black"/>
</svg>
