<svg xmlns="http://www.w3.org/2000/svg" width="22.952" height="19.901" viewBox="0 0 22.952 19.901">
  <g id="Group_3639" data-name="Group 3639" transform="translate(-862.524 -294.549)">
    <g id="g10" transform="translate(833.649 -350.175)">
      <g id="g12" transform="translate(28.875 644.724)">
        <g id="Group_3590" data-name="Group 3590" transform="translate(0 0)">
          <g id="g24" transform="translate(6.252 2.157)">
            <path id="path26" d="M0-15.974V-1.479H6.31c5.732,0,8.218-3.239,8.218-7.809,0-4.377-2.485-7.779-8.218-7.779H1.093A1.093,1.093,0,0,0,0-15.974" transform="translate(0 17.067)" fill="#c06"/>
          </g>
          <g id="g28">
            <path id="path30" d="M-23.959-7.984a1.094,1.094,0,0,0-1.093,1.093V9.731a1.094,1.094,0,0,0,1.093,1.093h10.2c6.815,0,10.569-3.348,10.569-9.427,0-8.163-6.622-9.382-10.569-9.382Zm10.2,19.355h-10.2A1.641,1.641,0,0,1-25.6,9.731V-6.891a1.641,1.641,0,0,1,1.639-1.639h10.2c9.671,0,11.116,6.22,11.116,9.928,0,6.431-3.948,9.973-11.116,9.973" transform="translate(25.599 8.531)"/>
          </g>
          <g id="g32" transform="translate(6.979 7.979)">
            <path id="path34" d="M-21.054-41.256a.986.986,0,0,0,.32-.053.7.7,0,0,0,.276-.177.883.883,0,0,0,.194-.323,1.422,1.422,0,0,0,.073-.485,2.036,2.036,0,0,0-.051-.473.941.941,0,0,0-.167-.361.746.746,0,0,0-.308-.23,1.231,1.231,0,0,0-.473-.08h-.543v2.183ZM-21-44.079a1.783,1.783,0,0,1,.623.107,1.353,1.353,0,0,1,.5.32,1.479,1.479,0,0,1,.33.534,2.163,2.163,0,0,1,.119.752,2.4,2.4,0,0,1-.1.7,1.542,1.542,0,0,1-.293.553,1.373,1.373,0,0,1-.49.366,1.656,1.656,0,0,1-.691.133h-1.494v-3.463Z" transform="translate(22.495 44.079)" fill="#fff"/>
          </g>
          <g id="g36" transform="translate(10.549 7.979)">
            <path id="path38" d="M-37.85,0V.64h-1.828v.742H-38v.592h-1.678v.849h1.867v.64H-40.44V0Z" transform="translate(40.44)" fill="#fff"/>
          </g>
          <g id="g40" transform="translate(13.656 7.979)">
            <path id="path42" d="M-31.189-31.048l-.437-1.271h-.01l-.451,1.271Zm-.044-2.124,1.295,3.463h-.79l-.262-.771h-1.3l-.272.771h-.766l1.309-3.463Z" transform="translate(33.323 33.172)" fill="#fff"/>
          </g>
          <g id="g44" transform="translate(17.52 7.979)">
            <path id="path46" d="M-11.129,0V2.823h1.688v.64h-2.449V0Z" transform="translate(11.891 0)" fill="#fff"/>
          </g>
          <g id="g48" transform="translate(1.802 8.113)">
            <path id="path50" d="M-46.694-23.347a1.6,1.6,0,0,1-1.6,1.6,1.6,1.6,0,0,1-1.6-1.6,1.6,1.6,0,0,1,1.6-1.6,1.6,1.6,0,0,1,1.6,1.6" transform="translate(49.889 24.944)"/>
          </g>
          <g id="g52" transform="translate(2.19 12.226)">
            <path id="path54" d="M-35.376-80.655h0a2.42,2.42,0,0,1-2.42-2.42v-1.888a1.21,1.21,0,0,1,1.21-1.21,1.21,1.21,0,0,1,1.21,1.21Z" transform="translate(37.796 86.173)"/>
          </g>
        </g>
      </g>
    </g>
  </g>
</svg>
