<svg xmlns="http://www.w3.org/2000/svg" width="25.092" height="6.687" viewBox="0 0 25.092 6.687">
  <path id="Icon_payment-paypal" data-name="Icon payment-paypal" d="M16.393,21.757h-.939a.271.271,0,0,0-.224.119l-1.3,1.909-.549-1.834a.272.272,0,0,0-.26-.193H12.2a.163.163,0,0,0-.154.215l1.034,3.036-.973,1.373a.163.163,0,0,0,.133.257h.938a.273.273,0,0,0,.223-.116l3.124-4.509a.163.163,0,0,0-.134-.255Zm-6.28,1.819a1.042,1.042,0,0,1-1.055.892.724.724,0,0,1-.774-.909,1.046,1.046,0,0,1,1.047-.9.787.787,0,0,1,.623.255.8.8,0,0,1,.159.661Zm1.3-1.819h-.935a.163.163,0,0,0-.161.137l-.041.261-.065-.095a1.331,1.331,0,0,0-1.1-.392,2.149,2.149,0,0,0-2.086,1.88,1.764,1.764,0,0,0,.348,1.436,1.462,1.462,0,0,0,1.177.475,1.789,1.789,0,0,0,1.294-.534l-.042.26a.163.163,0,0,0,.161.188H10.8a.271.271,0,0,0,.268-.229l.505-3.2a.163.163,0,0,0-.161-.188Zm-5.609.022c-.107.7-.642.7-1.159.7H4.353l.206-1.308a.162.162,0,0,1,.161-.137h.135c.352,0,.685,0,.857.2a.652.652,0,0,1,.095.544Zm-.225-1.828H3.63a.271.271,0,0,0-.268.229l-.789,5a.163.163,0,0,0,.161.188h.932a.271.271,0,0,0,.268-.229l.213-1.35a.271.271,0,0,1,.268-.229h.618A2,2,0,0,0,7.253,21.71,1.5,1.5,0,0,0,7,20.45a1.809,1.809,0,0,0-1.422-.5Zm20.856.138-.8,5.1a.163.163,0,0,0,.161.188H26.6a.271.271,0,0,0,.268-.229l.79-5a.163.163,0,0,0-.161-.188h-.9a.163.163,0,0,0-.161.138Zm-2.4,3.487a1.042,1.042,0,0,1-1.055.892.724.724,0,0,1-.774-.909,1.046,1.046,0,0,1,1.047-.9.787.787,0,0,1,.623.255.8.8,0,0,1,.159.661Zm1.3-1.819H24.4a.163.163,0,0,0-.161.137l-.041.261-.065-.095a1.331,1.331,0,0,0-1.1-.392,2.149,2.149,0,0,0-2.086,1.88,1.764,1.764,0,0,0,.348,1.436,1.462,1.462,0,0,0,1.177.475,1.789,1.789,0,0,0,1.294-.534l-.042.26a.163.163,0,0,0,.161.188h.842a.271.271,0,0,0,.268-.229l.505-3.2a.163.163,0,0,0-.161-.188Zm-5.609.022c-.107.7-.642.7-1.159.7h-.294l.206-1.308a.162.162,0,0,1,.161-.137h.135c.352,0,.685,0,.857.2a.653.653,0,0,1,.095.544ZM19.5,19.952H17.551a.271.271,0,0,0-.268.229l-.789,5a.163.163,0,0,0,.161.188h1a.19.19,0,0,0,.187-.16l.224-1.419a.271.271,0,0,1,.268-.229h.618a2,2,0,0,0,2.221-1.855,1.5,1.5,0,0,0-.249-1.259,1.809,1.809,0,0,0-1.422-.5Z" transform="translate(-2.571 -19.952)" opacity="0.5"/>
</svg>
