<svg width="65.556" height="27" xmlns="http://www.w3.org/2000/svg">

 <g>
  <title>Layer 1</title>
  <path stroke="null" id="svg_1" fill="#fff" d="m36.112,9.49321l-2.455,0a0.709,0.709 0 0 0 -0.586,0.311l-3.386,4.986l-1.434,-4.791a0.71,0.71 0 0 0 -0.679,-0.505l-2.413,0a0.425,0.425 0 0 0 -0.4,0.562l2.7,7.933l-2.541,3.585a0.425,0.425 0 0 0 0.347,0.671l2.452,0a0.712,0.712 0 0 0 0.583,-0.3l8.162,-11.78a0.425,0.425 0 0 0 -0.349,-0.667l-0.001,-0.005zm-16.408,4.753a2.723,2.723 0 0 1 -2.756,2.332a1.892,1.892 0 0 1 -2.019,-2.375a2.732,2.732 0 0 1 2.736,-2.349a2.056,2.056 0 0 1 1.628,0.665a2.1,2.1 0 0 1 0.414,1.727l-0.003,0zm3.4,-4.753l-2.438,0a0.425,0.425 0 0 0 -0.42,0.359l-0.107,0.682l-0.17,-0.247a3.478,3.478 0 0 0 -2.885,-1.024a5.615,5.615 0 0 0 -5.45,4.912a4.607,4.607 0 0 0 0.909,3.751a3.82,3.82 0 0 0 3.075,1.241a4.675,4.675 0 0 0 3.381,-1.4l-0.109,0.678a0.425,0.425 0 0 0 0.42,0.491l2.2,0a0.708,0.708 0 0 0 0.7,-0.6l1.32,-8.359a0.425,0.425 0 0 0 -0.42,-0.49l-0.006,0.006zm-14.653,0.058c-0.279,1.83 -1.676,1.83 -3.029,1.83l-0.77,0l0.539,-3.417a0.424,0.424 0 0 1 0.42,-0.359l0.358,0c0.92,0 1.79,0 2.238,0.524a1.7,1.7 0 0 1 0.248,1.422l-0.004,0zm-0.588,-4.776l-5.1,0a0.708,0.708 0 0 0 -0.7,0.6l-2.058,13.074a0.425,0.425 0 0 0 0.42,0.491l2.435,0a0.708,0.708 0 0 0 0.7,-0.6l0.557,-3.528a0.708,0.708 0 0 1 0.7,-0.6l1.612,0c3.359,0 5.3,-1.625 5.8,-4.847a3.926,3.926 0 0 0 -0.65,-3.29a4.727,4.727 0 0 0 -3.716,-1.3zm54.489,0.359l-2.09,13.315a0.425,0.425 0 0 0 0.42,0.491l2.1,0a0.708,0.708 0 0 0 0.7,-0.6l2.064,-13.075a0.425,0.425 0 0 0 -0.42,-0.491l-2.351,0a0.425,0.425 0 0 0 -0.42,0.359l-0.003,0.001zm-6.281,9.111a2.723,2.723 0 0 1 -2.756,2.332a1.892,1.892 0 0 1 -2.022,-2.374a2.732,2.732 0 0 1 2.736,-2.349a2.056,2.056 0 0 1 1.628,0.665a2.1,2.1 0 0 1 0.414,1.727l0,-0.001zm3.4,-4.753l-2.436,0a0.425,0.425 0 0 0 -0.42,0.359l-0.107,0.682l-0.171,-0.247a3.476,3.476 0 0 0 -2.884,-1.024a5.615,5.615 0 0 0 -5.45,4.912a4.607,4.607 0 0 0 0.909,3.751a3.82,3.82 0 0 0 3.075,1.241a4.675,4.675 0 0 0 3.381,-1.4l-0.109,0.678a0.425,0.425 0 0 0 0.42,0.491l2.2,0a0.708,0.708 0 0 0 0.7,-0.6l1.32,-8.359a0.425,0.425 0 0 0 -0.42,-0.491l-0.008,0.007zm-14.653,0.058c-0.279,1.83 -1.676,1.83 -3.029,1.83l-0.76,0l0.539,-3.417a0.424,0.424 0 0 1 0.42,-0.359l0.353,0c0.92,0 1.79,0 2.238,0.524a1.705,1.705 0 0 1 0.247,1.422l-0.008,0zm-0.588,-4.776l-5.1,0a0.708,0.708 0 0 0 -0.7,0.6l-2.055,13.075a0.425,0.425 0 0 0 0.42,0.491l2.616,0a0.5,0.5 0 0 0 0.49,-0.418l0.585,-3.707a0.708,0.708 0 0 1 0.7,-0.6l1.613,0c3.359,0 5.3,-1.625 5.8,-4.847a3.926,3.926 0 0 0 -0.65,-3.29a4.727,4.727 0 0 0 -3.716,-1.3l-0.003,-0.004z" class="a"/>
 </g>
</svg>