<svg width="28" height="22.519" xmlns="http://www.w3.org/2000/svg">

 <g>
  <g data-name="Group 2833" id="Group_2833">
   <path fill="#bcc3cd" d="m9.43796,22.01889l-2.783,0a0.826,0.826 0 0 1 -0.839,-1.058l0.134,-0.6l1.856,0a1.431,1.431 0 0 0 1.329,-1.061l0.954,-4.117a1.434,1.434 0 0 1 1.327,-1.058l0.791,0q5.1,0 7.926,-2.1a6.529,6.529 0 0 0 2.833,-5.5a5.266,5.266 0 0 0 -0.527,-2.5c0,-0.014 -0.014,-0.028 -0.014,-0.041l0.121,0.067a4.146,4.146 0 0 1 1.534,1.627a5.228,5.228 0 0 1 0.536,2.5a6.513,6.513 0 0 1 -2.837,5.5c-1.883,1.385 -4.533,2.084 -7.921,2.084l-0.806,0a1.432,1.432 0 0 0 -1.331,1.063l-0.954,4.129a1.42,1.42 0 0 1 -1.32,1.046l-0.009,0.019zm-2.401,-2.419l-2.784,0a0.827,0.827 0 0 1 -0.839,-1.058l3.921,-16.982a1.43,1.43 0 0 1 1.328,-1.06l5.8,0a18.264,18.264 0 0 1 3.271,0.259a6.875,6.875 0 0 1 2.407,0.888a4.133,4.133 0 0 1 1.522,1.63a5.4,5.4 0 0 1 0.524,2.508a6.474,6.474 0 0 1 -2.84,5.486c-1.883,1.4 -4.533,2.086 -7.923,2.086l-0.793,0a1.429,1.429 0 0 0 -1.325,1.048l-0.951,4.115a1.43,1.43 0 0 1 -1.332,1.051l0.014,0.029zm6.677,-15.571l-0.909,0a1.427,1.427 0 0 0 -1.327,1.056l-0.831,3.605a0.824,0.824 0 0 0 0.834,1.057l0.687,0a5.857,5.857 0 0 0 3.5,-0.915a3.053,3.053 0 0 0 1.251,-2.611a1.839,1.839 0 0 0 -0.807,-1.65a4.349,4.349 0 0 0 -2.408,-0.542l0.017,0l-0.007,0z" data-name="Icon simple-paypal" id="Icon_simple-paypal"/>
  </g>
 </g>
</svg>