<svg xmlns="http://www.w3.org/2000/svg" xmlns:xlink="http://www.w3.org/1999/xlink" width="56.542" height="26.584" viewBox="0 0 56.542 26.584"><defs><style>.a{fill:#fff;}.b{clip-path:url(#a);}</style><clipPath id="a"><path class="a" d="M3252.226-5959.234h56.542v-26.584h-56.542Z" transform="translate(-3252.226 5985.818)"/></clipPath></defs><g transform="translate(-424.854 1329.887)"><g transform="translate(424.854 -1329.887)"><g class="b"><g transform="translate(5.442 5.746)"><path class="a" d="M-150.148-97.324a2.331,2.331,0,0,0-2.32-2.342h-1.15V-95h1.15a2.327,2.327,0,0,0,2.32-2.321m5.232,9.3h-4.222l-3.352-4.652h-1.127v4.642h-3.721v-13.946h5.331c3.073,0,5.582,2.09,5.582,4.661a4.53,4.53,0,0,1-2.425,3.826l3.936,5.469" transform="translate(157.339 101.986)"/></g><g transform="translate(16.354 8.546)"><path class="a" d="M-119.178-56.336c-.983,0-1.819,1.336-1.819,2.989s.836,2.991,1.819,2.991c1.006,0,1.84-1.337,1.84-2.991s-.835-2.989-1.84-2.989m5.728,2.989a5.7,5.7,0,0,1-5.728,5.688,5.684,5.684,0,0,1-5.708-5.688,5.684,5.684,0,0,1,5.708-5.687,5.7,5.7,0,0,1,5.728,5.687" transform="translate(124.886 59.034)"/></g><g transform="translate(28.515 8.763)"><path class="a" d="M-167.191-.3l-4.287,4.286V-.31H-175.2V10.619h3.721V6.186L-167,10.619h4.683l-5.687-5.688L-163.3.222V6.708c0,2.153,1.295,4.141,4.556,4.141a5.171,5.171,0,0,0,3.659-1.673l1.673,1.443h.794V-.3h-3.721V6.771a2.084,2.084,0,0,1-1.9,1.191c-.915,0-1.335-.543-1.335-2.278V-.3Z" transform="translate(175.199 0.31)"/></g></g></g></g></svg>