<svg xmlns="http://www.w3.org/2000/svg" xmlns:xlink="http://www.w3.org/1999/xlink" width="67.614" height="31.789" viewBox="0 0 67.614 31.789"><defs><style>.a{fill:#662d91;}.b{clip-path:url(#a);}</style><clipPath id="a"><path class="a" d="M3252.226-5954.029h67.614v-31.789h-67.614Z" transform="translate(-3252.226 5985.818)"/></clipPath></defs><g transform="translate(-424.855 1329.887)"><g transform="translate(424.854 -1329.887)"><g class="b"><g transform="translate(6.507 6.871)"><path class="a" d="M-148.74-96.412a2.788,2.788,0,0,0-2.774-2.8h-1.375v5.575h1.375a2.783,2.783,0,0,0,2.774-2.775m6.257,11.115h-5.049l-4.009-5.563h-1.348v5.551h-4.45v-16.677h6.375c3.675,0,6.675,2.5,6.675,5.574a5.417,5.417,0,0,1-2.9,4.575l4.707,6.54" transform="translate(157.339 101.986)"/></g><g transform="translate(19.557 10.219)"><path class="a" d="M-118.061-55.808c-1.175,0-2.175,1.6-2.175,3.575s1,3.577,2.175,3.577c1.2,0,2.2-1.6,2.2-3.577s-1-3.575-2.2-3.575m6.849,3.575a6.816,6.816,0,0,1-6.849,6.8,6.8,6.8,0,0,1-6.825-6.8,6.8,6.8,0,0,1,6.825-6.8,6.817,6.817,0,0,1,6.849,6.8" transform="translate(124.886 59.034)"/></g><g transform="translate(34.099 10.479)"><path class="a" d="M-165.623-.293l-5.126,5.125V-.31H-175.2V12.759h4.449v-5.3l5.352,5.3h5.6l-6.8-6.8,5.633-5.631V8.082c0,2.575,1.549,4.951,5.448,4.951a6.183,6.183,0,0,0,4.376-2l2,1.725h.95V-.293h-4.449v8.45a2.492,2.492,0,0,1-2.278,1.424c-1.095,0-1.6-.649-1.6-2.725V-.293Z" transform="translate(175.199 0.31)"/></g></g></g></g></svg>