<svg xmlns="http://www.w3.org/2000/svg" width="40.801" height="16.626" viewBox="0 0 40.801 16.626">
  <g id="Group_3638" data-name="Group 3638" transform="translate(-853.6 -296.376)">
    <g id="Group_3635" data-name="Group 3635">
      <g id="Group_3634" data-name="Group 3634" transform="translate(853.6 296.221)">
        <path id="Path_2622" data-name="Path 2622" d="M3,0,0,16.625H37.792L40.8,0Z" transform="translate(0 0.156)" fill="#ededed"/>
        <g id="Group_3633" data-name="Group 3633" transform="translate(0.118 0.532)">
          <g id="Group_3637" data-name="Group 3637">
            <path id="Path_2623" data-name="Path 2623" d="M3995.146,1120.489c-.015-.006-.01-.022-.018-.032s.011-.016.022-.005,0,.026,0,.038" transform="translate(-3970.153 -1113.786)" fill="#fff"/>
            <path id="Path_2624" data-name="Path 2624" d="M4779.3,1694.187c-.033,0-.022-.024-.02-.042l.02.042" transform="translate(-4749.38 -1683.881)" fill="#393940"/>
            <path id="Path_2625" data-name="Path 2625" d="M3989.981,1112.044c-.031,0-.027-.019-.018-.038l.018.038" transform="translate(-3965.015 -1105.398)" fill="#393940"/>
            <path id="Path_2626" data-name="Path 2626" d="M4819.066,1159.122v-.075a.111.111,0,0,1,0,.075" transform="translate(-4788.916 -1152.143)" fill="#ddddde"/>
            <path id="Path_2627" data-name="Path 2627" d="M4829.95,924.232l-.007.024c-.006,0-.014,0-.013-.01a.017.017,0,0,1,.02-.015" transform="translate(-4799.712 -918.804)" fill="#7c7c82"/>
            <path id="Path_2628" data-name="Path 2628" d="M3985.792,1099.156l-.008-.018c.013,0,.017.007.008.018" transform="translate(-3960.868 -1092.611)" fill="#fff"/>
            <path id="Path_2630" data-name="Path 2630" d="M3231.976,1106.071c.021.01.014.027,0,.038s-.021.01-.025-.008.016-.019.02-.031" transform="translate(-3211.774 -1099.501)" fill="#393940"/>
            <path id="Path_2631" data-name="Path 2631" d="M3229.868,923.272l-.007.006a.02.02,0,0,1-.025,0c-.009,0-.019,0-.026-.006h.059" transform="translate(-3209.641 -917.85)" fill="#c6c6c8"/>
            <path id="Path_2632" data-name="Path 2632" d="M2335.39,1498.988c-.01-.019,0-.026.017-.026l-.017.026" transform="translate(-2320.836 -1489.924)" fill="#393940"/>
            <path id="Path_2633" data-name="Path 2633" d="M3241.986,921.921l-.037,0c.012-.007.025-.012.037,0" transform="translate(-3221.705 -916.498)" fill="#b2b2b5"/>
            <path id="Path_2634" data-name="Path 2634" d="M1535.113,994.643s.006-.01.011-.008.008.013.008.02l-.019-.013" transform="translate(-1525.589 -988.765)" fill="#fff"/>
            <path id="Path_2635" data-name="Path 2635" d="M1546.581,1237.048a.026.026,0,0,1-.006.025c-.021-.014,0-.018.006-.025" transform="translate(-1536.97 -1229.655)" fill="#fff"/>
            <path id="Path_2636" data-name="Path 2636" d="M1593.433,1130.063c0,.01,0,.015-.011.019-.013-.017,0-.016.011-.019" transform="translate(-1583.526 -1123.342)" fill="#fff"/>
            <path id="Path_2637" data-name="Path 2637" d="M1599.414,1121.065c0,.01,0,.015-.011.019-.013-.016,0-.016.011-.019" transform="translate(-1589.47 -1114.401)" fill="#fff"/>
            <path id="Path_2638" data-name="Path 2638" d="M1552.659,1217.04c0,.008,0,.013-.006.019s-.009-.005-.008-.011.008-.007.014-.008" transform="translate(-1543.011 -1209.773)" fill="#fff"/>
            <path id="Path_2639" data-name="Path 2639" d="M1775.145,960.7l-.019.013c0-.014.005-.02.019-.013" transform="translate(-1764.095 -955.04)" fill="#fff"/>
            <path id="Path_2643" data-name="Path 2643" d="M3233.281,924.274h.025c0,.014-.007.023-.02.022s-.011-.012-.006-.022" transform="translate(-3213.086 -918.846)" fill="#393940"/>
          </g>
        </g>
      </g>
    </g>
    <path id="Path_2652" data-name="Path 2652" d="M4836.383,920.743c-.012-.01-.025,0-.038-.005s-.026,0-.038.005h-1.143c-.017-.021-.037-.012-.057-.005v.005h-.139a.023.023,0,0,0-.031,0h-.026a.023.023,0,0,0-.031,0h-.026a.023.023,0,0,0-.031,0h-.082a.023.023,0,0,0-.031,0h-.026a.023.023,0,0,0-.031,0h-.025a.024.024,0,0,0-.031,0h-.025a.023.023,0,0,0-.031,0h-.026a.023.023,0,0,0-.031,0h-.164l-.006-.005a.028.028,0,0,0-.038,0v.005h-.044a.023.023,0,0,0-.031,0h-.063a.024.024,0,0,0-.031,0h-.1a.023.023,0,0,0-.031,0h-.063l-.012-.005a.057.057,0,0,0-.057,0v.005h-.063a.023.023,0,0,0-.031,0h-.025l-.013-.005a.028.028,0,0,0-.038,0v.005h-.025c-.01-.015-.021-.015-.031,0h-.094c-.01-.02-.024-.012-.038-.005v.005h-.057c-.019-.017-.038-.021-.056,0h-1.915c-.023,0-.047-.007-.07,0l-.019,0c-.007.007-.015.013-.007.024.006.029.034.034.053.05.042.035.08.076.119.114a.97.97,0,0,1,.145.179,2.43,2.43,0,0,1,.149.238,1.639,1.639,0,0,1,.134.353,2.65,2.65,0,0,1,.055.283c0,.042.008.059.063.058.188,0,.377,0,.565,0h.537c.014,0,.027.005.04,0s.055-.012.057.03c0,.015,0,.031,0,.046a.641.641,0,0,0-.019.09c0,.052-.016.1-.023.155s-.027.128-.033.193-.022.139-.032.209c-.007.052-.019.1-.024.154s-.014.114-.023.171-.028.134-.036.2-.02.131-.031.2c-.007.045-.02.09-.024.135s-.019.1-.023.158-.023.116-.028.176c0,.043-.01.085-.017.128-.01.061-.02.121-.033.181s-.013.118-.024.177-.019.119-.033.178-.013.108-.023.161c-.008.037-.014.074-.02.111-.011.066-.02.132-.03.2s-.019.136-.034.2-.021.134-.029.2c-.006.047-.019.092-.021.14,0,.026.006.032.033.032h1.419s0,.01.008.01.01,0,.01-.01c.025,0,.034-.018.038-.038.009-.054.017-.109.026-.164s.019-.094.024-.142c.008-.066.018-.132.029-.2s.023-.11.029-.166.017-.118.025-.177.024-.122.032-.184a.913.913,0,0,1,.025-.145c.022-.007.024-.017.006-.031a.066.066,0,0,1,.006-.044q.033-.01.006-.031a.3.3,0,0,1,.013-.075c.033-.009.012-.025,0-.039v-.018c.024-.008.023-.018,0-.032,0-.033.009-.065.014-.1.01-.057.022-.115.033-.172.025-.008.023-.019,0-.032a.341.341,0,0,1,0-.05c.012-.073.022-.146.038-.217s.016-.128.029-.191.029-.14.038-.211c.012-.108.032-.215.052-.321.015,0,.015-.011,0-.019s0-.016,0-.025c.021-.005.008-.017,0-.026a.428.428,0,0,1,0-.05c.014-.081.029-.161.043-.242s.016-.145.033-.216c.013,0,.014-.009.006-.019a.275.275,0,0,1,0-.04,1.079,1.079,0,0,0,.022-.142c0-.051.011-.062.062-.063h1.315a.033.033,0,0,0,.039-.031c0-.019.006-.038.01-.057.01-.052.015-.105.024-.158s.015-.076.021-.115.01-.106.021-.159q.024-.126.043-.254s.009,0,.01-.008,0-.01-.01-.011c.007-.042.014-.084.021-.126.012-.074.028-.146.035-.221a.424.424,0,0,1,.025-.117v-.013c-.012-.01-.008-.028-.019-.039" transform="translate(-3947.416 -618.569)" fill="#393940"/>
    <path id="Path_2653" data-name="Path 2653" d="M3162.36,909.465h0a.1.1,0,0,0,0-.069h0c0-.04,0-.081-.008-.121s-.011-.091-.017-.137c.01,0,.021,0,.022-.014s-.01-.021-.023-.023h0a.2.2,0,0,1-.008-.042,1.37,1.37,0,0,0-.022-.161,3.17,3.17,0,0,0-.122-.393c0-.011,0-.026-.017-.032a.037.037,0,0,0-.009-.025c-.017-.007-.018-.023-.018-.038l-.024-.063a.017.017,0,0,0-.009-.018c-.016-.026-.032-.051-.048-.078a1.618,1.618,0,0,0-.122-.183,1.945,1.945,0,0,0-.13-.154c-.041-.044-.083-.086-.126-.128s-.085-.075-.126-.115a.643.643,0,0,0-.071-.058c-.054-.04-.114-.071-.171-.106a1.9,1.9,0,0,0-.41-.2c-.106-.034-.211-.068-.319-.1a2.047,2.047,0,0,0-.341-.061c-.005-.021-.017-.007-.026,0-.042,0-.083-.007-.125-.008l-.006-.018h-.257a.019.019,0,0,1,0,.005l-.086,0a.077.077,0,0,0-.045,0c-.09.006-.179.014-.268.025a1.581,1.581,0,0,0-.216.032c-.074.02-.152.03-.226.055-.088.029-.177.06-.264.1a3.222,3.222,0,0,0-.35.155,1.917,1.917,0,0,0-.2.122c-.088.063-.176.126-.258.2s-.139.117-.2.181a2.241,2.241,0,0,0-.183.2c-.045.059-.094.114-.135.176,0,.016.013.038-.02.031l-.084.126a1.964,1.964,0,0,0-.151.277.234.234,0,0,0-.035.086.1.1,0,0,0-.019.051.745.745,0,0,0-.05.132l-.036.113-.033.144c-.01.009,0,.023-.01.032a.359.359,0,0,0-.013.094v.025s0,0,0,0a2.752,2.752,0,0,0-.027.31.038.038,0,0,0,0,.009.833.833,0,0,0,0,.123h0v.037c0,.015,0,.031.005.045.007.079.013.158.021.237,0,.045.009.09.016.134s.031.116.045.174a1.969,1.969,0,0,0,.205.511,1.672,1.672,0,0,0,.149.231c.032.04.064.079.1.117l.078.086a.768.768,0,0,0,.1.1,2.54,2.54,0,0,0,.214.165c.051.032.1.07.15.1s.09.048.134.074a2.048,2.048,0,0,0,.322.147,2.526,2.526,0,0,0,.3.084,1.247,1.247,0,0,0,.165.032l.129.012c.081.006.161.017.242.024.036,0,.073,0,.11,0h.113c.014,0,.03,0,.044,0a1.358,1.358,0,0,0,.164-.012.025.025,0,0,0,.031,0c.017,0,.033,0,.049-.007a3.167,3.167,0,0,0,.334-.056,2.492,2.492,0,0,0,.4-.127,3.125,3.125,0,0,0,.348-.166c.064-.036.129-.07.191-.11s.123-.088.184-.133a2.655,2.655,0,0,0,.248-.211,3.4,3.4,0,0,0,.236-.246,2.234,2.234,0,0,0,.221-.3,2.412,2.412,0,0,0,.209-.41c.031-.081.064-.162.087-.245a2.089,2.089,0,0,0,.081-.332c.006-.06.021-.12.026-.18a2.175,2.175,0,0,0,.014-.232Zm-1.507.206a1.478,1.478,0,0,1-.087.375,1.5,1.5,0,0,1-.128.26,1.585,1.585,0,0,1-.178.229,1.356,1.356,0,0,1-.306.245,1.222,1.222,0,0,1-.324.131,1.045,1.045,0,0,1-.181.041c-.051.005-.1,0-.153,0a1.091,1.091,0,0,1-.5-.11c-.041-.02-.086-.032-.125-.055a.638.638,0,0,1-.077-.056.871.871,0,0,1-.155-.155,1.117,1.117,0,0,1-.1-.163,1.3,1.3,0,0,1-.109-.311.426.426,0,0,1-.009-.067,2.674,2.674,0,0,1-.014-.28.142.142,0,0,1,.005-.052v-.057c.012-.017,0-.038.007-.056s0-.025.006-.038a.132.132,0,0,0,.013-.056l.01-.038a.337.337,0,0,0,.02-.069h0l.049-.132a.129.129,0,0,0,.02-.056.393.393,0,0,0,.039-.069c.012-.023.033-.042.036-.069.019-.009.021-.029.032-.044a.065.065,0,0,0,.024-.031c.006,0,.006-.008.007-.013a1.44,1.44,0,0,1,.1-.118l.012-.019a.53.53,0,0,0,.075-.075l.025-.025h0l.138-.107.013-.012.081-.051.025-.013a.035.035,0,0,0,.025-.012l.044-.019.1-.045a.153.153,0,0,0,.051-.017l.069-.021c.008,0,.015,0,.02,0a.235.235,0,0,0,.062-.013c.013,0,.027,0,.038-.006l.05,0,.044-.006c.038,0,.075-.009.113-.006.061,0,.123,0,.184.008a.7.7,0,0,1,.255.076c.045.025.093.045.14.067a.706.706,0,0,1,.149.1c.018.015.038.028.057.042a.251.251,0,0,0,.044.044.318.318,0,0,0,.063.083.744.744,0,0,1,.094.164.281.281,0,0,0,.025.055c0,.006,0,.015.007.019l.014.037a.057.057,0,0,0,.012.032c0,.006,0,.015.005.019s0,.015.007.019a.392.392,0,0,0,.021.094c.01.047.009.1.017.143s0,.072.007.107a.134.134,0,0,0,0,.057.332.332,0,0,0-.01.1" transform="translate(-2283.473 -605.049)" fill="#393940"/>
    <path id="Path_2654" data-name="Path 2654" d="M4099.382,923.671a1.181,1.181,0,0,0-.013-.161,1.568,1.568,0,0,0-.044-.238,1.392,1.392,0,0,0-.183-.388,1.32,1.32,0,0,0-.131-.164,2.034,2.034,0,0,0-.329-.247,2.638,2.638,0,0,0-.347-.144,2.4,2.4,0,0,0-.3-.085c-.05-.009-.1-.009-.153-.018a2.016,2.016,0,0,0-.225-.031h0a.032.032,0,0,0-.038,0h0c-.013,0-.025-.01-.038,0h-.992c-.018-.006-.032.009-.05,0s-.025,0-.038,0h-.866s-.01-.007-.015,0,0,.011,0,.015a.624.624,0,0,0-.018.1c-.011.074-.021.148-.035.221a1.179,1.179,0,0,0-.026.147,1.386,1.386,0,0,1-.03.2c-.024.11-.032.221-.053.331-.015.073-.025.146-.036.219s-.021.142-.034.213-.018.124-.027.186c-.019.114-.043.226-.055.341-.011,0-.021,0-.023.014s.006.016.017.017a.619.619,0,0,1-.019.094c-.01,0-.021,0-.023.014s.006.016.017.017c-.006.053-.014.106-.02.159-.009.081-.025.162-.042.243s-.015.133-.027.2a2.245,2.245,0,0,0-.042.248c-.009.007-.018.014,0,.025a.1.1,0,0,1-.008.05c-.009.007-.018.014,0,.025s0,.022,0,.033c-.011.051-.02.1-.03.155-.009.007-.018.014,0,.025a1.5,1.5,0,0,1-.039.251c-.01.007-.018.014,0,.025h0a.111.111,0,0,1,0,.012h0c-.009.006-.017.013-.006.025h0a.85.85,0,0,1-.019.157c-.014,0-.015.01-.005.019a.318.318,0,0,1,0,.037,1.762,1.762,0,0,0-.037.214h0c-.02.005-.007.016,0,.026-.008.05-.015.1-.023.151s-.026.126-.032.189-.023.147-.035.221-.025.161-.037.242h0a.032.032,0,0,0,0,.037c0,.031.01.038.039.03a.177.177,0,0,1,.053,0h1.367a.038.038,0,0,0,.044-.035c.006-.032.009-.065.015-.1.009-.051.02-.1.028-.154s.014-.129.026-.192.026-.137.036-.205c.014-.1.031-.206.052-.309.022-.01,0-.021,0-.031h0a.2.2,0,0,0,0-.024,1.764,1.764,0,0,1,.035-.221c.017-.083.022-.168.034-.252a.048.048,0,0,1,.062-.037.1.1,0,0,1,.049.057.352.352,0,0,0,.032.069c.052.086.088.18.138.267s.1.2.156.3q.107.21.216.419h0c-.014.021,0,.03.018.031a.076.076,0,0,0,.005.014c.036.069.071.138.107.207a.622.622,0,0,0,.058.105.04.04,0,0,0,.013.026c.015.044.036.067.062.061a.923.923,0,0,1,.1-.006h.034c.5,0,1.005-.008,1.508.007a.031.031,0,0,0,.03-.012c.009-.014,0-.022-.008-.032s-.017-.027-.02-.042l-.083-.121c0-.006-.007-.013-.011-.019a.817.817,0,0,0-.077-.113.021.021,0,0,0-.011-.026l-.013-.012c0-.016-.011-.026-.019-.038l-.058-.087h0c0-.01-.007-.021-.017-.026,0-.022-.029-.033-.033-.056l-.023-.031c-.09-.151-.2-.294-.285-.446l-.017-.026h0a.8.8,0,0,1-.046-.073c-.025-.043-.054-.085-.081-.127l-.017-.03c-.05-.068-.094-.141-.139-.212a.2.2,0,0,1-.032-.047c0-.009-.006-.02-.017-.026l-.014-.018-.018-.026h0a.154.154,0,0,0-.019-.028.051.051,0,0,1,.021-.085l.042-.018c.012.01.017.006.019-.008a.3.3,0,0,1,.039-.015c.029-.007.051-.029.081-.034.011.009.017.006.019-.008.069-.04.138-.082.208-.12a1.885,1.885,0,0,0,.179-.118,1.136,1.136,0,0,0,.232-.214c.028-.036.065-.063.091-.1a2.8,2.8,0,0,0,.154-.243,1.446,1.446,0,0,0,.118-.275,1.619,1.619,0,0,0,.074-.46.279.279,0,0,0,0-.076m-1.565.421h0l-.011.019a.471.471,0,0,1-.283.289c-.026.011-.051.024-.076.037a.152.152,0,0,0-.05.02.126.126,0,0,0-.047.013.948.948,0,0,1-.225.039c-.1.007-.2.018-.293.019h0l-.068,0a.871.871,0,0,1,.021-.181c.011-.11.039-.217.054-.326s.033-.209.053-.313a1.465,1.465,0,0,0,.021-.153c0-.045.019-.065.062-.061.095.01.19,0,.284,0a1.259,1.259,0,0,1,.264.048l.018,0c.006.008.017.008.025.011l.025.013.038.019c.01,0,.012.017.024.014a.021.021,0,0,0,.02.013.474.474,0,0,1,.1.094l.044.1a.667.667,0,0,1,.02.112h0c0,.013,0,.026,0,.038a1.092,1.092,0,0,1-.024.131" transform="translate(-3215.515 -620.015)" fill="#393940"/>
    <path id="Path_2655" data-name="Path 2655" d="M1539.4,910.18c.013-.007.026-.013.024-.032s-.011-.018-.024-.018c0-.015-.011-.029-.005-.044a.074.074,0,0,1,.013-.013.025.025,0,0,0,.009-.03c0-.013-.014-.013-.025-.013s0-.03-.007-.044.007-.031-.005-.044a.426.426,0,0,0,0-.047c-.008-.054-.016-.107-.025-.16l-.017-.063-.02-.088a.084.084,0,0,0-.013-.037,1.605,1.605,0,0,0-.056-.157c0-.007,0-.015,0-.019s0-.013-.008-.019,0-.015-.005-.019-.008-.021-.013-.031a1.343,1.343,0,0,0-.076-.151.05.05,0,0,0-.011-.032l-.083-.131-.011-.019-.02-.031a.053.053,0,0,0-.023-.032c-.014-.029-.047-.044-.059-.075a.032.032,0,0,0-.017-.02.147.147,0,0,0-.028-.037c-.033-.034-.064-.07-.1-.1s-.052-.052-.08-.076c-.052-.045-.1-.094-.153-.141,0-.015-.005-.021-.02-.019a.311.311,0,0,1-.073-.044l-.192-.107a1.686,1.686,0,0,0-.263-.127c-.124-.044-.248-.084-.376-.117a1.835,1.835,0,0,0-.345-.059s0-.01-.008-.01-.01,0-.011.01l-.181-.018c-.061-.006-.122-.006-.184-.007l-.1,0a.078.078,0,0,0-.045.005h0l-.093.006c-.09,0-.178.022-.268.028a1.537,1.537,0,0,0-.281.06,3.372,3.372,0,0,0-.516.183.553.553,0,0,1-.123.051c-.008,0-.016,0-.019.013l-.206.121a2.087,2.087,0,0,0-.2.145,2.724,2.724,0,0,0-.287.25,3.034,3.034,0,0,0-.247.272c-.052.067-.105.133-.151.2,0,.006-.011.011-.011.019l-.026.037c-.005.006-.012.01-.012.019l-.026.048a2.142,2.142,0,0,0-.114.218c-.037.086-.074.173-.107.261,0,.005-.009.011-.006.019a.815.815,0,0,1-.031.107c0,.008-.01.015-.006.025-.016.069-.035.137-.045.207-.007.008-.027.012,0,.025-.005.061-.025.12-.027.182-.024.01-.007.025-.005.038q0,.062,0,.125a.056.056,0,0,0,0,.039c0,.048,0,.1,0,.143a.69.69,0,0,1,.005.1.729.729,0,0,0,.013.125c0,.013-.006.027.005.038a.119.119,0,0,0,0,.022c.019.091.029.183.056.272a2.656,2.656,0,0,0,.143.4q.051.1.11.2a1.1,1.1,0,0,0,.138.195c.054.057.1.12.157.178a1.3,1.3,0,0,0,.151.146,2.818,2.818,0,0,0,.32.222,2.438,2.438,0,0,0,.37.182,2.31,2.31,0,0,0,.532.14c.107.013.214.025.322.032a.058.058,0,0,0,.039,0h0l.074,0v.005h.056v-.005l.087,0a.089.089,0,0,0,.051,0c.084,0,.167-.009.25-.019a2.961,2.961,0,0,0,.309-.05,2.768,2.768,0,0,0,.422-.132,3.65,3.65,0,0,0,.369-.177c.061-.034.121-.07.181-.105.017.009.016,0,.018-.014l.037-.027c.082-.065.17-.123.248-.193.047-.042.1-.08.143-.124.065-.064.129-.131.188-.2a1.737,1.737,0,0,0,.142-.179l.1-.149a.026.026,0,0,1,.017-.026c0-.024.023-.037.034-.057.025-.051.054-.1.081-.149.016-.016.014-.041.03-.057h0l.072-.175c.009-.007.005-.017,0-.025a1.123,1.123,0,0,0,.057-.157.3.3,0,0,0,.025-.081l.013-.05a.122.122,0,0,0,.012-.044s0-.008,0-.013a.083.083,0,0,0,.012-.05.816.816,0,0,0,.026-.119c.01-.007,0-.016,0-.025,0-.028.013-.054.006-.082,0-.006.01-.011.006-.019s0-.024,0-.037,0-.021,0-.032c0-.053.013-.1.006-.157a.034.034,0,0,0,.006-.031h0v-.019h0v-.057c0-.015.007-.03,0-.044v-.006Zm-1.5.308c-.009.01,0,.021-.005.032s0,.033,0,.049l-.024.127-.007.036-.018.057a1.329,1.329,0,0,1-.145.313s0,0,0,.006l-.019.032a1.025,1.025,0,0,1-.153.2.548.548,0,0,1-.1.1.02.02,0,0,0-.012.02c-.013,0-.019.01-.026.019l-.226.15a.042.042,0,0,0-.032.019,2.837,2.837,0,0,1-.364.12c-.009,0-.018,0-.025.005a1.912,1.912,0,0,1-.257.006h0a.033.033,0,0,0-.038,0,.1.1,0,0,0-.024,0,.608.608,0,0,1-.219-.038,1.32,1.32,0,0,1-.184-.07.044.044,0,0,0-.031-.013.867.867,0,0,1-.234-.163h0a.038.038,0,0,0-.024-.024,1.781,1.781,0,0,1-.13-.179c-.012-.02-.023-.04-.034-.061s0-.019-.011-.025a1.024,1.024,0,0,1-.07-.169c0-.009.005-.018,0-.025a.034.034,0,0,0-.008-.025c0-.009.005-.018,0-.025l0-.012c0-.011.005-.023-.005-.032l-.014-.169c0-.009.005-.019,0-.026s0-.029,0-.044v-.05h0c0-.033,0-.066,0-.1.01-.01,0-.021,0-.032a1.609,1.609,0,0,1,.124-.449,1.447,1.447,0,0,1,.355-.477,1.213,1.213,0,0,1,.394-.245,1.249,1.249,0,0,1,.236-.072.978.978,0,0,1,.132-.013,1.588,1.588,0,0,1,.174-.007,1.007,1.007,0,0,1,.268.043l.1.038c.011,0,.02.01.031.008a.521.521,0,0,0,.082.043l.044.025.044.027a.839.839,0,0,1,.094.069.019.019,0,0,0,.019.013l.038.031.063.07h0a.619.619,0,0,0,.053.069c.022.032.041.067.061.1l.055.114a.093.093,0,0,0,.014.043.1.1,0,0,0,.011.038.833.833,0,0,0,.026.109.882.882,0,0,1,.024.185.1.1,0,0,0,.007.045v.163c0,.008,0,.017,0,.025" transform="translate(-670.707 -605.877)" fill="#393940"/>
    <path id="Path_2656" data-name="Path 2656" d="M2451.953,921.271a.043.043,0,0,0-.037,0l-.017,0a.031.031,0,0,0-.011.006c-.01.017-.017.01-.023,0s-.017,0-.025,0h-1.512s0-.01-.008-.011-.01,0-.011.011h-1.457l-.075.006c-.015,0-.031-.007-.044,0a.359.359,0,0,0-.062.008l-.051.012a.084.084,0,0,0-.019,0,1.609,1.609,0,0,0-.255.073,1.283,1.283,0,0,0-.287.159c-.05.034-.1.072-.143.111a.633.633,0,0,0-.092.087,2.086,2.086,0,0,0-.151.218.987.987,0,0,0-.154.442.234.234,0,0,1-.012.078c-.012,0-.023,0-.024.017s0,.025.017.027a.212.212,0,0,1-.01.056v.019l-.025.126a.058.058,0,0,1,0,.006l0,.05s-.006,0,0,.007a.341.341,0,0,1-.013.075l-.007.05a1.042,1.042,0,0,0-.033.207c-.011.009,0,.021,0,.031s0,.013,0,.019h0a.086.086,0,0,0-.011.038c0,.006,0,.012,0,.019v.019c-.012.017,0,.039-.011.057a.272.272,0,0,0-.014.081c-.009,0,0,.012,0,.019l-.007.019v.05a.033.033,0,0,0-.006.025c0,.022-.008.044-.011.066-.008.058-.025.114-.029.172-.01.018,0,.039-.01.057l0,.043c-.006.032-.013.063-.018.1-.014.088-.031.176-.042.264-.009.069-.019.139-.034.207s-.016.132-.03.2-.02.121-.032.182-.012.15-.032.222c-.031.015-.031.021-.006.044-.008.046-.017.092-.024.139s-.012.091-.019.137-.015.093-.025.139c-.015.068-.018.138-.031.207-.008.046-.018.092-.025.139-.011.068-.022.136-.031.2-.006.051-.02.1-.021.153,0,.03.008.039.039.039h1.419c.037,0,.045-.009.05-.047s.016-.093.023-.139.02-.1.026-.155c.008-.067.018-.134.03-.2s.025-.129.033-.194.021-.151.035-.225a1.272,1.272,0,0,0,.027-.2.208.208,0,0,0,.014-.069c.013-.013,0-.029.006-.044s0-.021.005-.031a.15.15,0,0,0,.013-.056c0-.017.012-.033.006-.05s0-.012,0-.019,0-.029.005-.044a.121.121,0,0,1,.014-.05.046.046,0,0,1,.044-.02h.151l.038,0a.178.178,0,0,0,.094,0h.019a.054.054,0,0,0,.05,0h.025c.012,0,.024.012.035.01a1.828,1.828,0,0,1,.2,0c.007,0,.015,0,.02-.005h.007a.033.033,0,0,0,.038,0h.019a.033.033,0,0,0,.038,0h.3a.033.033,0,0,0,.038,0h.019a.054.054,0,0,0,.05,0h.007a.053.053,0,0,0,.05,0h.007a.054.054,0,0,0,.05,0h.006a.033.033,0,0,0,.038,0h.019c.021.01.042,0,.063.005s.035,0,.053,0a.436.436,0,0,0,.11-.005h.163c.023,0,.041-.008.045-.036s.007-.061.013-.091c.016-.083.032-.167.042-.251.012-.1.032-.2.05-.3v-.019c0-.03,0-.06.009-.089.01-.064.014-.128.023-.192s.012-.114.022-.171.007-.05-.035-.064c-.016-.01-.033,0-.05-.005h-.031a.6.6,0,0,0-.125.005h-.019c-.009-.009-.021,0-.031-.005h-.282a.464.464,0,0,0-.12,0h-.018a.156.156,0,0,0-.069,0h-.729a.332.332,0,0,0-.094.005l-.038,0h-.063c-.062,0-.057.01-.056-.057.006,0,.006-.007.005-.012v-.025c.012-.015,0-.034.012-.05a.615.615,0,0,0,.013-.094.1.1,0,0,0,.007-.044c.013-.013,0-.029.007-.044s.006-.007,0-.013v-.019a.323.323,0,0,0,.019-.082c0-.006,0-.013,0-.019s0-.012,0-.019,0-.021,0-.032,0-.017.006-.025,0-.013,0-.019l.015-.063c.024-.007,0-.022.005-.032,0-.034.013-.066.012-.1a.035.035,0,0,0,.006-.031.21.21,0,0,0,.008-.056c.006,0,.005-.007.006-.012a.049.049,0,0,1,.042-.013h1.807a.076.076,0,0,0,.073-.051c.009,0,0-.012.006-.019.012-.023.026-.046.038-.069.04-.083.089-.161.136-.239.028-.045.064-.085.094-.129a3.191,3.191,0,0,1,.289-.348,2.348,2.348,0,0,1,.179-.182c.057-.05.116-.1.172-.147.036-.033.078-.056.115-.088.011-.01.02-.019.006-.033" transform="translate(-1577.955 -619.095)" fill="#393940"/>
    <path id="Path_2657" data-name="Path 2657" d="M839.689,907.759c-.045-.023-.088-.048-.133-.07l-.024-.015c-.173-.087-.344-.177-.524-.25a4,4,0,0,0-.92-.267,1.93,1.93,0,0,0-.3-.03v0h-.383s0,0,0,0a2.288,2.288,0,0,0-1.116.319,1.674,1.674,0,0,0-.371.306,1.4,1.4,0,0,0-.255.421.363.363,0,0,0-.03.1l0,.008a.244.244,0,0,0-.02.083l-.005,0a.05.05,0,0,0-.012.044l0,0-.006.044h0l0,0a.037.037,0,0,0-.007.035l0,0a.058.058,0,0,0,0,.04l0,0a.036.036,0,0,0-.007.027.32.32,0,0,0,.006.035v.085a.178.178,0,0,0-.006.029.038.038,0,0,0,.008.027l0,0a1.042,1.042,0,0,0,.022.178.505.505,0,0,0,.03.125l0,.008a.248.248,0,0,0,.035.1l.006,0,.02.043,0,.006a.145.145,0,0,0,.027.065c.021.034.03.076.065.1h0a.534.534,0,0,0,.059.073s0,0,0,0c.019.03.033.064.068.08h0l.075.081v0a.019.019,0,0,0,.02.015h0a.341.341,0,0,0,.037.044.019.019,0,0,0,0,0,.019.019,0,0,0,.016.013h0a.346.346,0,0,0,.068.052v0a.054.054,0,0,0,.032.028h.009l.01.006a.022.022,0,0,1,0,.009.034.034,0,0,0,.024.019h.006l.044.029v0a.029.029,0,0,0,.029.02h0l.04.027v0a.031.031,0,0,0,.021.015h0c0,.01.01.01.019.01.028.011.049.035.078.044,0,0,0,0,0,0a.027.027,0,0,0,.021.015h.006a.636.636,0,0,0,.076.044l0,0a.135.135,0,0,0,.066.038l.005,0a.178.178,0,0,0,.043.024v0a.022.022,0,0,0,.022.013l0,0,.057.03a.031.031,0,0,1,0,0,.355.355,0,0,0,.121.062l0,0,.142.079v0a.053.053,0,0,0,.042.025h0l.03.016v0a.027.027,0,0,0,.013.013c.051.026.1.059.147.088h0c0,.01.01.01.019.01a.11.11,0,0,1,.032.022v0c0,.013.017.019.026.028l0,0c0,.009.007.011.015.012l.007.005c.007.006.012.016.023.018.006.018.024.026.034.041l0,.007a.139.139,0,0,0,.028.056h0c0,.005,0,.01,0,.015,0,.021.012.041,0,.062l0,0a.014.014,0,0,0,0,.013h0a.2.2,0,0,1-.026.077.269.269,0,0,1-.07.093h-.005a.138.138,0,0,0-.053.034v0c-.017,0-.028.016-.044.019l0,0a.042.042,0,0,0-.033.012l0,0L837.1,911h-.007l0,0a.086.086,0,0,0-.051,0l0,0a.027.027,0,0,0-.022,0l0,0c-.014,0-.028-.006-.041,0l-.007,0a.135.135,0,0,0-.051,0l-.007,0c-.013-.009-.027,0-.041,0l0,0a.02.02,0,0,0-.017,0l0,0a.1.1,0,0,0-.057,0l0,0a.017.017,0,0,0-.013,0l0,0a.04.04,0,0,0-.02-.006,1.506,1.506,0,0,1-.237-.042l0-.005c-.04-.013-.079-.028-.119-.038h-.014l-.005,0-.008-.006a.712.712,0,0,0-.134-.048l0,0a.078.078,0,0,0-.045-.016v0a.017.017,0,0,0-.015-.007h0l-.045-.021,0-.006a.168.168,0,0,0-.057-.027h-.006l-.13-.069a.021.021,0,0,1,0,0c-.022-.014-.046-.025-.068-.04h0c0-.011-.007-.016-.02-.014l-.033-.016,0,0a.03.03,0,0,0-.02-.008h0a.116.116,0,0,0-.04-.026v0l-.008,0h0c-.021-.016-.042-.033-.064-.048q-.078-.054-.152-.114v-.005a.034.034,0,0,0-.023-.022h0a.239.239,0,0,0-.045-.036v0a.015.015,0,0,0-.015-.007h0l-.008-.005c-.018-.006-.031-.028-.052-.024s-.006.035-.018.05a.016.016,0,0,0,0,.009l0,0a.012.012,0,0,0,0,.009v0a.176.176,0,0,0,0,.03c0,.048-.016.093-.021.14h0a.012.012,0,0,0,0,.009h0a.935.935,0,0,0-.023.129h0a.011.011,0,0,0,0,.009h0l0,.029c-.014,0-.015.01,0,.019s0,.026,0,.04c-.008.04-.013.081-.019.122l-.008.007a.037.037,0,0,0,0,.038h0a.014.014,0,0,0,0,.006c-.006.04-.011.08-.018.12s-.017.1-.026.157l0,0a.109.109,0,0,0-.014.054c0,.01.01.021,0,.03a.022.022,0,0,0,0,.025l0,0,0,.029c-.02.005-.008.016,0,.026a.345.345,0,0,1,0,.039c-.007.031-.01.063-.014.1h0a.012.012,0,0,0,0,.008l0,0c-.009.013,0,.028-.007.042h-.005v.05h0a.018.018,0,0,0,.012.016h0a.07.07,0,0,0,.04.034v0a.012.012,0,0,0,.015.006h0l.051.037v0a.048.048,0,0,0,.041.026l0,0,.043.027,0,.007a.079.079,0,0,0,.052.028l0,0a.566.566,0,0,0,.122.07v0a.437.437,0,0,0,.125.067c.021.009.04.027.066.022h0a.338.338,0,0,0,.07.033l0,0a.015.015,0,0,0,.016.006l0,0c.013,0,.023.013.036.014l0,0a.044.044,0,0,0,.039.013l.007,0a.562.562,0,0,0,.089.03.865.865,0,0,0,.167.046v0a.012.012,0,0,0,.009,0h0l.145.034,0,0a.02.02,0,0,0,.018,0l0,0a1.314,1.314,0,0,0,.175.023l.006,0a.021.021,0,0,0,.017,0h0a.066.066,0,0,0,.04,0l0,0s.009.008.016,0h0l.092.008h0a.012.012,0,0,0,.011.006l0,0h.051s.011,0,.015.006h.383s0,0,0,0h0l.005,0h.054l0,0a.023.023,0,0,0,.021-.006l0,0c.03,0,.059-.009.088-.007l0,0a.144.144,0,0,0,.051,0l0-.006c.019-.008.04,0,.058-.01l0,0,.009,0h0c.012,0,.023-.005.035-.007a.889.889,0,0,0,.128-.024l0,0a.072.072,0,0,0,.055-.012l0-.006a.529.529,0,0,0,.086-.023l.007,0a.121.121,0,0,0,.081-.026l0,0a.534.534,0,0,0,.076-.026l.008,0a.138.138,0,0,0,.077-.031.042.042,0,0,1,.009-.01.228.228,0,0,0,.056-.026l0,0a.2.2,0,0,0,.1-.045v-.005l.075-.045h0a.073.073,0,0,0,.052-.034v0a.21.21,0,0,0,.059-.039h0a.048.048,0,0,0,.04-.027s0,0,0,0a.529.529,0,0,0,.072-.056h.008a.022.022,0,0,0,.014-.016.028.028,0,0,0,0,0,.579.579,0,0,0,.1-.1h0a.05.05,0,0,0,.035-.04v0a.171.171,0,0,0,.036-.038h0a.146.146,0,0,0,.052-.077v0c.016-.009.017-.027.026-.041h.006a.08.08,0,0,0,.022-.04V911.4a.488.488,0,0,0,.06-.114l0,0a.263.263,0,0,0,.045-.114v0a.736.736,0,0,0,.047-.159l0,0a.017.017,0,0,0,0-.014l0,0a1.428,1.428,0,0,0,.026-.184v0a.031.031,0,0,0,0-.01.121.121,0,0,0,0-.034c0-.02,0-.04,0-.06s0-.036,0-.054a.052.052,0,0,0,0-.019l-.005-.005a.126.126,0,0,0,0-.064l0,0a.017.017,0,0,0,0-.013l0,0a.109.109,0,0,0,0-.058l0,0a.015.015,0,0,0,0-.013l0,0a.073.073,0,0,0-.005-.046l0,0a.042.042,0,0,0-.006-.04l-.006,0a.148.148,0,0,0-.016-.053v0a.016.016,0,0,0,0-.013h0c-.006-.015,0-.032-.014-.046l0,0a.034.034,0,0,0-.009-.025l0,0a.119.119,0,0,0-.016-.039l0,0a.027.027,0,0,0-.008-.024h0l-.027-.045V910.1a.3.3,0,0,0-.04-.081h0a.176.176,0,0,0-.028-.046v0c-.016-.021-.022-.049-.045-.065h0l-.02-.028v0a.21.21,0,0,0-.071-.09h0a.617.617,0,0,0-.1-.1v0a.155.155,0,0,0-.085-.071h0l-.039-.031,0,0a.012.012,0,0,0-.008,0h0a.208.208,0,0,0-.045-.035s0,0,0,0a.046.046,0,0,0-.04-.026h0c-.012-.013-.02-.03-.04-.034v0a.3.3,0,0,0-.1-.065h0l-.042-.025v0a.094.094,0,0,0-.047-.027h0a.166.166,0,0,0-.044-.027v0a.351.351,0,0,0-.108-.057h0a.9.9,0,0,0-.1-.057l0-.006a.608.608,0,0,0-.092-.047l-.013,0-.005,0a.018.018,0,0,1-.006-.007.026.026,0,0,0-.022-.01h0a.081.081,0,0,0-.036-.018h0a.866.866,0,0,0-.1-.053v0a.019.019,0,0,0-.013,0l0,0-.044-.026v0a.166.166,0,0,0-.068-.035h0a.1.1,0,0,0-.048-.029l0,0a.031.031,0,0,0-.021-.015h0a.541.541,0,0,0-.089-.054h0a.113.113,0,0,0-.045-.034s0,0,0,0a.107.107,0,0,0-.042-.046h0a.5.5,0,0,1-.038-.049v-.005a.021.021,0,0,0-.009-.015h0a.207.207,0,0,1-.012-.058.008.008,0,0,1,0,0l0,0v-.032a.264.264,0,0,1,.018-.088l.007,0a.352.352,0,0,1,.158-.128,1.19,1.19,0,0,1,.339-.06,1.9,1.9,0,0,1,.325.021,1.824,1.824,0,0,1,.709.228,1.94,1.94,0,0,1,.378.284l.005,0c0,.011.005.012.013.012l.008,0c.028.007.041-.011.052-.031a.581.581,0,0,0,.049-.125,2.039,2.039,0,0,1,.165-.372c.035-.068.079-.131.118-.2a2.472,2.472,0,0,1,.258-.355c.034-.038.031-.063-.015-.086" transform="translate(23.71 -605.049)" fill="#393940"/>
  </g>
</svg>
