<svg width="25" height="9" viewBox="0 0 25 9" fill="none" xmlns="http://www.w3.org/2000/svg">
<path fill-rule="evenodd" clip-rule="evenodd" d="M22.8307 8.6617H0.57074L2.05438 0H24.3142L22.8307 8.6617Z" fill="#2E3235"/>
<path fill-rule="evenodd" clip-rule="evenodd" d="M7.67019 5.04609C7.29011 5.04609 7.02313 4.80342 7.02313 4.42458C7.02313 4.0053 7.35502 3.61178 7.83196 3.61178C8.21202 3.61178 8.47902 3.86555 8.47902 4.24444C8.47902 4.66378 8.1471 5.04609 7.67019 5.04609ZM7.89268 2.88727C6.89381 2.88727 6.13785 3.60444 6.13785 4.46135C6.13785 5.23737 6.76032 5.77452 7.60946 5.77452C8.60833 5.77452 9.36428 5.03505 9.36428 4.17814C9.36428 3.40221 8.74182 2.88727 7.89268 2.88727Z" fill="#E5E5E0"/>
<path fill-rule="evenodd" clip-rule="evenodd" d="M13.6891 5.04609C13.309 5.04609 13.0425 4.80342 13.0425 4.42458C13.0425 4.0053 13.3739 3.61178 13.8509 3.61178C14.2309 3.61178 14.4979 3.86555 14.4979 4.24444C14.4979 4.66378 14.1665 5.04609 13.6891 5.04609ZM13.9116 2.88727C12.9127 2.88727 12.1567 3.60444 12.1567 4.46135C12.1567 5.23737 12.7792 5.77452 13.6284 5.77452C14.6272 5.77452 15.3837 5.03505 15.3837 4.17814C15.3837 3.40221 14.7607 2.88727 13.9116 2.88727Z" fill="#E5E5E0"/>
<path fill-rule="evenodd" clip-rule="evenodd" d="M16.9008 4.25485H16.7704L16.8683 3.67662H16.9867C17.2636 3.67662 17.4102 3.7582 17.4102 3.93605C17.4102 4.14734 17.2023 4.25485 16.9008 4.25485ZM18.3226 3.79896C18.3226 3.28005 17.9075 2.94647 17.1578 2.94647H16.0982L15.6339 5.71515H16.526L16.6725 4.84414H16.7134L17.1861 5.71515H18.2085L17.5526 4.74774C18.0337 4.5846 18.3226 4.2326 18.3226 3.79896Z" fill="#E5E5E0"/>
<path fill-rule="evenodd" clip-rule="evenodd" d="M5.11538 4.05102C4.77719 3.88419 4.70023 3.83973 4.70023 3.75081C4.70023 3.63958 4.83425 3.58396 5.02167 3.58396C5.23685 3.58396 5.56195 3.60749 5.88025 3.90374C5.95929 3.66636 6.08754 3.45024 6.2556 3.26409C5.80433 3.01663 5.38866 2.88727 5.00546 2.88727C4.24373 2.88727 3.80765 3.28386 3.80765 3.76192C3.80765 4.17329 4.12541 4.38826 4.50445 4.57719C4.84264 4.74775 4.92796 4.7997 4.92796 4.90355C4.92796 5.01471 4.78558 5.07761 4.59816 5.07761C4.27199 5.07761 3.89298 4.87753 3.6689 4.67366L3.53854 5.44459C3.771 5.60757 4.105 5.7743 4.61018 5.7743C5.39652 5.7743 5.82057 5.38903 5.82057 4.8924C5.82057 4.48828 5.54729 4.26599 5.11538 4.05102Z" fill="#E5E5E0"/>
<path fill-rule="evenodd" clip-rule="evenodd" d="M11.7117 4.16211H10.6673L10.749 3.67662H11.8693C12.0143 3.3846 12.2389 3.13486 12.519 2.94647H10.6856C10.2789 2.94647 9.93335 3.21659 9.8721 3.5822L9.51401 5.71515H10.4066L10.5532 4.84414H11.6128L11.6892 4.37076C11.6929 4.29998 11.7002 4.23047 11.7117 4.16211Z" fill="#E5E5E0"/>
<path fill-rule="evenodd" clip-rule="evenodd" d="M18.342 2.94647C18.5802 3.12482 18.7274 3.37417 18.7588 3.67662H19.5048L19.1624 5.71515H20.0545L20.3974 3.67662H21.224L21.3465 2.94647H18.342Z" fill="#E5E5E0"/>
</svg>
