<svg xmlns="http://www.w3.org/2000/svg" width="38" height="23" viewBox="0 0 38 23">
  <g id="Group_3668" data-name="Group 3668" transform="translate(-855 -352)">
    <rect id="Rectangle_3932" data-name="Rectangle 3932" width="38" height="23" rx="5" transform="translate(855 352)" fill="#29327f"/>
    <g id="g4158" transform="translate(777.834 253.953)">
      <path id="polygon9" d="M435.92,120.06h-2.413l1.509-9.333h2.413Z" transform="translate(-341.846 -5.51)" fill="#fff"/>
      <path id="path11" d="M572.418,105.445a5.947,5.947,0,0,0-2.164-.4c-2.383,0-4.061,1.271-4.072,3.088-.02,1.34,1.2,2.085,2.115,2.532.934.457,1.251.755,1.251,1.162-.01.625-.754.913-1.449.913a4.8,4.8,0,0,1-2.264-.5l-.318-.149-.338,2.1a7.344,7.344,0,0,0,2.691.5c2.532,0,4.181-1.251,4.2-3.187.01-1.062-.635-1.877-2.026-2.542-.844-.427-1.361-.715-1.361-1.152.01-.4.437-.8,1.39-.8a4.1,4.1,0,0,1,1.8.357l.218.1.328-2.015Z" transform="translate(-469.595)" fill="#fff"/>
      <path id="path13" d="M794.255,116.753c.2-.536.963-2.611.963-2.611-.01.02.2-.546.318-.894l.169.8s.457,2.234.556,2.7Zm2.979-6.027h-1.867a1.191,1.191,0,0,0-1.261.774l-3.585,8.558h2.532l.507-1.4h3.1c.069.328.288,1.4.288,1.4h2.234l-1.947-9.333Z" transform="translate(-688.225 -5.51)" fill="#fff"/>
      <path id="path15" d="M171.794,110.727l-2.363,6.364-.258-1.291a7.143,7.143,0,0,0-3.336-3.912L168,120.05h2.552l3.793-9.323h-2.552Z" transform="translate(-82.148 -5.51)" fill="#fff"/>
      <path id="path17" d="M85.088,110.727H81.205l-.04.189a8.075,8.075,0,0,1,5.859,4.885l-.844-4.289a1,1,0,0,0-1.092-.785Z" transform="translate(0 -5.51)" fill="#fff"/>
    </g>
  </g>
</svg>
