<svg width="40.007" height="25" xmlns="http://www.w3.org/2000/svg" version="1.1">

 <g>
  <title>Layer 1</title>
  <path stroke="null" data-name="Icon simple-visa" fill="#fff" d="m29.081,6.8691a8.32,8.32 0 0 0 -2.9,-0.5c-3.2,0 -5.459,1.614 -5.476,3.926c-0.02,1.7 1.607,2.657 2.836,3.227c1.262,0.583 1.684,0.95 1.68,1.475c-0.008,0.8 -1.009,1.155 -1.937,1.155a6.853,6.853 0 0 1 -3.052,-0.625l-0.4,-0.185l-0.452,2.664a10.833,10.833 0 0 0 3.626,0.625c3.4,0 5.626,-1.6 5.653,-4.066c0.027,-1.355 -0.85,-2.384 -2.7,-3.231c-1.124,-0.55 -1.824,-0.919 -1.824,-1.477c0,-0.493 0.6,-1.02 1.849,-1.02a5.935,5.935 0 0 1 2.426,0.455l0.3,0.135l0.452,-2.574l-0.078,0.017l-0.003,-0.001zm8.307,-0.283l-2.5,0a1.618,1.618 0 0 0 -1.7,0.985l-4.812,10.892l3.4,0l0.68,-1.784l4.151,0c0.1,0.417 0.4,1.78 0.4,1.78l3,0l-2.619,-11.875l0,0.002zm-21.288,-0.102l3.239,0l-2.022,11.885l-3.241,0l2.024,-11.885zm-8.23,6.551l0.337,1.65l3.169,-8.1l3.432,0l-5.1,11.861l-3.427,0l-2.8,-10.045a0.663,0.663 0 0 0 -0.3,-0.4a13.688,13.688 0 0 0 -3.181,-1.174l0.042,-0.25l5.219,0a1.356,1.356 0 0 1 1.472,1.007l1.137,5.456l0,-0.005zm25.519,1.212l1.292,-3.324c-0.017,0.033 0.267,-0.687 0.43,-1.134l0.222,1.025l0.748,3.429l-2.692,0l0,0.004z" id="Icon_simple-visa"/>
 </g>
</svg>