<svg xmlns="http://www.w3.org/2000/svg" width="54.665" height="17.671" viewBox="0 0 54.665 17.671"><defs><style>.a{fill:#344daa;}</style></defs><path class="a" d="M11.779,20.811a1.779,1.779,0,0,0-2-1.442H2.623l-.053.346c4.911,1.255,8.942,3.924,10.757,8.969l-1.549-7.874Zm2,10.25-.453-2.376a10.716,10.716,0,0,0-5.767-5.82l3.6,13.614h4.672L22.8,19.369H18.1L13.781,31.061Zm12.466,5.444L29.021,19.37h-4.43L21.815,36.505Zm12.09-17.429c-4.378,0-7.446,2.323-7.473,5.658-.027,2.457,2.189,3.817,3.87,4.646,1.736.827,2.3,1.387,2.3,2.134,0,1.148-1.387,1.656-2.642,1.656a8.4,8.4,0,0,1-4.164-.881l-.588-.294-.614,3.843a12.909,12.909,0,0,0,4.938.909c4.644.027,7.662-2.3,7.714-5.845,0-1.949-1.2-3.417-3.737-4.646-1.547-.772-2.481-1.335-2.481-2.134,0-.72.8-1.469,2.535-1.469a7.362,7.362,0,0,1,3.309.642l.4.212.613-3.71a11.011,11.011,0,0,0-3.977-.721Zm11.905.294a2.191,2.191,0,0,0-2.323,1.442L41.353,36.505H46c.749-2.107.936-2.563.936-2.563h5.658s.135.588.533,2.563h4.111L53.659,19.37H50.243ZM48.186,30.421s.373-.988,1.763-4.778c-.027.027.373-.988.588-1.628l.319,1.469c.827,4.084,1.016,4.938,1.016,4.938H48.186Z" transform="translate(-2.571 -19.076)"/></svg>