<svg width="40.007" height="12.262" version="1.1" viewBox="0 0 40.007 12.262" xmlns="http://www.w3.org/2000/svg">
 <path id="Icon_simple-visa" d="m29.081 0.50021a8.32 8.32 0 0 0-2.9-0.5c-3.2 0-5.459 1.614-5.476 3.926-0.02 1.7 1.607 2.657 2.836 3.227 1.262 0.583 1.684 0.95 1.68 1.475-8e-3 0.8-1.009 1.155-1.937 1.155a6.853 6.853 0 0 1-3.052-0.625l-0.4-0.185-0.452 2.664a10.833 10.833 0 0 0 3.626 0.625c3.4 0 5.626-1.6 5.653-4.066 0.027-1.355-0.85-2.384-2.7-3.231-1.124-0.55-1.824-0.919-1.824-1.477 0-0.493 0.6-1.02 1.849-1.02a5.935 5.935 0 0 1 2.426 0.455l0.3 0.135 0.452-2.574-0.078 0.017zm8.307-0.283h-2.5a1.618 1.618 0 0 0-1.7 0.985l-4.812 10.892h3.4l0.68-1.784h4.151c0.1 0.417 0.4 1.78 0.4 1.78h3l-2.619-11.875zm-21.288-0.102h3.239l-2.022 11.885h-3.241zm-8.23 6.551 0.337 1.65 3.169-8.1h3.432l-5.1 11.861h-3.427l-2.8-10.045a0.663 0.663 0 0 0-0.3-0.4 13.688 13.688 0 0 0-3.181-1.174l0.042-0.25h5.219a1.356 1.356 0 0 1 1.472 1.007l1.137 5.456zm25.519 1.212 1.292-3.324c-0.017 0.033 0.267-0.687 0.43-1.134l0.222 1.025 0.748 3.429h-2.692z" fill="#fff" data-name="Icon simple-visa"/>
</svg>
