<svg xmlns="http://www.w3.org/2000/svg" width="18" height="18" viewBox="0 0 18 18">
  <g id="Group_3431" data-name="Group 3431" transform="translate(439 298) rotate(180)">
    <g id="Group_3303" data-name="Group 3303" transform="translate(0 1)">
      <rect id="Rectangle_3630" data-name="Rectangle 3630" width="18" height="18" rx="3" transform="translate(421 279)" fill="#d3dbe6"/>
      <g id="Group_3302" data-name="Group 3302" transform="translate(424.657 306.552)">
        <path id="Path_2450" data-name="Path 2450" d="M9.089-16.066a.24.24,0,0,0,.157.056h.007a.232.232,0,0,0,.172-.075l1.966-1.688a.175.175,0,0,0,0-.273.247.247,0,0,0-.315,0l-1.6,1.376V-22.9a.209.209,0,0,0-.223-.193.209.209,0,0,0-.223.193v6.242L7.414-18.048a.248.248,0,0,0-.315,0,.175.175,0,0,0,0,.273Z" transform="translate(-3.902 1)" fill="#f8fafd"/>
        <path id="Path_2450_-_Outline" data-name="Path 2450 - Outline" d="M9.253-15.81H9.221a.436.436,0,0,1-.263-.1L6.971-17.622a.382.382,0,0,1-.136-.287.382.382,0,0,1,.133-.288.442.442,0,0,1,.29-.106.439.439,0,0,1,.287.1l1.286,1.1V-22.9a.409.409,0,0,1,.423-.393.409.409,0,0,1,.423.393v5.795L10.947-18.2a.436.436,0,0,1,.287-.1.44.44,0,0,1,.29.107.382.382,0,0,1,.133.288.382.382,0,0,1-.135.287L9.564-15.94A.435.435,0,0,1,9.253-15.81Zm-.007-.409.022.006a.031.031,0,0,0,.01-.007l.017-.017,1.94-1.666a.043.043,0,0,0-.026.007l-1.933,1.66V-22.89a.075.075,0,0,0-.045,0v6.665L7.284-17.9a.043.043,0,0,0-.027-.008L9.22-16.218l.008,0Z" transform="translate(-3.902 1)" fill="#f8fafd"/>
      </g>
    </g>
    <path id="Ellipse_461" data-name="Ellipse 461" d="M7,0h.007A.55.55,0,0,1,7,1.1H7A.55.55,0,0,1,7,0ZM9.81.642A.548.548,0,0,1,10.05.7l.007,0a.55.55,0,0,1-.482.989l0,0A.55.55,0,0,1,9.81.642Zm2.248,1.806a.549.549,0,0,1,.431.209l0,0,0,0a.55.55,0,0,1-.864.681l0,0a.55.55,0,0,1,.431-.892Zm1.24,2.6a.55.55,0,0,1,.536.429l0,.007h0a.55.55,0,1,1-1.074.237v0A.551.551,0,0,1,13.3,5.05Zm-.02,2.885a.55.55,0,0,1,.536.674l0,.007h0a.55.55,0,1,1-1.071-.253v0A.55.55,0,0,1,13.278,7.935ZM12,10.52a.55.55,0,0,1,.427.9l0,0,0,0a.55.55,0,1,1-.852-.7l0,0A.549.549,0,0,1,12,10.52ZM9.731,12.295a.55.55,0,0,1,.234,1.048l-.005,0a.55.55,0,0,1-.466-1l0,0A.548.548,0,0,1,9.731,12.295Zm-2.823.6H6.92A.55.55,0,0,1,6.906,14H6.9a.55.55,0,0,1,.008-1.1Zm-2.8-.683a.548.548,0,0,1,.246.059l0,0a.55.55,0,0,1-.492.984l-.006,0a.55.55,0,0,1,.248-1.041ZM1.884,10.379a.549.549,0,0,1,.436.215l0,0a.55.55,0,0,1-.871.672l0,0h0a.55.55,0,0,1,.435-.885Zm-1.2-2.62a.55.55,0,0,1,.538.439v0a.55.55,0,0,1-1.077.225V8.42a.55.55,0,0,1,.539-.661Zm.06-2.884a.551.551,0,0,1,.534.684v0A.55.55,0,0,1,.209,5.3V5.289A.55.55,0,0,1,.743,4.875ZM2.055,2.309a.55.55,0,0,1,.421.9l0,0a.55.55,0,0,1-.844-.705l0,0h0A.549.549,0,0,1,2.055,2.309ZM4.353.566a.55.55,0,0,1,.226,1.052l0,0a.55.55,0,0,1-.453-1h0l.005,0A.548.548,0,0,1,4.353.566Z" transform="translate(423 282)" fill="#f8fafd"/>
  </g>
</svg>