<svg xmlns="http://www.w3.org/2000/svg" width="172.345" height="126.929" viewBox="0 0 172.345 126.929">
  <g id="Group_2366" data-name="Group 2366" transform="translate(-2479 -1651.414)">
    <g id="Group_2363" data-name="Group 2363" transform="translate(2479 1651.414)">
      <path id="Path_1860" data-name="Path 1860" d="M185.722-8.376h2.912a1.418,1.418,0,0,0,1.412-1.412,1.418,1.418,0,0,0-1.412-1.412h-2.912a1.418,1.418,0,0,0-1.412,1.412A1.418,1.418,0,0,0,185.722-8.376Z" transform="translate(-17.701 128.005)" fill="#bcc2d4"/>
      <path id="Path_1861" data-name="Path 1861" d="M172.8-8.376h2.913a1.418,1.418,0,0,0,1.411-1.412,1.418,1.418,0,0,0-1.411-1.412H172.8a1.418,1.418,0,0,0-1.411,1.412A1.418,1.418,0,0,0,172.8-8.376Z" transform="translate(-16.459 128.005)" fill="#bcc2d4"/>
      <path id="Path_1862" data-name="Path 1862" d="M180.869-13.538h0a1.417,1.417,0,0,0,1.41-1.41v-2.916a1.417,1.417,0,0,0-1.41-1.41h0a1.418,1.418,0,0,0-1.411,1.412v2.912A1.418,1.418,0,0,0,180.869-13.538Z" transform="translate(-17.235 128.78)" fill="#bcc2d4"/>
      <path id="Path_1863" data-name="Path 1863" d="M180.869-.609h0a1.417,1.417,0,0,0,1.41-1.41V-4.935a1.416,1.416,0,0,0-1.41-1.41h0a1.418,1.418,0,0,0-1.411,1.412v2.912A1.418,1.418,0,0,0,180.869-.609Z" transform="translate(-17.235 127.538)" fill="#bcc2d4"/>
      <path id="Path_1864" data-name="Path 1864" d="M14.338-129.521H17.25a1.418,1.418,0,0,0,1.412-1.411,1.418,1.418,0,0,0-1.412-1.412H14.338a1.418,1.418,0,0,0-1.412,1.412A1.418,1.418,0,0,0,14.338-129.521Z" transform="translate(-1.241 139.639)" fill="#bcc2d4"/>
      <path id="Path_1865" data-name="Path 1865" d="M1.412-129.521H4.324a1.418,1.418,0,0,0,1.412-1.411,1.418,1.418,0,0,0-1.412-1.412H1.412A1.418,1.418,0,0,0,0-130.932,1.418,1.418,0,0,0,1.412-129.521Z" transform="translate(0 139.639)" fill="#bcc2d4"/>
      <path id="Path_1866" data-name="Path 1866" d="M9.488-134.678A1.418,1.418,0,0,0,10.9-136.09V-139a1.418,1.418,0,0,0-1.412-1.412A1.418,1.418,0,0,0,8.076-139v2.912A1.418,1.418,0,0,0,9.488-134.678Z" transform="translate(-0.776 140.414)" fill="#bcc2d4"/>
      <path id="Path_1867" data-name="Path 1867" d="M9.488-121.752a1.418,1.418,0,0,0,1.412-1.411v-2.912a1.418,1.418,0,0,0-1.412-1.412,1.418,1.418,0,0,0-1.412,1.412v2.912A1.418,1.418,0,0,0,9.488-121.752Z" transform="translate(-0.776 139.173)" fill="#bcc2d4"/>
      <path id="Path_1868" data-name="Path 1868" d="M69.111-58.6,91.581-43.332Z" transform="translate(-6.637 132.557)" fill="#bcc2d4" fill-rule="evenodd"/>
    </g>
    <g id="Group_2364" data-name="Group 2364" transform="translate(2506.119 1663.484)">
      <path id="Path_1876" data-name="Path 1876" d="M39.56-38.742,62.031-23.475Z" transform="translate(-3.799 101.137)" fill="#bcc2d4" fill-rule="evenodd"/>
      <path id="Path_1877" data-name="Path 1877" stroke="#bcc2d4" d="M67.236-53.29a5.716,5.716,0,0,0-6.4,0" fill="#fff" transform="translate(-5.842 102.629)" stroke-linecap="round" stroke-linejoin="round" stroke-width="3" fill-rule="evenodd"/>
      <path id="Path_1878" data-name="Path 1878" d="M123.635-17.833,89.23-41.208l34.4-23.392Z" transform="translate(-8.569 103.621)" fill="none" stroke="#bcc2d4" stroke-linecap="round" stroke-linejoin="round" stroke-width="3"/>
      <path id="Path_1879" data-name="Path 1879" d="M1.5-17.833V-64.6L35.9-41.225Z" transform="translate(-0.144 103.621)" fill="none" stroke="#bcc2d4" stroke-linecap="round" stroke-linejoin="round" stroke-width="3"/>
      <path id="Path_1880" data-name="Path 1880" d="M50.3-30.821c0,6.452,5.728,11.69,12.782,11.69s12.782-5.238,12.782-11.69" transform="translate(-4.83 100.377)" fill="none" stroke="#bcc2d4" stroke-linecap="round" stroke-linejoin="round" stroke-width="3"/>
      <path id="Path_1881" data-name="Path 1881" d="M58.19-58.981,36.523-44.249a1.356,1.356,0,0,1-1.524,0L.594-67.623A1.356,1.356,0,0,1,0-68.745H0a8.44,8.44,0,0,1,3.694-6.979l41.031-27.9a23.955,23.955,0,0,1,26.931,0l41.07,27.9a8.436,8.436,0,0,1,3.7,6.978h0a1.356,1.356,0,0,1-.594,1.121l-34.4,23.392a1.356,1.356,0,0,1-1.524,0Zm55.478-10.454A5.723,5.723,0,0,0,111.2-73.48l-41.069-27.9a21.244,21.244,0,0,0-23.882,0L5.219-73.482a5.727,5.727,0,0,0-2.465,4.047L35.76-47.01,57.427-61.741a1.356,1.356,0,0,1,1.524,0L80.66-46.993Z" transform="translate(0 107.766)" fill="#bcc2d4" fill-rule="evenodd"/>
      <path id="Path_1882" data-name="Path 1882" d="M17.825-90.564v31.641L37.773-45.7l22.15-13.22L81.634-45.7l21.037-14.351-1.5-33.133L21.3-94.285Z" transform="translate(-1.712 106.472)" fill="#fff" fill-rule="evenodd"/>
      <path id="Path_1883" data-name="Path 1883" d="M37.425-44.856l-20.1-13.69v-31.6c0-2.4,2.264-4.339,5.056-4.339H97.366c2.792,0,5.056,1.943,5.056,4.339v31.6l-20.1,13.82" transform="translate(-1.664 106.49)" fill="none" stroke="#bcc2d4" stroke-linecap="round" stroke-linejoin="round" stroke-width="3"/>
      <path id="Path_1884" data-name="Path 1884" d="M115.209-16.817v5.343a4.552,4.552,0,0,1-1.737,3.486,6.6,6.6,0,0,1-4.194,1.444H7.432A6.594,6.594,0,0,1,3.237-7.988,4.551,4.551,0,0,1,1.5-11.474v-5.343L54.579-52.906a6.888,6.888,0,0,1,7.51,0Z" transform="translate(-0.144 102.605)" fill="none" stroke="#bcc2d4" stroke-linecap="round" stroke-linejoin="round" stroke-width="3"/>
    </g>
  </g>
</svg>
