<svg xmlns="http://www.w3.org/2000/svg" width="102.469" height="141.599" viewBox="0 0 102.469 141.599">
  <g id="Group_2511" data-name="Group 2511" transform="translate(-4791 -2598.401)">
    <g id="Group_2508" data-name="Group 2508" transform="translate(-123.531 458)">
      <path id="Path_1855" data-name="Path 1855" d="M92.392-51.553a3.075,3.075,0,0,0-.9-2.174,3.075,3.075,0,0,0-2.174-.9H24.643a3.075,3.075,0,0,0-2.174.9,3.075,3.075,0,0,0-.9,2.174V41.053a3.074,3.074,0,0,0,3.074,3.074H89.318a3.074,3.074,0,0,0,3.074-3.074Zm-1.685,0V41.053a1.39,1.39,0,0,1-1.39,1.39H24.643a1.39,1.39,0,0,1-1.39-1.39V-51.553a1.39,1.39,0,0,1,.407-.983,1.39,1.39,0,0,1,.983-.407H89.318a1.39,1.39,0,0,1,.983.407A1.39,1.39,0,0,1,90.708-51.553Z" transform="translate(4903.431 2219.627)" fill="#bcc2d4" fill-rule="evenodd"/>
      <path id="Path_1854" data-name="Path 1854" d="M107.981-57.386a9,9,0,0,0-2.635-6.362,9,9,0,0,0-6.361-2.635H25.711a9,9,0,0,0-6.362,2.635,9,9,0,0,0-2.635,6.362V62.325a9,9,0,0,0,9,9H98.984a9,9,0,0,0,9-9Zm-3.159,0V62.325a5.838,5.838,0,0,1-5.838,5.838H25.711a5.838,5.838,0,0,1-5.838-5.838V-57.386a5.838,5.838,0,0,1,1.71-4.128,5.838,5.838,0,0,1,4.128-1.71H98.984a5.838,5.838,0,0,1,4.128,1.71A5.838,5.838,0,0,1,104.822-57.386Z" transform="translate(4897.816 2206.784)" fill="#bcc2d4" fill-rule="evenodd"/>
      <g id="Ellipse_409" data-name="Ellipse 409" transform="translate(4982.988 2247.988)" fill="#fff" stroke="#fff" stroke-width="1">
        <circle cx="17.006" cy="17.006" r="17.006" stroke="none"/>
        <circle cx="17.006" cy="17.006" r="16.506" fill="none"/>
      </g>
      <path id="Path_1857" data-name="Path 1857" d="M34.344-57.2H55.323a1.791,1.791,0,0,0,1.79-1.79,1.791,1.791,0,0,0-1.79-1.79H34.344a1.791,1.791,0,0,0-1.79,1.79A1.791,1.791,0,0,0,34.344-57.2Z" transform="translate(4915.33 2212.979)" fill="#bcc2d4" fill-rule="evenodd"/>
      <g id="Group_2507" data-name="Group 2507" transform="translate(4998.043 2256.445)">
        <path id="Path_1992" data-name="Path 1992" d="M40.064-30.13c.968,0,2.363.163,2.393,1.253a10.412,10.412,0,0,1-.114,1.253c-.285,1.823-1.112,6.295-1.595,9.884H39.38c-.4-3.3-1.224-7.831-1.566-9.8a7.291,7.291,0,0,1-.2-1.339C37.614-29.873,39.038-30.13,40.064-30.13Zm.028,19.253h-.042a2.389,2.389,0,0,1-2.378-2.378,2.389,2.389,0,0,1,2.378-2.378,2.389,2.389,0,0,1,2.378,2.363q0,.072,0,.143a2.262,2.262,0,0,1-2.251,2.251l-.091,0Z" transform="translate(-37.821 29.309)" fill="#4eb6a1"/>
      </g>
      <g id="Ellipse_410" data-name="Ellipse 410" transform="translate(4982.988 2247.988)" fill="none" stroke="#4eb6a1" stroke-width="2.7">
        <circle cx="17.006" cy="17.006" r="17.006" stroke="none"/>
        <circle cx="17.006" cy="17.006" r="15.656" fill="none"/>
      </g>
    </g>
    <g id="Group_2509" data-name="Group 2509" transform="translate(-1)">
      <g id="Group_2510" data-name="Group 2510" transform="translate(1 -3)">
        <g id="Group_2506" data-name="Group 2506" transform="translate(-123.217 460)">
          <g id="Group_2504" data-name="Group 2504" transform="translate(0 -1.77)">
            <path id="Path_1987" data-name="Path 1987" d="M8831.685-5831.23h24.421" transform="translate(-3872.278 8051)" fill="none" stroke="#bcc2d4" stroke-linecap="round" stroke-width="4"/>
            <path id="Path_1986" data-name="Path 1986" d="M8831.686-5831.23h6.143" transform="translate(-3885.194 8051)" fill="none" stroke="#bcc2d4" stroke-linecap="round" stroke-width="4"/>
            <path id="Path_1982" data-name="Path 1982" d="M8831.686-5831.23h3.1" transform="translate(-3896 8044)" fill="none" stroke="#bcc2d4" stroke-linecap="round" stroke-width="4"/>
            <path id="Path_1979" data-name="Path 1979" d="M8831.685-5831.23h37.337" transform="translate(-3885.193 8044)" fill="none" stroke="#bcc2d4" stroke-linecap="round" stroke-width="4"/>
          </g>
          <g id="Group_2505" data-name="Group 2505" transform="translate(0 0.23)">
            <path id="Path_1984" data-name="Path 1984" d="M8831.687-5831.23h25.027" transform="translate(-3885.194 8062)" fill="none" stroke="#bcc2d4" stroke-linecap="round" stroke-width="4"/>
            <path id="Path_1985" data-name="Path 1985" d="M8831.686-5831.23h6.143" transform="translate(-3854 8062)" fill="none" stroke="#bcc2d4" stroke-linecap="round" stroke-width="4"/>
            <path id="Path_1983" data-name="Path 1983" d="M8831.686-5831.23h3.1" transform="translate(-3896 8062)" fill="none" stroke="#bcc2d4" stroke-linecap="round" stroke-width="4"/>
            <path id="Path_1988" data-name="Path 1988" d="M8831.685-5831.23h37.337" transform="translate(-3885.193 8069)" fill="none" stroke="#bcc2d4" stroke-linecap="round" stroke-width="4"/>
          </g>
          <g id="Group_2503" data-name="Group 2503" transform="translate(0 0.23)">
            <path id="Path_1978" data-name="Path 1978" d="M8831.685-5831.23h37.337" transform="translate(-3885.275 8022)" fill="none" stroke="#bcc2d4" stroke-linecap="round" stroke-width="4"/>
            <path id="Path_1989" data-name="Path 1989" d="M8831.686-5831.23h17.448" transform="translate(-3885.276 8029)" fill="none" stroke="#bcc2d4" stroke-linecap="round" stroke-width="4"/>
            <path id="Path_1990" data-name="Path 1990" d="M8831.688-5831.23h13.221" transform="translate(-3861.181 8029)" fill="none" stroke="#bcc2d4" stroke-linecap="round" stroke-width="4"/>
            <path id="Path_1981" data-name="Path 1981" d="M8831.686-5831.23h3.419" transform="translate(-3896 8022)" fill="none" stroke="#bcc2d4" stroke-linecap="round" stroke-width="4"/>
          </g>
        </g>
      </g>
    </g>
  </g>
</svg>
