<svg xmlns="http://www.w3.org/2000/svg" width="91.266" height="137.704" viewBox="0 0 91.266 137.704">
  <g id="Group_2365" data-name="Group 2365" transform="translate(-2087.531 -1646.401)">
    <g id="Group_2356" data-name="Group 2356" transform="translate(2052.683 1708.874)">
      <path id="Path_1853" data-name="Path 1853" d="M46.838-2.31A15.815,15.815,0,0,1,31.1-18.05a15.815,15.815,0,0,1,15.74-15.74,15.815,15.815,0,0,1,15.74,15.74A15.838,15.838,0,0,1,46.838-2.31Zm0-29.749h0a14.071,14.071,0,0,0-14,14,14.071,14.071,0,0,0,14,14,14.071,14.071,0,0,0,14-14,14.086,14.086,0,0,0-14-14.007Z" transform="translate(34.037 39.95)" fill="#4eb6a1"/>
      <path id="Path_1854" data-name="Path 1854" d="M107.981-57.386a9,9,0,0,0-2.635-6.362,9,9,0,0,0-6.361-2.635H25.711a9,9,0,0,0-6.362,2.635,9,9,0,0,0-2.635,6.362V62.325a9,9,0,0,0,9,9H98.984a9,9,0,0,0,9-9Zm-3.159,0V62.325a5.838,5.838,0,0,1-5.838,5.838H25.711a5.838,5.838,0,0,1-5.838-5.838V-57.386a5.838,5.838,0,0,1,1.71-4.128,5.838,5.838,0,0,1,4.128-1.71H98.984a5.838,5.838,0,0,1,4.128,1.71A5.838,5.838,0,0,1,104.822-57.386Z" transform="translate(18.133 3.91)" fill="#bcc2d4" fill-rule="evenodd"/>
      <path id="Path_1855" data-name="Path 1855" d="M92.392-51.553a3.075,3.075,0,0,0-.9-2.174,3.075,3.075,0,0,0-2.174-.9H24.643a3.075,3.075,0,0,0-2.174.9,3.075,3.075,0,0,0-.9,2.174V41.053a3.074,3.074,0,0,0,3.074,3.074H89.318a3.074,3.074,0,0,0,3.074-3.074Zm-1.685,0V41.053a1.39,1.39,0,0,1-1.39,1.39H24.643a1.39,1.39,0,0,1-1.39-1.39V-51.553a1.39,1.39,0,0,1,.407-.983,1.39,1.39,0,0,1,.983-.407H89.318a1.39,1.39,0,0,1,.983.407A1.39,1.39,0,0,1,90.708-51.553Z" transform="translate(23.5 16.909)" fill="#bcc2d4" fill-rule="evenodd"/>
      <path id="Path_1856" data-name="Path 1856" d="M39.656-30.13c.807,0,1.97.136,1.995,1.045a8.681,8.681,0,0,1-.095,1.045c-.238,1.52-.927,5.248-1.33,8.241h-1.14c-.332-2.755-1.02-6.529-1.305-8.169a6.079,6.079,0,0,1-.167-1.117C37.614-29.915,38.8-30.13,39.656-30.13Zm.023,16.052h-.035a1.992,1.992,0,0,1-1.983-1.982,1.992,1.992,0,0,1,1.983-1.982,1.992,1.992,0,0,1,1.982,1.97q0,.06,0,.119a1.886,1.886,0,0,1-1.877,1.877h-.076Z" transform="translate(41.243 43.998)" fill="#4eb6a1"/>
      <g id="Group_2357" data-name="Group 2357" transform="translate(56.885 -19.743)">
        <g id="Group_2356-2" data-name="Group 2356" transform="translate(0 0)">
          <text id="_" data-name="****" transform="translate(0 26)" fill="#bcc2d4" font-size="29" font-family="Arial-BoldMT, Arial" font-weight="700"><tspan x="0" y="0">****</tspan></text>
        </g>
      </g>
      <path id="Path_1857" data-name="Path 1857" d="M34.344-57.2H55.323a1.791,1.791,0,0,0,1.79-1.79,1.791,1.791,0,0,0-1.79-1.79H34.344a1.791,1.791,0,0,0-1.79,1.79A1.791,1.791,0,0,0,34.344-57.2Z" transform="translate(35.647 10.105)" fill="#bcc2d4" fill-rule="evenodd"/>
    </g>
  </g>
</svg>
