<svg xmlns="http://www.w3.org/2000/svg" width="174.192" height="92.9" viewBox="0 0 174.192 92.9">
  <g id="Group_2367" data-name="Group 2367" transform="translate(-1167.999 -748)">
    <g id="Group_2264" data-name="Group 2264" transform="translate(1167.999 803.096)">
      <path id="Path_1734" data-name="Path 1734" d="M37.6-28.671,34.366-40.737a6.435,6.435,0,0,0-7.881-4.55h0a6.435,6.435,0,0,0-3.907,3,6.435,6.435,0,0,0-.643,4.883l1.251,4.668,4.438,16.564" transform="translate(14.997 6.622)" fill="#fff" fill-rule="evenodd"/>
      <path id="Path_1735" data-name="Path 1735" d="M39.109-28.506,35.876-40.572A7.533,7.533,0,0,0,26.65-45.9h0a7.534,7.534,0,0,0-4.574,3.51,7.533,7.533,0,0,0-.752,5.717l5.689,21.232a1.1,1.1,0,0,0,1.346.777,1.1,1.1,0,0,0,.777-1.346L23.445-37.241a5.335,5.335,0,0,1,.533-4.049,5.336,5.336,0,0,1,3.24-2.486h0A5.336,5.336,0,0,1,33.753-40l3.233,12.066a1.1,1.1,0,0,0,1.346.777A1.1,1.1,0,0,0,39.109-28.506Z" transform="translate(14.548 6.173)" fill="#bcc2d4" fill-rule="evenodd"/>
      <path id="Path_1736" data-name="Path 1736" d="M64.43-27.572l4.293-16.021a6.435,6.435,0,0,0-.643-4.883,6.434,6.434,0,0,0-3.907-3h0a6.434,6.434,0,0,0-4.883.643,6.435,6.435,0,0,0-3,3.907L50.6-25.692" transform="translate(34.947 2.35)" fill="#fff" fill-rule="evenodd"/>
      <path id="Path_1737" data-name="Path 1737" d="M65.94-26.839l4.293-16.02a7.533,7.533,0,0,0-.752-5.717,7.534,7.534,0,0,0-4.574-3.51h0a7.533,7.533,0,0,0-5.717.753,7.533,7.533,0,0,0-3.51,4.574L49.989-25.527a1.1,1.1,0,0,0,.777,1.346,1.1,1.1,0,0,0,1.346-.777L57.8-46.19a5.335,5.335,0,0,1,2.486-3.24,5.336,5.336,0,0,1,4.049-.533h0a5.335,5.335,0,0,1,3.24,2.486,5.334,5.334,0,0,1,.533,4.049L63.817-27.408a1.1,1.1,0,0,0,.777,1.346A1.1,1.1,0,0,0,65.94-26.839Z" transform="translate(34.498 1.902)" fill="#bcc2d4" fill-rule="evenodd"/>
      <path id="Path_1738" data-name="Path 1738" d="M69.6-24.98l5.724-21.364a6.434,6.434,0,0,0-.643-4.883,6.435,6.435,0,0,0-3.907-3h0a6.435,6.435,0,0,0-7.881,4.55L56.639-26.338" transform="translate(39.117 0.449)" fill="#fff" fill-rule="evenodd"/>
      <path id="Path_1739" data-name="Path 1739" d="M71.11-24.246l5.725-21.364a7.534,7.534,0,0,0-.753-5.717,7.533,7.533,0,0,0-4.574-3.51h0a7.533,7.533,0,0,0-9.227,5.327L56.027-26.173a1.1,1.1,0,0,0,.777,1.346A1.1,1.1,0,0,0,58.15-25.6L64.4-48.942a5.336,5.336,0,0,1,6.535-3.773h0a5.335,5.335,0,0,1,3.24,2.486,5.336,5.336,0,0,1,.533,4.049L68.987-24.815a1.1,1.1,0,0,0,.777,1.346A1.1,1.1,0,0,0,71.11-24.246Z" transform="translate(38.668)" fill="#bcc2d4" fill-rule="evenodd"/>
      <path id="Path_1740" data-name="Path 1740" d="M74.292-22.2l6.374-23.788a6.435,6.435,0,0,0-.643-4.883,6.435,6.435,0,0,0-3.907-3h0a6.435,6.435,0,0,0-7.881,4.55L61.981-25.982" transform="translate(42.806 0.695)" fill="#fff" fill-rule="evenodd"/>
      <path id="Path_1741" data-name="Path 1741" d="M75.8-21.466l6.374-23.789a7.533,7.533,0,0,0-.753-5.717,7.534,7.534,0,0,0-4.574-3.51h0a7.533,7.533,0,0,0-9.226,5.327L61.369-25.818a1.1,1.1,0,0,0,.777,1.346,1.1,1.1,0,0,0,1.346-.777l6.253-23.337a5.336,5.336,0,0,1,6.535-3.773h0a5.336,5.336,0,0,1,3.24,2.486,5.334,5.334,0,0,1,.533,4.049L73.68-22.035a1.1,1.1,0,0,0,.777,1.346A1.1,1.1,0,0,0,75.8-21.466Z" transform="translate(42.357 0.246)" fill="#bcc2d4" fill-rule="evenodd"/>
      <path id="Path_1742" data-name="Path 1742" d="M78.561-21.136l4.911-18.327a6.435,6.435,0,0,0-4.55-7.881h0a6.435,6.435,0,0,0-7.881,4.55l-3.9,14.539" transform="translate(46.371 5.202)" fill="#fff" fill-rule="evenodd"/>
      <path id="Path_1743" data-name="Path 1743" d="M80.071-20.4l4.911-18.327a7.533,7.533,0,0,0-5.327-9.226h0a7.533,7.533,0,0,0-9.226,5.327l-3.9,14.539a1.1,1.1,0,0,0,.777,1.346,1.1,1.1,0,0,0,1.346-.777l3.9-14.539a5.336,5.336,0,0,1,6.535-3.773h0A5.335,5.335,0,0,1,82.859-39.3l-4.91,18.327a1.1,1.1,0,0,0,.777,1.346A1.1,1.1,0,0,0,80.071-20.4Z" transform="translate(45.922 4.753)" fill="#bcc2d4" fill-rule="evenodd"/>
      <path id="Path_1744" data-name="Path 1744" d="M74.805-18.922l.709-1.793a37.577,37.577,0,0,1,6.511-10.751l3.218-3.724A5.518,5.518,0,0,1,91.9-36.511l.477.24a5.934,5.934,0,0,1,3.18,4.3,5.934,5.934,0,0,1-1.566,5.111l0,0a38.19,38.19,0,0,0-8.164,12.936L84.137-9.459q-.045.122-.1.24C83.452-7.977,78.994.821,70.778-1.513c-8.835-2.51-12.229-9.094-9-17.975" transform="translate(41.837 12.428)" fill="#fff" fill-rule="evenodd"/>
      <path id="Path_1745" data-name="Path 1745" d="M76.276-18.069l.709-1.793A36.478,36.478,0,0,1,83.306-30.3l3.218-3.724a4.419,4.419,0,0,1,5.331-1.058l.477.24a4.836,4.836,0,0,1,2.591,3.5,4.835,4.835,0,0,1-1.276,4.165l0,0a39.29,39.29,0,0,0-8.4,13.309L83.558-9.4c-.024.063-.048.122-.074.18A16.96,16.96,0,0,1,79.969-4.38a8.487,8.487,0,0,1-8.442,2.259c-4.069-1.156-6.916-3.208-8.344-6.036s-1.417-6.405.073-10.506a1.1,1.1,0,0,0-.658-1.408,1.1,1.1,0,0,0-1.408.658c-1.736,4.78-1.637,8.942.031,12.247s4.94,5.806,9.705,7.16A10.593,10.593,0,0,0,81.467-2.772,19.334,19.334,0,0,0,85.481-8.3c.054-.121.1-.223.135-.326L87.3-13.087a37.09,37.09,0,0,1,7.929-12.564l0,0a7.033,7.033,0,0,0,1.856-6.058A7.033,7.033,0,0,0,93.32-36.8l-.477-.24a6.617,6.617,0,0,0-7.982,1.584l-3.218,3.724a38.675,38.675,0,0,0-6.7,11.066l-.709,1.793Z" transform="translate(41.388 11.979)" fill="#bcc2d4" fill-rule="evenodd"/>
      <path id="Path_1746" data-name="Path 1746" d="M50.792-36.38s-2.949,9.413-1.422,18.059C50.427-12.337,53.579-6.73,61.062-4.585a1.1,1.1,0,0,0,1.359-.754A1.1,1.1,0,0,0,61.667-6.7C55.15-8.566,52.454-13.492,51.534-18.7c-1.439-8.148,1.355-17.018,1.355-17.018a1.1,1.1,0,0,0-.719-1.378A1.1,1.1,0,0,0,50.792-36.38Z" transform="translate(33.793 12.394)" fill="#bcc2d4" fill-rule="evenodd"/>
      <path id="Path_1747" data-name="Path 1747" d="M50.69-36.047s22.86-6.008,36.951,6.382" transform="translate(35.008 12.15)" fill="#fff" fill-rule="evenodd"/>
      <path id="Path_1748" data-name="Path 1748" d="M51.418-34.535a55.4,55.4,0,0,1,17.47-1.186c6.208.61,13.024,2.537,18.476,7.33a1.1,1.1,0,0,0,1.551-.1,1.1,1.1,0,0,0-.1-1.551C82.994-35.16,75.731-37.257,69.1-37.909a57.686,57.686,0,0,0-18.244,1.248,1.1,1.1,0,0,0-.783,1.342A1.1,1.1,0,0,0,51.418-34.535Z" transform="translate(34.559 11.702)" fill="#bcc2d4" fill-rule="evenodd"/>
      <path id="Path_1749" data-name="Path 1749" d="M44.627-28.272l1.674-9.6a5.586,5.586,0,0,1,5.183-4.617l.407-.023a5.934,5.934,0,0,1,4.9,2.131,5.934,5.934,0,0,1,1.2,5.21v0a38.191,38.191,0,0,0-.6,15.285l.723,4.418a8.364,8.364,0,0,1,.1.963c.062,2.364-.089,11.345-6.406,13.037" transform="translate(30.82 8.681)" fill="#fff" fill-rule="evenodd"/>
      <path id="Path_1750" data-name="Path 1750" d="M46.158-27.634l1.674-9.6A4.487,4.487,0,0,1,52-40.948l.407-.023A4.835,4.835,0,0,1,56.4-39.234a4.836,4.836,0,0,1,.977,4.245v0a39.29,39.29,0,0,0-.62,15.725l.723,4.418a7.263,7.263,0,0,1,.088.837,19.709,19.709,0,0,1-1.312,7.9,6.581,6.581,0,0,1-4.281,4.021A1.1,1.1,0,0,0,51.2-.736a1.1,1.1,0,0,0,1.346.777,8.715,8.715,0,0,0,5.723-5.257,22.22,22.22,0,0,0,1.5-8.87,9.483,9.483,0,0,0-.116-1.113l-.723-4.417a37.1,37.1,0,0,1,.585-14.846v0a7.033,7.033,0,0,0-1.421-6.175,7.033,7.033,0,0,0-5.811-2.526l-.407.023a6.685,6.685,0,0,0-6.2,5.526l-1.674,9.6a1.1,1.1,0,0,0,.894,1.271A1.1,1.1,0,0,0,46.158-27.634Z" transform="translate(30.371 8.232)" fill="#bcc2d4" fill-rule="evenodd"/>
      <path id="Path_1751" data-name="Path 1751" d="M43.5-27.691,38.508-46.306a6.435,6.435,0,0,0-7.881-4.55h0a6.435,6.435,0,0,0-3.907,3,6.435,6.435,0,0,0-.643,4.883l6.211,23.181" transform="translate(17.857 2.776)" fill="#fff" fill-rule="evenodd"/>
      <path id="Path_1752" data-name="Path 1752" d="M45.006-27.527,40.018-46.142a7.533,7.533,0,0,0-9.227-5.327h0a7.533,7.533,0,0,0-4.575,3.51,7.533,7.533,0,0,0-.753,5.717l6.211,23.181a1.1,1.1,0,0,0,1.346.777A1.1,1.1,0,0,0,33.8-19.63L27.586-42.81a5.336,5.336,0,0,1,.533-4.049,5.335,5.335,0,0,1,3.24-2.486h0A5.336,5.336,0,0,1,37.9-45.573l4.988,18.615a1.1,1.1,0,0,0,1.346.777A1.1,1.1,0,0,0,45.006-27.527Z" transform="translate(17.408 2.327)" fill="#bcc2d4" fill-rule="evenodd"/>
      <path id="Path_1753" data-name="Path 1753" d="M49.686-24.881,43.312-48.67a6.435,6.435,0,0,0-3-3.907,6.434,6.434,0,0,0-4.883-.643h0a6.434,6.434,0,0,0-3.907,3,6.434,6.434,0,0,0-.643,4.883L37.5-20.632" transform="translate(21.175 1.145)" fill="#fff" fill-rule="evenodd"/>
      <path id="Path_1754" data-name="Path 1754" d="M51.2-24.717,44.822-48.505a7.534,7.534,0,0,0-3.51-4.574,7.534,7.534,0,0,0-5.717-.753h0a7.534,7.534,0,0,0-4.574,3.51,7.534,7.534,0,0,0-.753,5.717L36.888-19.9a1.1,1.1,0,0,0,1.346.777,1.1,1.1,0,0,0,.777-1.346L32.39-45.174a5.336,5.336,0,0,1,.533-4.049,5.336,5.336,0,0,1,3.24-2.486h0a5.336,5.336,0,0,1,4.049.533,5.336,5.336,0,0,1,2.486,3.24l6.374,23.788a1.1,1.1,0,0,0,1.346.777A1.1,1.1,0,0,0,51.2-24.717Z" transform="translate(20.726 0.696)" fill="#bcc2d4" fill-rule="evenodd"/>
      <path id="Path_1755" data-name="Path 1755" d="M57.443-16.519,49.838-44.9a6.434,6.434,0,0,0-3-3.907,6.435,6.435,0,0,0-4.883-.643h0a6.435,6.435,0,0,0-3.907,3,6.435,6.435,0,0,0-.643,4.883l4.288,16" transform="translate(25.682 3.747)" fill="#fff" fill-rule="evenodd"/>
      <path id="Path_1756" data-name="Path 1756" d="M58.953-16.355,51.348-44.737a7.533,7.533,0,0,0-3.51-4.574,7.533,7.533,0,0,0-5.717-.752h0a7.533,7.533,0,0,0-4.574,3.51,7.533,7.533,0,0,0-.752,5.717l4.288,16a1.1,1.1,0,0,0,1.346.777,1.1,1.1,0,0,0,.777-1.346l-4.288-16a5.335,5.335,0,0,1,.533-4.049,5.335,5.335,0,0,1,3.24-2.486h0a5.335,5.335,0,0,1,4.049.533,5.336,5.336,0,0,1,2.486,3.24l7.605,28.382a1.1,1.1,0,0,0,1.346.777A1.1,1.1,0,0,0,58.953-16.355Z" transform="translate(25.233 3.298)" fill="#bcc2d4" fill-rule="evenodd"/>
      <path id="Path_1757" data-name="Path 1757" d="M42.076-5.325c-5.084-1.031-8.905-4.621-11.65-8.689a45.484,45.484,0,0,1-5.889-13.639,1.1,1.1,0,0,1,.831-1.313,1.1,1.1,0,0,1,1.313.831,43,43,0,0,0,5.567,12.892c2.577,3.819,6.169,7.244,11.091,7.9a1.1,1.1,0,0,1,.952,1.061S44.6,7.155,33.932,12.842A1.1,1.1,0,1,1,32.9,10.9C40.862,6.658,41.938-2.44,42.076-5.325Z" transform="translate(16.927 18.027)" fill="#bcc2d4" fill-rule="evenodd"/>
      <path id="Path_1758" data-name="Path 1758" d="M68.429-14.993S68.119-1.56,78.788,4.127a1.1,1.1,0,0,0,1.034-1.939c-9.536-5.083-9.2-17.124-9.2-17.124a1.1,1.1,0,0,0-1.07-1.127A1.1,1.1,0,0,0,68.429-14.993Z" transform="translate(47.258 26.957)" fill="#bcc2d4" fill-rule="evenodd"/>
      <path id="Path_1759" data-name="Path 1759" d="M52.24-17.476c1.032,3.74.6,9.3-1.039,14.68S46.7,7.8,42.741,10.81a1.1,1.1,0,1,0,1.332,1.748c4.289-3.267,7.45-8.883,9.23-14.713s2.174-11.855,1.056-15.907a1.1,1.1,0,0,0-1.352-.767A1.1,1.1,0,0,0,52.24-17.476Z" transform="translate(29.219 25.02)" fill="#bcc2d4" fill-rule="evenodd"/>
      <path id="Path_1760" data-name="Path 1760" d="M55.859-18.061C54.74-14.01,55.135-7.983,56.914-2.155s4.941,11.447,9.23,14.713a1.1,1.1,0,0,0,1.332-1.748C63.519,7.8,60.658,2.582,59.016-2.8s-2.071-10.94-1.039-14.68a1.1,1.1,0,0,0-.767-1.352A1.1,1.1,0,0,0,55.859-18.061Z" transform="translate(38.145 25.02)" fill="#bcc2d4" fill-rule="evenodd"/>
      <path id="Path_1761" data-name="Path 1761" d="M26.691-38.375H1.268A1.269,1.269,0,0,0,0-37.107a1.269,1.269,0,0,0,1.268,1.268H26.691a1.269,1.269,0,0,0,1.268-1.268A1.268,1.268,0,0,0,26.691-38.375Z" transform="translate(0 11.548)" fill="#4eb7a1" fill-rule="evenodd"/>
      <path id="Path_1762" data-name="Path 1762" d="M18.088-32.141H13.725a1.269,1.269,0,0,0-1.268,1.268A1.269,1.269,0,0,0,13.725-29.6h4.363a1.269,1.269,0,0,0,1.268-1.268A1.268,1.268,0,0,0,18.088-32.141Z" transform="translate(8.603 15.854)" fill="#4eb7a1" fill-rule="evenodd"/>
      <path id="Path_1763" data-name="Path 1763" d="M18.875-25.7H12.586a1.269,1.269,0,0,0-1.268,1.268,1.269,1.269,0,0,0,1.268,1.268h6.289a1.269,1.269,0,0,0,1.268-1.268A1.269,1.269,0,0,0,18.875-25.7Z" transform="translate(7.816 20.304)" fill="#4eb7a1" fill-rule="evenodd"/>
      <path id="Path_1764" data-name="Path 1764" d="M16.448-32.141H4a1.268,1.268,0,0,0-1.268,1.268A1.269,1.269,0,0,0,4-29.6H16.448a1.269,1.269,0,0,0,1.268-1.268A1.269,1.269,0,0,0,16.448-32.141Z" transform="translate(1.886 15.854)" fill="#4eb7a1" fill-rule="evenodd"/>
      <path id="Path_1765" data-name="Path 1765" d="M15.1-25.7H2.618A1.269,1.269,0,0,0,1.35-24.429a1.269,1.269,0,0,0,1.268,1.268H15.1a1.269,1.269,0,0,0,1.268-1.268A1.269,1.269,0,0,0,15.1-25.7Z" transform="translate(0.933 20.304)" fill="#4eb7a1" fill-rule="evenodd"/>
      <path id="Path_1766" data-name="Path 1766" d="M87.764-35.839h25.423a1.269,1.269,0,0,0,1.268-1.268,1.268,1.268,0,0,0-1.268-1.268H87.764A1.268,1.268,0,0,0,86.5-37.107,1.269,1.269,0,0,0,87.764-35.839Z" transform="translate(59.737 11.548)" fill="#4eb7a1" fill-rule="evenodd"/>
      <path id="Path_1767" data-name="Path 1767" d="M87.764-29.6h4.363a1.269,1.269,0,0,0,1.268-1.268,1.269,1.269,0,0,0-1.268-1.268H87.764A1.268,1.268,0,0,0,86.5-30.873,1.269,1.269,0,0,0,87.764-29.6Z" transform="translate(59.737 15.854)" fill="#4eb7a1" fill-rule="evenodd"/>
      <path id="Path_1768" data-name="Path 1768" d="M87.764-23.161h6.289a1.269,1.269,0,0,0,1.268-1.268A1.269,1.269,0,0,0,94.053-25.7H87.764A1.269,1.269,0,0,0,86.5-24.429,1.269,1.269,0,0,0,87.764-23.161Z" transform="translate(59.737 20.304)" fill="#4eb7a1" fill-rule="evenodd"/>
      <path id="Path_1769" data-name="Path 1769" d="M92.708-29.6h12.448a1.269,1.269,0,0,0,1.268-1.268,1.269,1.269,0,0,0-1.268-1.268H92.708a1.269,1.269,0,0,0-1.268,1.268A1.269,1.269,0,0,0,92.708-29.6Z" transform="translate(63.151 15.854)" fill="#4eb7a1" fill-rule="evenodd"/>
      <path id="Path_1770" data-name="Path 1770" d="M94.068-23.161H106.55a1.269,1.269,0,0,0,1.268-1.268A1.269,1.269,0,0,0,106.55-25.7H94.068A1.269,1.269,0,0,0,92.8-24.429,1.269,1.269,0,0,0,94.068-23.161Z" transform="translate(64.09 20.304)" fill="#4eb7a1" fill-rule="evenodd"/>
    </g>
  </g>
</svg>
