<svg xmlns="http://www.w3.org/2000/svg" width="26.992" height="20.244" viewBox="0 0 26.992 20.244">
  <path id="Icon_metro-profile" data-name="Icon metro-profile" d="M29.563,9.6l-1.888,1V7.772l-3.9-.06L23.8,10.6H12.09l.08-2.892-3.816.06v2.892L6.427,10.6A1.929,1.929,0,0,0,4.5,12.532v13.5a1.929,1.929,0,0,0,1.928,1.928H29.563a1.929,1.929,0,0,0,1.928-1.928v-13.5C31.491,11.468,30.627,9.6,29.563,9.6Zm-4.82-.928h1.928v3.856H24.743ZM12.211,15.243c1.165,0,2.109,1.241,2.109,2.772s-.945,2.772-2.109,2.772S10.1,19.545,10.1,18.015s.945-2.772,2.109-2.772ZM9.319,8.676h1.928v3.856H9.319ZM8.034,24.05s.228-1.834.748-2.18a7.393,7.393,0,0,1,2.015-.576s.97,1.036,1.382,1.036,1.381-1.036,1.381-1.036a7.371,7.371,0,0,1,2.016.576c.61.407.763,2.18.763,2.18H8.034Zm19.6-.914H18.959v-.964h8.676Zm0-1.928H18.959v-.964h8.676Zm0-1.928H18.959v-.964h8.676Zm0-1.928H18.959v-.964h8.676Z" transform="translate(-4.499 -7.712)" fill="#fff"/>
</svg>
