<svg xmlns="http://www.w3.org/2000/svg" width="24.277" height="24.744" viewBox="0 0 24.277 24.744">
  <g id="Icon_feather-alert-circle" data-name="Icon feather-alert-circle" transform="translate(-1.8 -1.8)">
    <path id="Path_2508" data-name="Path 2508" d="M24.877,14.172A11.057,11.057,0,0,1,13.939,25.344,11.057,11.057,0,0,1,3,14.172,11.057,11.057,0,0,1,13.939,3,11.057,11.057,0,0,1,24.877,14.172Z" transform="translate(0 0)" fill="none" stroke="#e66370" stroke-linecap="round" stroke-linejoin="round" stroke-width="2.4"/>
    <path id="Path_2509" data-name="Path 2509" d="M18,17.909a1.2,1.2,0,0,1-1.2-1.2V12a1.2,1.2,0,0,1,2.4,0v4.709A1.2,1.2,0,0,1,18,17.909Z" transform="translate(-4.061 -2.537)" fill="#e66370"/>
    <path id="Path_2510" data-name="Path 2510" d="M18,24h0" transform="translate(-4.061 -5.359)" fill="none" stroke="#e66370" stroke-linecap="round" stroke-linejoin="round" stroke-width="2.4"/>
  </g>
</svg>
