<svg xmlns="http://www.w3.org/2000/svg" width="98.867" height="82.439" viewBox="0 0 98.867 82.439"><defs><style>.a{fill:#cb4477;}</style></defs><g transform="translate(-2 -12)"><path class="a" d="M12.943,34.475h9.885a4.943,4.943,0,0,0,4.943-4.943v-6.59A4.943,4.943,0,0,0,22.828,18H12.943A4.943,4.943,0,0,0,8,22.943v6.59a4.943,4.943,0,0,0,4.943,4.943Zm9.885-3.3H21.18v-3.3h3.3v1.648A1.648,1.648,0,0,1,22.828,31.18Zm1.648-8.238V24.59h-3.3V21.3h1.648A1.648,1.648,0,0,1,24.475,22.943Zm-13.18,0A1.648,1.648,0,0,1,12.943,21.3h4.943V31.18H12.943A1.648,1.648,0,0,1,11.3,29.533Z" transform="translate(3.885 3.885)"/><path class="a" d="M36,20h3.3v6.59H36Z" transform="translate(22.016 5.18)"/><path class="a" d="M40,20h3.3v6.59H40Z" transform="translate(24.607 5.18)"/><path class="a" d="M44,20h3.3v6.59H44Z" transform="translate(27.197 5.18)"/><path class="a" d="M26.123,36a8.218,8.218,0,0,0-4.961,1.674,8.238,8.238,0,1,0,0,13.128A8.238,8.238,0,1,0,26.123,36ZM16.238,49.18a4.943,4.943,0,1,1,4.943-4.943A4.943,4.943,0,0,1,16.238,49.18Zm9.885,0a4.91,4.91,0,0,1-2.768-.873,7.951,7.951,0,0,0,0-8.139,4.934,4.934,0,1,1,2.768,9.012Z" transform="translate(3.885 15.541)"/><path class="a" d="M26,30h6.59v3.3H26Z" transform="translate(15.541 11.656)"/><path class="a" d="M34,30h6.59v3.3H34Z" transform="translate(20.721 11.656)"/><path class="a" d="M42,30h6.59v3.3H42Z" transform="translate(25.902 11.656)"/><path class="a" d="M50,30h6.59v3.3H50Z" transform="translate(31.082 11.656)"/><path class="a" d="M97.557,65.875V20.238A8.248,8.248,0,0,0,89.32,12H10.238A8.248,8.248,0,0,0,2,20.238V69.664A8.248,8.248,0,0,0,10.238,77.9H64.691A18.123,18.123,0,1,0,97.557,65.875ZM5.3,69.664V20.238A4.943,4.943,0,0,1,10.238,15.3H89.32a4.943,4.943,0,0,1,4.943,4.943V62.285A18.106,18.106,0,0,0,64.691,74.607H10.238A4.943,4.943,0,0,1,5.3,69.664ZM82.73,91.082A14.828,14.828,0,1,1,97.557,76.254,14.828,14.828,0,0,1,82.73,91.082Z" transform="translate(0 0)"/><path class="a" d="M59.305,47.654a1.648,1.648,0,0,0-2.33,0l-3.5,3.5-3.5-3.5a1.647,1.647,0,1,0-2.33,2.33l3.5,3.5-3.5,3.5a1.647,1.647,0,1,0,2.33,2.33l3.5-3.5,3.5,3.5a1.647,1.647,0,1,0,2.33-2.33l-3.5-3.5,3.5-3.5A1.648,1.648,0,0,0,59.305,47.654Z" transform="translate(29.25 22.775)"/><path class="a" d="M48,20h3.3v6.59H48Z" transform="translate(29.787 5.18)"/><path class="a" d="M52,20h3.3v6.59H52Z" transform="translate(32.377 5.18)"/><path class="a" d="M46.123,38H29.648A1.648,1.648,0,0,0,28,39.648v6.59a1.648,1.648,0,0,0,1.648,1.648H46.123a1.648,1.648,0,0,0,1.648-1.648v-6.59A1.648,1.648,0,0,0,46.123,38Zm-1.648,6.59H31.3V41.3h13.18Z" transform="translate(16.836 16.836)"/><path class="a" d="M32,20h3.3v6.59H32Z" transform="translate(19.426 5.18)"/></g></svg>