<svg xmlns="http://www.w3.org/2000/svg" width="92.25" height="102.5" viewBox="0 0 92.25 102.5"><defs><style>.a{fill:#5db98f;}</style></defs><g transform="translate(-3)"><path class="a" d="M48.042,18.25a10.25,10.25,0,1,0-20.5,0v1.708a1.708,1.708,0,1,0,3.417,0V18.25a6.833,6.833,0,1,1,13.667,0V30.208H19V62.667H56.583V30.208H48.042Zm5.125,41H22.417V33.625h30.75Z" transform="translate(11.333 5.667)"/><path class="a" d="M32.833,25a6.819,6.819,0,0,0-1.708,13.424v3.659a1.708,1.708,0,0,0,3.417,0V38.424A6.819,6.819,0,0,0,32.833,25Zm0,10.25a3.417,3.417,0,1,1,3.417-3.417A3.42,3.42,0,0,1,32.833,35.25Z" transform="translate(16.292 17.708)"/><path class="a" d="M49.125,0A46.12,46.12,0,0,0,45.18,92.071l-7.513,7.513A1.708,1.708,0,1,0,40.083,102L50.331,91.751a1.692,1.692,0,0,0,.371-.557,1.713,1.713,0,0,0-.371-1.862L40.083,79.084A1.708,1.708,0,1,0,37.667,81.5l7.114,7.114A42.71,42.71,0,1,1,79.468,76.18,1.709,1.709,0,1,0,81.9,78.585,46.126,46.126,0,0,0,49.125,0Z"/></g></svg>