<svg xmlns="http://www.w3.org/2000/svg" width="88.77" height="55.519" viewBox="0 0 88.77 55.519">
  <g id="Group_1866" data-name="Group 1866" transform="translate(-1938.476 -906.047)">
    <path id="Path_1360" data-name="Path 1360" d="M4165.574-315.591" transform="translate(-2154.01 1261.792)" fill="#f2f5fc" stroke="#838eaa" stroke-linecap="round" stroke-linejoin="round" stroke-width="17"/>
    <g id="Group_1841" data-name="Group 1841" transform="translate(1948.127 912.044)">
      <g id="Group_1838" data-name="Group 1838" transform="translate(0)">
        <g id="Group_1807" data-name="Group 1807" transform="translate(9.836)">
          <g id="Group_1796" data-name="Group 1796">
            <g id="Group_1793" data-name="Group 1793">
              <g id="Group_1792" data-name="Group 1792">
                <path id="Path_1374" data-name="Path 1374" d="M3853.291-757.214h-4.766a.762.762,0,0,1-.762-.762.762.762,0,0,1,.762-.762h4.766a1.382,1.382,0,0,0,1.381-1.38v-7.907a7.824,7.824,0,0,1-4.821-2.467,7.826,7.826,0,0,1-2.084-5.326,7.826,7.826,0,0,1,2.084-5.326,7.824,7.824,0,0,1,4.821-2.467v-7.907a1.382,1.382,0,0,0-1.381-1.38h-55.372a1.382,1.382,0,0,0-1.38,1.38v1.033a.762.762,0,0,1-.762.762.762.762,0,0,1-.762-.762v-1.033a2.908,2.908,0,0,1,2.9-2.9h55.372a2.908,2.908,0,0,1,2.9,2.9v8.183a1.224,1.224,0,0,1-1.115,1.213,6.3,6.3,0,0,0-4.111,2.011,6.307,6.307,0,0,0-1.679,4.292,6.307,6.307,0,0,0,1.679,4.292,6.3,6.3,0,0,0,4.111,2.011,1.224,1.224,0,0,1,1.115,1.213v8.183A2.908,2.908,0,0,1,3853.291-757.214Z" transform="translate(-3795.015 794.422)" fill="#838eaa"/>
              </g>
            </g>
            <g id="Group_1795" data-name="Group 1795" transform="translate(0 10.777)">
              <g id="Group_1794" data-name="Group 1794">
                <path id="Path_1375" data-name="Path 1375" d="M3797.919-612.382a2.908,2.908,0,0,1-2.9-2.9v-8.181a1.223,1.223,0,0,1,1.12-1.214,6.3,6.3,0,0,0,4.129-2,6.3,6.3,0,0,0,1.688-4.3,6.3,6.3,0,0,0-1.688-4.3,6.3,6.3,0,0,0-4.129-2,.762.762,0,0,1-.7-.82.762.762,0,0,1,.82-.7,7.823,7.823,0,0,1,5.125,2.486,7.823,7.823,0,0,1,2.094,5.338,7.823,7.823,0,0,1-2.094,5.338,7.823,7.823,0,0,1-4.843,2.459v7.9a1.382,1.382,0,0,0,1.38,1.38.762.762,0,0,1,.762.762A.762.762,0,0,1,3797.919-612.382Z" transform="translate(-3795.015 638.812)" fill="#838eaa"/>
              </g>
            </g>
          </g>
          <g id="Group_1798" data-name="Group 1798" transform="translate(13.267 0.244)">
            <g id="Group_1797" data-name="Group 1797">
              <path id="Path_1376" data-name="Path 1376" d="M3987.337-786.524a.762.762,0,0,1-.762-.762v-2.851a.762.762,0,0,1,.762-.762.762.762,0,0,1,.762.762v2.851A.762.762,0,0,1,3987.337-786.524Z" transform="translate(-3986.575 790.899)" fill="#838eaa"/>
            </g>
          </g>
          <g id="Group_1800" data-name="Group 1800" transform="translate(13.267 7.901)">
            <g id="Group_1799" data-name="Group 1799">
              <path id="Path_1377" data-name="Path 1377" d="M3987.337-674.211a.762.762,0,0,1-.762-.762v-4.605a.762.762,0,0,1,.762-.762.762.762,0,0,1,.762.762v4.605A.762.762,0,0,1,3987.337-674.211Z" transform="translate(-3986.575 680.34)" fill="#838eaa"/>
            </g>
          </g>
          <g id="Group_1802" data-name="Group 1802" transform="translate(13.267 15.558)">
            <g id="Group_1801" data-name="Group 1801">
              <path id="Path_1378" data-name="Path 1378" d="M3987.337-563.651a.762.762,0,0,1-.762-.762v-4.605a.762.762,0,0,1,.762-.762.762.762,0,0,1,.762.762v4.605A.762.762,0,0,1,3987.337-563.651Z" transform="translate(-3986.575 569.78)" fill="#838eaa"/>
            </g>
          </g>
          <g id="Group_1804" data-name="Group 1804" transform="translate(13.267 23.216)">
            <g id="Group_1803" data-name="Group 1803">
              <path id="Path_1379" data-name="Path 1379" d="M3987.337-453.092a.762.762,0,0,1-.762-.762v-4.605a.762.762,0,0,1,.762-.762.762.762,0,0,1,.762.762v4.605A.762.762,0,0,1,3987.337-453.092Z" transform="translate(-3986.575 459.221)" fill="#838eaa"/>
            </g>
          </g>
          <g id="Group_1806" data-name="Group 1806" transform="translate(13.267 30.873)">
            <g id="Group_1805" data-name="Group 1805" transform="translate(0 0)">
              <path id="Path_1380" data-name="Path 1380" d="M3987.337-342.533a.762.762,0,0,1-.762-.762V-347.9a.762.762,0,0,1,.762-.762.762.762,0,0,1,.762.762v4.605A.762.762,0,0,1,3987.337-342.533Z" transform="translate(-3986.575 348.662)" fill="#838eaa"/>
            </g>
          </g>
        </g>
        <g id="Group_1827" data-name="Group 1827" transform="translate(0 5.917)">
          <g id="Group_1811" data-name="Group 1811">
            <g id="Group_1810" data-name="Group 1810">
              <g id="Group_1808" data-name="Group 1808" transform="translate(0.762 0.762)">
                <path id="Path_1381" data-name="Path 1381" d="M3716.749-680.154a7.088,7.088,0,0,1,6.488-7.062.455.455,0,0,0,.417-.454v-8.183a2.142,2.142,0,0,0-2.143-2.142h-55.372a2.142,2.142,0,0,0-2.142,2.142v8.181a.455.455,0,0,0,.418.454,7.088,7.088,0,0,1,6.518,7.065,7.088,7.088,0,0,1-6.518,7.065.455.455,0,0,0-.418.454v8.181a2.142,2.142,0,0,0,2.142,2.142h55.372a2.142,2.142,0,0,0,2.143-2.142v-8.184a.455.455,0,0,0-.417-.454A7.088,7.088,0,0,1,3716.749-680.154Z" transform="translate(-3663.997 697.996)" fill="#f2f5fc"/>
              </g>
              <g id="Group_1809" data-name="Group 1809">
                <path id="Path_1382" data-name="Path 1382" d="M3711.274-671.788H3655.9a2.907,2.907,0,0,1-2.9-2.9v-8.181a1.223,1.223,0,0,1,1.12-1.214,6.3,6.3,0,0,0,4.129-2,6.3,6.3,0,0,0,1.688-4.3,6.3,6.3,0,0,0-1.688-4.3,6.3,6.3,0,0,0-4.129-2,1.223,1.223,0,0,1-1.12-1.214v-8.181a2.907,2.907,0,0,1,2.9-2.9h55.372a2.907,2.907,0,0,1,2.9,2.9v8.183a1.224,1.224,0,0,1-1.115,1.213,6.3,6.3,0,0,0-4.111,2.011,6.3,6.3,0,0,0-1.679,4.292,6.3,6.3,0,0,0,1.679,4.292,6.3,6.3,0,0,0,4.111,2.011,1.224,1.224,0,0,1,1.115,1.213v8.183A2.907,2.907,0,0,1,3711.274-671.788ZM3654.521-682.6v7.9a1.382,1.382,0,0,0,1.381,1.38h55.372a1.382,1.382,0,0,0,1.38-1.38V-682.6a7.823,7.823,0,0,1-4.821-2.467,7.825,7.825,0,0,1-2.084-5.326,7.825,7.825,0,0,1,2.084-5.326,7.823,7.823,0,0,1,4.821-2.467v-7.907a1.382,1.382,0,0,0-1.38-1.38H3655.9a1.382,1.382,0,0,0-1.381,1.38v7.9a7.823,7.823,0,0,1,4.842,2.459,7.824,7.824,0,0,1,2.094,5.338,7.824,7.824,0,0,1-2.094,5.338A7.823,7.823,0,0,1,3654.521-682.6Zm58.415.025h0Z" transform="translate(-3652.998 708.996)" fill="#838eaa"/>
              </g>
            </g>
          </g>
          <g id="Group_1814" data-name="Group 1814" transform="translate(13.267 0.244)">
            <g id="Group_1812" data-name="Group 1812" transform="translate(0.762 0.762)">
              <line id="Line_11" data-name="Line 11" y2="4.605" fill="#fff"/>
            </g>
            <g id="Group_1813" data-name="Group 1813">
              <path id="Path_1383" data-name="Path 1383" d="M3845.318-699.344a.762.762,0,0,1-.762-.762v-4.605a.762.762,0,0,1,.762-.762.762.762,0,0,1,.762.762v4.605A.762.762,0,0,1,3845.318-699.344Z" transform="translate(-3844.556 705.473)" fill="#838eaa"/>
            </g>
          </g>
          <g id="Group_1817" data-name="Group 1817" transform="translate(13.267 7.901)">
            <g id="Group_1815" data-name="Group 1815" transform="translate(0.762 0.762)">
              <line id="Line_12" data-name="Line 12" y2="4.605" fill="#fff"/>
            </g>
            <g id="Group_1816" data-name="Group 1816">
              <path id="Path_1384" data-name="Path 1384" d="M3845.318-588.784a.762.762,0,0,1-.762-.762v-4.605a.762.762,0,0,1,.762-.762.762.762,0,0,1,.762.762v4.605A.762.762,0,0,1,3845.318-588.784Z" transform="translate(-3844.556 594.913)" fill="#838eaa"/>
            </g>
          </g>
          <g id="Group_1820" data-name="Group 1820" transform="translate(13.267 15.558)">
            <g id="Group_1818" data-name="Group 1818" transform="translate(0.762 0.762)">
              <line id="Line_13" data-name="Line 13" y2="4.605" fill="#fff"/>
            </g>
            <g id="Group_1819" data-name="Group 1819">
              <path id="Path_1385" data-name="Path 1385" d="M3845.318-478.225a.762.762,0,0,1-.762-.762v-4.605a.762.762,0,0,1,.762-.762.762.762,0,0,1,.762.762v4.605A.762.762,0,0,1,3845.318-478.225Z" transform="translate(-3844.556 484.354)" fill="#838eaa"/>
            </g>
          </g>
          <g id="Group_1823" data-name="Group 1823" transform="translate(13.267 23.216)">
            <g id="Group_1821" data-name="Group 1821" transform="translate(0.762 0.762)">
              <line id="Line_14" data-name="Line 14" y2="4.605" fill="#fff"/>
            </g>
            <g id="Group_1822" data-name="Group 1822">
              <path id="Path_1386" data-name="Path 1386" d="M3845.318-367.666a.762.762,0,0,1-.762-.762v-4.605a.762.762,0,0,1,.762-.762.762.762,0,0,1,.762.762v4.605A.762.762,0,0,1,3845.318-367.666Z" transform="translate(-3844.556 373.795)" fill="#838eaa"/>
            </g>
          </g>
          <g id="Group_1826" data-name="Group 1826" transform="translate(13.267 30.873)">
            <g id="Group_1824" data-name="Group 1824" transform="translate(0.762 0.762)">
              <line id="Line_15" data-name="Line 15" y2="4.605" fill="#fff"/>
            </g>
            <g id="Group_1825" data-name="Group 1825">
              <path id="Path_1387" data-name="Path 1387" d="M3845.318-257.106a.762.762,0,0,1-.762-.762v-4.605a.762.762,0,0,1,.762-.762.762.762,0,0,1,.762.762v4.605A.762.762,0,0,1,3845.318-257.106Z" transform="translate(-3844.556 263.235)" fill="#838eaa"/>
            </g>
          </g>
        </g>
        <g id="Group_1837" data-name="Group 1837" transform="translate(24.984 17.428)">
          <g id="Group_1829" data-name="Group 1829" transform="translate(0.362 7.298)">
            <g id="Group_1828" data-name="Group 1828">
              <path id="Path_1388" data-name="Path 1388" d="M4036.681-429.791a.762.762,0,0,1-.722-.52,8.177,8.177,0,0,0-7.76-5.577,8.179,8.179,0,0,0-7.756,5.564.762.762,0,0,1-.966.478.762.762,0,0,1-.478-.966,9.7,9.7,0,0,1,9.2-6.6,9.7,9.7,0,0,1,9.2,6.616.762.762,0,0,1-.48.965A.759.759,0,0,1,4036.681-429.791Z" transform="translate(-4018.959 437.412)" fill="#838eaa"/>
            </g>
          </g>
          <g id="Group_1836" data-name="Group 1836">
            <g id="Group_1832" data-name="Group 1832">
              <g id="Group_1830" data-name="Group 1830" transform="translate(0.028 0.028)">
                <circle id="Ellipse_371" data-name="Ellipse 371" cx="2.039" cy="2.039" r="2.039" fill="#838eaa"/>
              </g>
              <g id="Group_1831" data-name="Group 1831">
                <path id="Path_1389" data-name="Path 1389" d="M4015.8-538.648a2.069,2.069,0,0,1-2.067-2.067,2.069,2.069,0,0,1,2.067-2.067,2.069,2.069,0,0,1,2.067,2.067A2.069,2.069,0,0,1,4015.8-538.648Zm0-4.078a2.013,2.013,0,0,0-2.011,2.011,2.013,2.013,0,0,0,2.011,2.011,2.013,2.013,0,0,0,2.011-2.011A2.013,2.013,0,0,0,4015.8-542.726Z" transform="translate(-4013.731 542.782)" fill="#838eaa"/>
              </g>
            </g>
            <g id="Group_1835" data-name="Group 1835" transform="translate(15.075)">
              <g id="Group_1833" data-name="Group 1833" transform="translate(0.028 0.028)">
                <circle id="Ellipse_372" data-name="Ellipse 372" cx="2.039" cy="2.039" r="2.039" fill="#838eaa"/>
              </g>
              <g id="Group_1834" data-name="Group 1834">
                <path id="Path_1390" data-name="Path 1390" d="M4233.462-538.648a2.069,2.069,0,0,1-2.067-2.067,2.069,2.069,0,0,1,2.067-2.067,2.069,2.069,0,0,1,2.066,2.067A2.069,2.069,0,0,1,4233.462-538.648Zm0-4.078a2.014,2.014,0,0,0-2.012,2.011,2.014,2.014,0,0,0,2.012,2.011,2.013,2.013,0,0,0,2.011-2.011A2.013,2.013,0,0,0,4233.462-542.726Z" transform="translate(-4231.396 542.782)" fill="#838eaa"/>
              </g>
            </g>
          </g>
        </g>
      </g>
      <g id="Group_1840" data-name="Group 1840" transform="translate(62.309 37.098)">
        <g id="Group_1839" data-name="Group 1839">
          <path id="Path_1391" data-name="Path 1391" d="M4552.656-258.784" transform="translate(-4552.656 258.784)" fill="#f2f5fc" stroke="#838eaa" stroke-linecap="round" stroke-linejoin="round" stroke-width="17"/>
        </g>
      </g>
    </g>
    <g id="Group_1848" data-name="Group 1848" transform="translate(2017.843 952.162)">
      <g id="Group_1844" data-name="Group 1844" transform="translate(0 3.94)">
        <g id="Group_1842" data-name="Group 1842">
          <path id="Path_1392" data-name="Path 1392" d="M4661.925-156.765h-1.572a.762.762,0,0,1-.762-.762.762.762,0,0,1,.762-.762h1.572a.762.762,0,0,1,.762.762A.762.762,0,0,1,4661.925-156.765Z" transform="translate(-4659.591 158.289)" fill="#838eaa"/>
        </g>
        <g id="Group_1843" data-name="Group 1843" transform="translate(6.308)">
          <path id="Path_1393" data-name="Path 1393" d="M4753.007-156.765h-1.572a.762.762,0,0,1-.762-.762.762.762,0,0,1,.762-.762h1.572a.762.762,0,0,1,.762.762A.762.762,0,0,1,4753.007-156.765Z" transform="translate(-4750.673 158.289)" fill="#838eaa"/>
        </g>
      </g>
      <g id="Group_1847" data-name="Group 1847" transform="translate(3.94 0)">
        <g id="Group_1845" data-name="Group 1845">
          <path id="Path_1394" data-name="Path 1394" d="M4717.243-212.082a.761.761,0,0,1-.762-.762v-1.572a.761.761,0,0,1,.762-.762.762.762,0,0,1,.762.762v1.572A.762.762,0,0,1,4717.243-212.082Z" transform="translate(-4716.481 215.178)" fill="#838eaa"/>
        </g>
        <g id="Group_1846" data-name="Group 1846" transform="translate(0 6.308)">
          <path id="Path_1395" data-name="Path 1395" d="M4717.243-121a.761.761,0,0,1-.762-.762v-1.572a.761.761,0,0,1,.762-.762.762.762,0,0,1,.762.762v1.572A.762.762,0,0,1,4717.243-121Z" transform="translate(-4716.481 124.097)" fill="#838eaa"/>
        </g>
      </g>
    </g>
    <g id="Group_1855" data-name="Group 1855" transform="translate(1938.476 906.047)">
      <g id="Group_1851" data-name="Group 1851" transform="translate(0 3.94)">
        <g id="Group_1849" data-name="Group 1849">
          <path id="Path_1396" data-name="Path 1396" d="M3515.983-822.6h-1.572a.762.762,0,0,1-.762-.762.762.762,0,0,1,.762-.762h1.572a.762.762,0,0,1,.762.762A.762.762,0,0,1,3515.983-822.6Z" transform="translate(-3513.649 824.122)" fill="#838eaa"/>
        </g>
        <g id="Group_1850" data-name="Group 1850" transform="translate(6.308)">
          <path id="Path_1397" data-name="Path 1397" d="M3607.064-822.6h-1.572a.762.762,0,0,1-.762-.762.762.762,0,0,1,.762-.762h1.572a.762.762,0,0,1,.762.762A.762.762,0,0,1,3607.064-822.6Z" transform="translate(-3604.73 824.122)" fill="#838eaa"/>
        </g>
      </g>
      <g id="Group_1854" data-name="Group 1854" transform="translate(3.94 0)">
        <g id="Group_1852" data-name="Group 1852">
          <path id="Path_1398" data-name="Path 1398" d="M3571.3-877.916a.762.762,0,0,1-.762-.762v-1.572a.762.762,0,0,1,.762-.762.762.762,0,0,1,.762.762v1.572A.762.762,0,0,1,3571.3-877.916Z" transform="translate(-3570.539 881.012)" fill="#838eaa"/>
        </g>
        <g id="Group_1853" data-name="Group 1853" transform="translate(0 6.308)">
          <path id="Path_1399" data-name="Path 1399" d="M3571.3-786.834a.762.762,0,0,1-.762-.762v-1.572a.762.762,0,0,1,.762-.762.762.762,0,0,1,.762.762v1.572A.762.762,0,0,1,3571.3-786.834Z" transform="translate(-3570.539 789.93)" fill="#838eaa"/>
        </g>
      </g>
    </g>
  </g>
</svg>
