<svg xmlns="http://www.w3.org/2000/svg" width="97.932" height="72.207" viewBox="0 0 97.932 72.207">
  <g id="Group_2086" data-name="Group 2086" transform="translate(-3317.786 -3998.162)">
    <g id="Group_2085" data-name="Group 2085" transform="translate(1330.47 -299)">
      <g id="Group_2056" data-name="Group 2056" transform="translate(2013.706 4365.977)">
        <path id="Path_1566" data-name="Path 1566" d="M6693.526,6134.149h0l-46.214-.058a.622.622,0,1,1,0-1.245h0l46.214.058a.623.623,0,0,1,0,1.245Z" transform="translate(-6646.689 -6132.846)" fill="#838eaa"/>
      </g>
      <g id="Group_2081" data-name="Group 2081">
        <g id="Group_1882" data-name="Group 1882" transform="translate(51.001 3405)">
          <path id="Path_1360" data-name="Path 1360" d="M4165.574-315.591" transform="translate(-2154.01 1261.792)" fill="#f2f5fc" stroke="#838eaa" stroke-linecap="round" stroke-linejoin="round" stroke-width="17"/>
          <g id="Group_1848" data-name="Group 1848" transform="translate(2024.843 892.162)">
            <g id="Group_1844" data-name="Group 1844" transform="translate(0 3.94)">
              <g id="Group_1842" data-name="Group 1842">
                <path id="Path_1392" data-name="Path 1392" d="M4661.925-156.765h-1.572a.762.762,0,0,1-.762-.762.762.762,0,0,1,.762-.762h1.572a.762.762,0,0,1,.762.762A.762.762,0,0,1,4661.925-156.765Z" transform="translate(-4659.591 158.289)" fill="#838eaa"/>
              </g>
              <g id="Group_1843" data-name="Group 1843" transform="translate(6.308)">
                <path id="Path_1393" data-name="Path 1393" d="M4753.007-156.765h-1.572a.762.762,0,0,1-.762-.762.762.762,0,0,1,.762-.762h1.572a.762.762,0,0,1,.762.762A.762.762,0,0,1,4753.007-156.765Z" transform="translate(-4750.673 158.289)" fill="#838eaa"/>
              </g>
            </g>
            <g id="Group_1847" data-name="Group 1847" transform="translate(3.94 0)">
              <g id="Group_1845" data-name="Group 1845">
                <path id="Path_1394" data-name="Path 1394" d="M4717.243-212.082a.761.761,0,0,1-.762-.762v-1.572a.761.761,0,0,1,.762-.762.762.762,0,0,1,.762.762v1.572A.762.762,0,0,1,4717.243-212.082Z" transform="translate(-4716.481 215.178)" fill="#838eaa"/>
              </g>
              <g id="Group_1846" data-name="Group 1846" transform="translate(0 6.308)">
                <path id="Path_1395" data-name="Path 1395" d="M4717.243-121a.761.761,0,0,1-.762-.762v-1.572a.761.761,0,0,1,.762-.762.762.762,0,0,1,.762.762v1.572A.762.762,0,0,1,4717.243-121Z" transform="translate(-4716.481 124.097)" fill="#838eaa"/>
              </g>
            </g>
          </g>
          <g id="Group_1855" data-name="Group 1855" transform="translate(1940.178 952.099) rotate(45)">
            <g id="Group_1851" data-name="Group 1851" transform="translate(0 3.94)">
              <g id="Group_1849" data-name="Group 1849">
                <path id="Path_1396" data-name="Path 1396" d="M3515.983-822.6h-1.572a.762.762,0,0,1-.762-.762.762.762,0,0,1,.762-.762h1.572a.762.762,0,0,1,.762.762A.762.762,0,0,1,3515.983-822.6Z" transform="translate(-3513.649 824.122)" fill="#838eaa"/>
              </g>
              <g id="Group_1850" data-name="Group 1850" transform="translate(6.308)">
                <path id="Path_1397" data-name="Path 1397" d="M3607.064-822.6h-1.572a.762.762,0,0,1-.762-.762.762.762,0,0,1,.762-.762h1.572a.762.762,0,0,1,.762.762A.762.762,0,0,1,3607.064-822.6Z" transform="translate(-3604.73 824.122)" fill="#838eaa"/>
              </g>
            </g>
            <g id="Group_1854" data-name="Group 1854" transform="translate(3.94 0)">
              <g id="Group_1852" data-name="Group 1852">
                <path id="Path_1398" data-name="Path 1398" d="M3571.3-877.916a.762.762,0,0,1-.762-.762v-1.572a.762.762,0,0,1,.762-.762.762.762,0,0,1,.762.762v1.572A.762.762,0,0,1,3571.3-877.916Z" transform="translate(-3570.539 881.012)" fill="#838eaa"/>
              </g>
              <g id="Group_1853" data-name="Group 1853" transform="translate(0 6.308)">
                <path id="Path_1399" data-name="Path 1399" d="M3571.3-786.834a.762.762,0,0,1-.762-.762v-1.572a.762.762,0,0,1,.762-.762.762.762,0,0,1,.762.762v1.572A.762.762,0,0,1,3571.3-786.834Z" transform="translate(-3570.539 789.93)" fill="#838eaa"/>
              </g>
            </g>
          </g>
        </g>
        <g id="Ellipse_378" data-name="Ellipse 378" transform="translate(1991.001 4303)" fill="none" stroke="#838eaa" stroke-width="1">
          <circle cx="3" cy="3" r="3" stroke="none"/>
          <circle cx="3" cy="3" r="2.5" fill="none"/>
        </g>
        <g id="Ellipse_383" data-name="Ellipse 383" transform="translate(2078.001 4357)" fill="none" stroke="#838eaa" stroke-width="1">
          <circle cx="3" cy="3" r="3" stroke="none"/>
          <circle cx="3" cy="3" r="2.5" fill="none"/>
        </g>
        <g id="Group_2055" data-name="Group 2055" transform="translate(2036.813 4359.766)">
          <path id="Path_1565" data-name="Path 1565" d="M6962.974,6055.68a.623.623,0,0,1-.623-.623v-6.434a.622.622,0,0,1,1.245,0v6.434A.622.622,0,0,1,6962.974,6055.68Z" transform="translate(-6962.351 -6048.002)" fill="#838eaa"/>
        </g>
        <g id="Group_2060" data-name="Group 2060" transform="translate(2045.232 4331.462)">
          <g id="Group_2059" data-name="Group 2059">
            <path id="Path_1568" data-name="Path 1568" d="M7087.538,5666.02a.624.624,0,0,1-.59-.424,4.417,4.417,0,0,0-8.37-.008.622.622,0,1,1-1.179-.4,5.662,5.662,0,0,1,10.729.009.624.624,0,0,1-.591.821Z" transform="translate(-7077.366 -5661.342)" fill="#838eaa"/>
          </g>
        </g>
        <g id="Group_2061" data-name="Group 2061" transform="translate(2008 4325.831)">
          <path id="Path_1569" data-name="Path 1569" d="M6625.2,5600.334h-54.024a2.426,2.426,0,0,1-2.423-2.423v-11.074a2.425,2.425,0,0,1,2.423-2.423H6625.2a2.425,2.425,0,0,1,2.423,2.423v11.074A2.426,2.426,0,0,1,6625.2,5600.334Zm-54.024-14.675a1.18,1.18,0,0,0-1.179,1.178v11.074a1.18,1.18,0,0,0,1.179,1.179H6625.2a1.18,1.18,0,0,0,1.178-1.179v-11.074a1.18,1.18,0,0,0-1.178-1.178Z" transform="translate(-6568.748 -5584.415)" fill="#838eaa"/>
        </g>
        <g id="Group_2062" data-name="Group 2062" transform="translate(2013.619 4330.577)">
          <path id="Path_1570" data-name="Path 1570" d="M6646.347,5655.7a.842.842,0,0,1-.842-.842V5650.1a.842.842,0,0,1,1.684,0v4.763A.842.842,0,0,1,6646.347,5655.7Z" transform="translate(-6645.505 -5649.257)" fill="#838eaa"/>
        </g>
        <g id="Group_2063" data-name="Group 2063" transform="translate(2018.228 4330.577)">
          <path id="Path_1571" data-name="Path 1571" d="M6709.313,5655.7a.842.842,0,0,1-.842-.842V5650.1a.842.842,0,0,1,1.684,0v4.763A.842.842,0,0,1,6709.313,5655.7Z" transform="translate(-6708.471 -5649.257)" fill="#838eaa"/>
        </g>
        <g id="Group_2064" data-name="Group 2064" transform="translate(2022.53 4330.577)">
          <path id="Path_1572" data-name="Path 1572" d="M6768.08,5655.7a.842.842,0,0,1-.842-.842V5650.1a.842.842,0,0,1,1.684,0v4.763A.842.842,0,0,1,6768.08,5655.7Z" transform="translate(-6767.238 -5649.257)" fill="#838eaa"/>
        </g>
        <g id="Group_2065" data-name="Group 2065" transform="translate(2027.447 4330.577)">
          <path id="Path_1573" data-name="Path 1573" d="M6835.243,5655.7a.842.842,0,0,1-.841-.842V5650.1a.842.842,0,1,1,1.683,0v4.763A.842.842,0,0,1,6835.243,5655.7Z" transform="translate(-6834.402 -5649.257)" fill="#838eaa"/>
        </g>
        <g id="Group_2067" data-name="Group 2067" transform="translate(2008 4342.931)">
          <path id="Path_1574" data-name="Path 1574" d="M6625.2,5833.938h-54.024a2.426,2.426,0,0,1-2.423-2.423v-11.073a2.426,2.426,0,0,1,2.423-2.424H6625.2a2.426,2.426,0,0,1,2.423,2.424v11.073A2.426,2.426,0,0,1,6625.2,5833.938Zm-54.024-14.676a1.181,1.181,0,0,0-1.179,1.18v11.073a1.18,1.18,0,0,0,1.179,1.178H6625.2a1.179,1.179,0,0,0,1.178-1.178v-11.073a1.181,1.181,0,0,0-1.178-1.18Z" transform="translate(-6568.748 -5818.018)" fill="#838eaa"/>
        </g>
        <g id="Group_2068" data-name="Group 2068" transform="translate(2013.619 4347.677)">
          <path id="Path_1575" data-name="Path 1575" d="M6646.347,5889.3a.841.841,0,0,1-.842-.841V5883.7a.842.842,0,1,1,1.684,0v4.763A.841.841,0,0,1,6646.347,5889.3Z" transform="translate(-6645.505 -5882.858)" fill="#838eaa"/>
        </g>
        <g id="Group_2069" data-name="Group 2069" transform="translate(2018.228 4347.677)">
          <path id="Path_1576" data-name="Path 1576" d="M6709.313,5889.3a.841.841,0,0,1-.842-.841V5883.7a.842.842,0,1,1,1.684,0v4.763A.841.841,0,0,1,6709.313,5889.3Z" transform="translate(-6708.471 -5882.858)" fill="#838eaa"/>
        </g>
        <g id="Group_2070" data-name="Group 2070" transform="translate(2022.53 4347.677)">
          <path id="Path_1577" data-name="Path 1577" d="M6768.08,5889.3a.841.841,0,0,1-.842-.841V5883.7a.842.842,0,1,1,1.684,0v4.763A.841.841,0,0,1,6768.08,5889.3Z" transform="translate(-6767.238 -5882.858)" fill="#838eaa"/>
        </g>
        <g id="Group_2071" data-name="Group 2071" transform="translate(2027.447 4347.677)">
          <path id="Path_1578" data-name="Path 1578" d="M6835.243,5889.3a.841.841,0,0,1-.841-.841V5883.7a.842.842,0,1,1,1.683,0v4.763A.841.841,0,0,1,6835.243,5889.3Z" transform="translate(-6834.402 -5882.858)" fill="#838eaa"/>
        </g>
        <g id="Group_2073" data-name="Group 2073" transform="translate(2008 4308.73)">
          <path id="Path_1579" data-name="Path 1579" d="M6625.2,5366.733h-54.024a2.426,2.426,0,0,1-2.423-2.423v-11.073a2.426,2.426,0,0,1,2.423-2.423H6625.2a2.426,2.426,0,0,1,2.423,2.423v11.073A2.426,2.426,0,0,1,6625.2,5366.733Zm-54.024-14.675a1.18,1.18,0,0,0-1.179,1.179v11.073a1.18,1.18,0,0,0,1.179,1.179H6625.2a1.18,1.18,0,0,0,1.178-1.179v-11.073a1.18,1.18,0,0,0-1.178-1.179Z" transform="translate(-6568.748 -5350.813)" fill="#838eaa"/>
        </g>
        <g id="Group_2074" data-name="Group 2074" transform="translate(2013.619 4313.503)">
          <path id="Path_1580" data-name="Path 1580" d="M6646.347,5422.453a.842.842,0,0,1-.842-.842v-4.763a.842.842,0,0,1,1.684,0v4.763A.842.842,0,0,1,6646.347,5422.453Z" transform="translate(-6645.505 -5416.007)" fill="#838eaa"/>
        </g>
        <g id="Group_2075" data-name="Group 2075" transform="translate(2018.228 4313.503)">
          <path id="Path_1581" data-name="Path 1581" d="M6709.313,5422.453a.842.842,0,0,1-.842-.842v-4.763a.842.842,0,0,1,1.684,0v4.763A.842.842,0,0,1,6709.313,5422.453Z" transform="translate(-6708.471 -5416.007)" fill="#838eaa"/>
        </g>
        <g id="Group_2076" data-name="Group 2076" transform="translate(2022.53 4313.503)">
          <path id="Path_1582" data-name="Path 1582" d="M6768.08,5422.453a.842.842,0,0,1-.842-.842v-4.763a.842.842,0,0,1,1.684,0v4.763A.842.842,0,0,1,6768.08,5422.453Z" transform="translate(-6767.238 -5416.007)" fill="#838eaa"/>
        </g>
        <g id="Group_2077" data-name="Group 2077" transform="translate(2027.447 4313.503)">
          <path id="Path_1583" data-name="Path 1583" d="M6835.243,5422.453a.842.842,0,0,1-.841-.842v-4.763a.842.842,0,1,1,1.683,0v4.763A.842.842,0,0,1,6835.243,5422.453Z" transform="translate(-6834.402 -5416.007)" fill="#838eaa"/>
        </g>
        <g id="Group_2080" data-name="Group 2080" transform="translate(2044.814 4315.014)">
          <g id="Group_2078" data-name="Group 2078">
            <circle id="Ellipse_393" data-name="Ellipse 393" cx="1.712" cy="1.712" r="1.712" fill="#838eaa"/>
          </g>
          <g id="Group_2079" data-name="Group 2079" transform="translate(8.207)">
            <circle id="Ellipse_394" data-name="Ellipse 394" cx="1.712" cy="1.712" r="1.712" fill="#838eaa"/>
          </g>
        </g>
      </g>
      <g id="Group_2057" data-name="Group 2057" transform="translate(2034.888 4364.275)">
        <circle id="Ellipse_392" data-name="Ellipse 392" cx="1.924" cy="1.924" r="1.924" transform="translate(0.622 0.622)" fill="#f2f5fc"/>
        <path id="Path_1567" data-name="Path 1567" d="M6938.609,6114.7a2.547,2.547,0,1,1,2.546-2.547A2.55,2.55,0,0,1,6938.609,6114.7Zm0-3.849a1.3,1.3,0,1,0,1.3,1.3A1.3,1.3,0,0,0,6938.609,6110.848Z" transform="translate(-6936.062 -6109.603)" fill="#838eaa"/>
      </g>
    </g>
  </g>
</svg>
