<svg xmlns="http://www.w3.org/2000/svg" width="93.038" height="68.519" viewBox="0 0 93.038 68.519">
  <g id="Group_2082" data-name="Group 2082" transform="translate(-2412.366 -4291.047)">
    <g id="Group_2006" data-name="Group 2006" transform="translate(-33.477 -7)">
      <g id="Group_2005" data-name="Group 2005" transform="translate(510 3402)">
        <path id="Path_1360" data-name="Path 1360" d="M4165.574-315.591" transform="translate(-2154.01 1261.792)" fill="#f2f5fc" stroke="#838eaa" stroke-linecap="round" stroke-linejoin="round" stroke-width="17"/>
        <g id="Group_1848" data-name="Group 1848" transform="translate(1935.843 955.162)">
          <g id="Group_1844" data-name="Group 1844" transform="translate(0 3.94)">
            <g id="Group_1842" data-name="Group 1842">
              <path id="Path_1392" data-name="Path 1392" d="M4661.925-156.765h-1.572a.762.762,0,0,1-.762-.762.762.762,0,0,1,.762-.762h1.572a.762.762,0,0,1,.762.762A.762.762,0,0,1,4661.925-156.765Z" transform="translate(-4659.591 158.289)" fill="#838eaa"/>
            </g>
            <g id="Group_1843" data-name="Group 1843" transform="translate(6.308)">
              <path id="Path_1393" data-name="Path 1393" d="M4753.007-156.765h-1.572a.762.762,0,0,1-.762-.762.762.762,0,0,1,.762-.762h1.572a.762.762,0,0,1,.762.762A.762.762,0,0,1,4753.007-156.765Z" transform="translate(-4750.673 158.289)" fill="#838eaa"/>
            </g>
          </g>
          <g id="Group_1847" data-name="Group 1847" transform="translate(3.94 0)">
            <g id="Group_1845" data-name="Group 1845">
              <path id="Path_1394" data-name="Path 1394" d="M4717.243-212.082a.761.761,0,0,1-.762-.762v-1.572a.761.761,0,0,1,.762-.762.762.762,0,0,1,.762.762v1.572A.762.762,0,0,1,4717.243-212.082Z" transform="translate(-4716.481 215.178)" fill="#838eaa"/>
            </g>
            <g id="Group_1846" data-name="Group 1846" transform="translate(0 6.308)">
              <path id="Path_1395" data-name="Path 1395" d="M4717.243-121a.761.761,0,0,1-.762-.762v-1.572a.761.761,0,0,1,.762-.762.762.762,0,0,1,.762.762v1.572A.762.762,0,0,1,4717.243-121Z" transform="translate(-4716.481 124.097)" fill="#838eaa"/>
            </g>
          </g>
        </g>
        <g id="Group_1855" data-name="Group 1855" transform="translate(2019.476 896.047)">
          <g id="Group_1851" data-name="Group 1851" transform="translate(0 3.94)">
            <g id="Group_1849" data-name="Group 1849">
              <path id="Path_1396" data-name="Path 1396" d="M3515.983-822.6h-1.572a.762.762,0,0,1-.762-.762.762.762,0,0,1,.762-.762h1.572a.762.762,0,0,1,.762.762A.762.762,0,0,1,3515.983-822.6Z" transform="translate(-3513.649 824.122)" fill="#838eaa"/>
            </g>
            <g id="Group_1850" data-name="Group 1850" transform="translate(6.308)">
              <path id="Path_1397" data-name="Path 1397" d="M3607.064-822.6h-1.572a.762.762,0,0,1-.762-.762.762.762,0,0,1,.762-.762h1.572a.762.762,0,0,1,.762.762A.762.762,0,0,1,3607.064-822.6Z" transform="translate(-3604.73 824.122)" fill="#838eaa"/>
            </g>
          </g>
          <g id="Group_1854" data-name="Group 1854" transform="translate(3.94 0)">
            <g id="Group_1852" data-name="Group 1852">
              <path id="Path_1398" data-name="Path 1398" d="M3571.3-877.916a.762.762,0,0,1-.762-.762v-1.572a.762.762,0,0,1,.762-.762.762.762,0,0,1,.762.762v1.572A.762.762,0,0,1,3571.3-877.916Z" transform="translate(-3570.539 881.012)" fill="#838eaa"/>
            </g>
            <g id="Group_1853" data-name="Group 1853" transform="translate(0 6.308)">
              <path id="Path_1399" data-name="Path 1399" d="M3571.3-786.834a.762.762,0,0,1-.762-.762v-1.572a.762.762,0,0,1,.762-.762.762.762,0,0,1,.762.762v1.572A.762.762,0,0,1,3571.3-786.834Z" transform="translate(-3570.539 789.93)" fill="#838eaa"/>
            </g>
          </g>
        </g>
      </g>
    </g>
    <g id="Group_2054" data-name="Group 2054" transform="translate(-2023.767 -990.733)">
      <g id="Group_2031" data-name="Group 2031" transform="translate(4453.765 5294.31)">
        <path id="Path_1543" data-name="Path 1543" d="M4508.615,5435h-49.222a5.377,5.377,0,0,1-5.613-5.09v-41.1q-.015-.174-.016-.347a.633.633,0,0,1,.016-.141v-.023a5.4,5.4,0,0,1,.931-3.553c.85-1.034,2.323-1.537,4.5-1.537a.641.641,0,1,1,0,1.283c-1.773,0-2.923.35-3.514,1.069a4.337,4.337,0,0,0-.64,2.739v.45a2.757,2.757,0,0,0,.922,1.755,4.691,4.691,0,0,0,3.2,1.023h49.431a5.377,5.377,0,0,1,5.613,5.09v33.287A5.378,5.378,0,0,1,4508.615,5435Zm-53.552-43.587v38.5a4.1,4.1,0,0,0,4.33,3.807h49.222a4.1,4.1,0,0,0,4.33-3.807v-33.287a4.1,4.1,0,0,0-4.33-3.807h-49.431A5.853,5.853,0,0,1,4455.063,5391.412Z" transform="translate(-4453.765 -5383.213)" fill="#838eaa"/>
      </g>
      <g id="Group_2032" data-name="Group 2032" transform="translate(4458.576 5294.31)">
        <path id="Path_1544" data-name="Path 1544" d="M4567.38,5389.65a.641.641,0,0,1-.641-.642v-2.944a1.716,1.716,0,0,0-1.829-1.569h-46.761a.641.641,0,1,1,0-1.283h46.761a2.993,2.993,0,0,1,3.111,2.852v2.944A.641.641,0,0,1,4567.38,5389.65Z" transform="translate(-4517.508 -5383.213)" fill="#838eaa"/>
      </g>
      <g id="Group_2033" data-name="Group 2033" transform="translate(4500.605 5318.54)">
        <rect id="Rectangle_2771" data-name="Rectangle 2771" width="17.254" height="9.984" rx="4.992" transform="translate(0.641 0.641)" fill="#f2f5fc"/>
        <path id="Path_1545" data-name="Path 1545" d="M5088.83,5715.552H5075.6a1.154,1.154,0,0,1-1.152-1.152v-8.962a1.153,1.153,0,0,1,1.152-1.152h13.232a1.154,1.154,0,0,1,1.152,1.152v8.962A1.154,1.154,0,0,1,5088.83,5715.552Zm-13.1-1.283H5088.7v-8.7h-12.971Z" transform="translate(-5074.445 -5704.285)" fill="#838eaa"/>
      </g>
      <g id="Group_2040" data-name="Group 2040" transform="translate(4459.114 5306.4)">
        <g id="Group_2034" data-name="Group 2034" transform="translate(0)">
          <line id="Line_43" data-name="Line 43" x1="4.259" y1="0.018" transform="translate(0.641 0.641)" fill="#fff"/>
          <path id="Path_1546" data-name="Path 1546" d="M4529.548,5544.723h0l-4.259-.018a.641.641,0,0,1,0-1.283h0l4.259.017a.642.642,0,0,1,0,1.283Z" transform="translate(-4524.648 -5543.423)" fill="#838eaa"/>
        </g>
        <g id="Group_2035" data-name="Group 2035" transform="translate(8.613)">
          <line id="Line_44" data-name="Line 44" x1="4.259" y1="0.018" transform="translate(0.641 0.641)" fill="#fff"/>
          <path id="Path_1547" data-name="Path 1547" d="M4643.68,5544.723h0l-4.259-.018a.641.641,0,0,1,0-1.283h0l4.259.017a.642.642,0,0,1,0,1.283Z" transform="translate(-4638.78 -5543.423)" fill="#838eaa"/>
        </g>
        <g id="Group_2036" data-name="Group 2036" transform="translate(17.226)">
          <line id="Line_45" data-name="Line 45" x1="4.259" y1="0.018" transform="translate(0.641 0.641)" fill="#fff"/>
          <path id="Path_1548" data-name="Path 1548" d="M4757.812,5544.723h0l-4.259-.018a.641.641,0,0,1,0-1.283h0l4.259.017a.642.642,0,0,1,0,1.283Z" transform="translate(-4752.911 -5543.423)" fill="#838eaa"/>
        </g>
        <g id="Group_2037" data-name="Group 2037" transform="translate(25.839)">
          <line id="Line_46" data-name="Line 46" x1="4.259" y1="0.018" transform="translate(0.641 0.641)" fill="#fff"/>
          <path id="Path_1549" data-name="Path 1549" d="M4871.942,5544.723h0l-4.259-.018a.641.641,0,0,1,0-1.283h0l4.259.017a.642.642,0,0,1,0,1.283Z" transform="translate(-4867.042 -5543.423)" fill="#838eaa"/>
        </g>
        <g id="Group_2038" data-name="Group 2038" transform="translate(34.452)">
          <line id="Line_47" data-name="Line 47" x1="4.259" y1="0.018" transform="translate(0.641 0.641)" fill="#fff"/>
          <path id="Path_1550" data-name="Path 1550" d="M4986.073,5544.723h0l-4.259-.018a.641.641,0,0,1,0-1.283h0l4.259.017a.642.642,0,0,1,0,1.283Z" transform="translate(-4981.173 -5543.423)" fill="#838eaa"/>
        </g>
        <g id="Group_2039" data-name="Group 2039" transform="translate(43.065)">
          <line id="Line_48" data-name="Line 48" x1="4.259" y1="0.018" transform="translate(0.641 0.641)" fill="#fff"/>
          <path id="Path_1551" data-name="Path 1551" d="M5100.206,5544.723h0l-4.259-.018a.641.641,0,0,1,0-1.283h0l4.259.017a.642.642,0,0,1,0,1.283Z" transform="translate(-5095.306 -5543.423)" fill="#838eaa"/>
        </g>
      </g>
      <g id="Group_2047" data-name="Group 2047" transform="translate(4459.114 5340.95)">
        <g id="Group_2041" data-name="Group 2041" transform="translate(0 0)">
          <line id="Line_49" data-name="Line 49" x1="4.259" y1="0.018" transform="translate(0.641 0.641)" fill="#fff"/>
          <path id="Path_1552" data-name="Path 1552" d="M4529.548,6002.544h0l-4.259-.018a.641.641,0,0,1,0-1.283h0l4.259.018a.641.641,0,0,1,0,1.283Z" transform="translate(-4524.648 -6001.244)" fill="#838eaa"/>
        </g>
        <g id="Group_2042" data-name="Group 2042" transform="translate(8.613 0)">
          <line id="Line_50" data-name="Line 50" x1="4.259" y1="0.018" transform="translate(0.641 0.641)" fill="#fff"/>
          <path id="Path_1553" data-name="Path 1553" d="M4643.68,6002.544h0l-4.259-.018a.641.641,0,0,1,0-1.283h0l4.259.018a.641.641,0,0,1,0,1.283Z" transform="translate(-4638.78 -6001.244)" fill="#838eaa"/>
        </g>
        <g id="Group_2043" data-name="Group 2043" transform="translate(17.226 0)">
          <line id="Line_51" data-name="Line 51" x1="4.259" y1="0.018" transform="translate(0.641 0.641)" fill="#fff"/>
          <path id="Path_1554" data-name="Path 1554" d="M4757.812,6002.544h0l-4.259-.018a.641.641,0,0,1,0-1.283h0l4.259.018a.641.641,0,0,1,0,1.283Z" transform="translate(-4752.911 -6001.244)" fill="#838eaa"/>
        </g>
        <g id="Group_2044" data-name="Group 2044" transform="translate(25.839 0)">
          <line id="Line_52" data-name="Line 52" x1="4.259" y1="0.018" transform="translate(0.641 0.641)" fill="#fff"/>
          <path id="Path_1555" data-name="Path 1555" d="M4871.942,6002.544h0l-4.259-.018a.641.641,0,0,1,0-1.283h0l4.259.018a.641.641,0,0,1,0,1.283Z" transform="translate(-4867.042 -6001.244)" fill="#838eaa"/>
        </g>
        <g id="Group_2045" data-name="Group 2045" transform="translate(34.452 0)">
          <line id="Line_53" data-name="Line 53" x1="4.259" y1="0.018" transform="translate(0.641 0.641)" fill="#fff"/>
          <path id="Path_1556" data-name="Path 1556" d="M4986.073,6002.544h0l-4.259-.018a.641.641,0,0,1,0-1.283h0l4.259.018a.641.641,0,0,1,0,1.283Z" transform="translate(-4981.173 -6001.244)" fill="#838eaa"/>
        </g>
        <g id="Group_2046" data-name="Group 2046" transform="translate(43.065 0)">
          <line id="Line_54" data-name="Line 54" x1="4.259" y1="0.018" transform="translate(0.641 0.641)" fill="#fff"/>
          <path id="Path_1557" data-name="Path 1557" d="M5100.206,6002.544h0l-4.259-.018a.641.641,0,0,1,0-1.283h0l4.259.018a.641.641,0,0,1,0,1.283Z" transform="translate(-5095.306 -6001.244)" fill="#838eaa"/>
        </g>
      </g>
      <g id="Group_2048" data-name="Group 2048" transform="translate(4459.547 5287.053)">
        <path id="Path_1558" data-name="Path 1558" d="M4538.884,5306.217l27.637-10.664.852,2.3" transform="translate(-4538.242 -5294.912)" fill="#fff"/>
        <path id="Path_1559" data-name="Path 1559" d="M4531.023,5299a.642.642,0,0,1-.231-1.24l27.637-10.664a.642.642,0,0,1,.833.375l.851,2.3a.642.642,0,1,1-1.2.446l-.625-1.687-27.03,10.43A.651.651,0,0,1,4531.023,5299Z" transform="translate(-4530.382 -5287.053)" fill="#838eaa"/>
      </g>
      <g id="Group_2049" data-name="Group 2049" transform="translate(4472.983 5287.853)">
        <path id="Path_1560" data-name="Path 1560" d="M4716.931,5315.954l25.4-9.8,3.652,9.067" transform="translate(-4716.29 -5305.514)" fill="#f2f5fc"/>
        <path id="Path_1561" data-name="Path 1561" d="M4709.07,5308.734a.642.642,0,0,1-.231-1.24l25.4-9.8a.64.64,0,0,1,.826.358l3.652,9.067a.641.641,0,0,1-1.19.479l-3.416-8.48-24.806,9.571A.643.643,0,0,1,4709.07,5308.734Z" transform="translate(-4708.428 -5297.652)" fill="#838eaa"/>
      </g>
      <g id="Group_2050" data-name="Group 2050" transform="translate(4468.523 5288.796)">
        <path id="Path_1562" data-name="Path 1562" d="M4656.364,5317.993l-7.039-.591,18.805-7.252,1.059,2.9" transform="translate(-4649.326 -5310.149)" fill="#f2f5fc"/>
      </g>
      <g id="Group_2051" data-name="Group 2051" transform="translate(4459.143 5312.722)">
        <circle id="Ellipse_391" data-name="Ellipse 391" cx="10.962" cy="10.962" r="10.962" transform="translate(0.641 0.642)" fill="#f2f5fc"/>
        <path id="Path_1563" data-name="Path 1563" d="M4536.636,5650.4a11.6,11.6,0,1,1,11.6-11.6A11.617,11.617,0,0,1,4536.636,5650.4Zm0-21.924a10.321,10.321,0,1,0,10.32,10.321A10.332,10.332,0,0,0,4536.636,5628.474Z" transform="translate(-4525.032 -5627.191)" fill="#838eaa"/>
      </g>
      <g id="Group_2053" data-name="Group 2053" transform="translate(4469.259 5318.411)">
        <g id="Group_2052" data-name="Group 2052" transform="translate(0 0)">
          <path id="Path_1564" data-name="Path 1564" d="M4660.584,5702.57c.595,0,1.452.1,1.47.77a6.353,6.353,0,0,1-.07.77c-.175,1.12-.683,3.868-.98,6.073h-.84c-.245-2.03-.752-4.812-.962-6.02a4.479,4.479,0,0,1-.123-.823C4659.079,5702.728,4659.954,5702.57,4660.584,5702.57Zm.017,11.83a1.461,1.461,0,1,1,1.435-1.47A1.383,1.383,0,0,1,4660.6,5714.4Z" transform="translate(-4659.079 -5702.57)" fill="#838eaa"/>
        </g>
      </g>
    </g>
  </g>
</svg>
