<svg xmlns="http://www.w3.org/2000/svg" width="100.718" height="73.237" viewBox="0 0 100.718 73.237">
  <g id="Group_2848" data-name="Group 2848" transform="translate(-5561 1412.838)">
    <g id="Component_10_2" data-name="Component 10 – 2" transform="translate(5561 -1412.838)">
      <g id="Group_2086" data-name="Group 2086" transform="translate(-3337 -4026.162)">
        <g id="Group_2085" data-name="Group 2085" transform="translate(1350.47 -277)">
          <g id="Group_2081" data-name="Group 2081" transform="translate(2 6)">
            <g id="Group_1882" data-name="Group 1882" transform="translate(51.001 3405)">
              <path id="Path_1360" data-name="Path 1360" d="M4165.574-315.591" transform="translate(-2154.01 1261.792)" fill="#cb4477" stroke="#838eaa" stroke-linecap="round" stroke-linejoin="round" stroke-width="17"/>
              <g id="Group_1848" data-name="Group 1848" transform="translate(2024.843 892.162)">
                <g id="Group_1844" data-name="Group 1844" transform="translate(0 3.94)">
                  <g id="Group_1842" data-name="Group 1842">
                    <path id="Path_1392" data-name="Path 1392" d="M4661.925-156.765h-1.572a.762.762,0,0,1-.762-.762.762.762,0,0,1,.762-.762h1.572a.762.762,0,0,1,.762.762A.762.762,0,0,1,4661.925-156.765Z" transform="translate(-4659.591 158.289)" fill="#cb4477"/>
                  </g>
                  <g id="Group_1843" data-name="Group 1843" transform="translate(6.308)">
                    <path id="Path_1393" data-name="Path 1393" d="M4753.007-156.765h-1.572a.762.762,0,0,1-.762-.762.762.762,0,0,1,.762-.762h1.572a.762.762,0,0,1,.762.762A.762.762,0,0,1,4753.007-156.765Z" transform="translate(-4750.673 158.289)" fill="#cb4477"/>
                  </g>
                </g>
                <g id="Group_1847" data-name="Group 1847" transform="translate(3.94 0)">
                  <g id="Group_1845" data-name="Group 1845">
                    <path id="Path_1394" data-name="Path 1394" d="M4717.243-212.082a.761.761,0,0,1-.762-.762v-1.572a.761.761,0,0,1,.762-.762.762.762,0,0,1,.762.762v1.572A.762.762,0,0,1,4717.243-212.082Z" transform="translate(-4716.481 215.178)" fill="#cb4477"/>
                  </g>
                  <g id="Group_1846" data-name="Group 1846" transform="translate(0 6.308)">
                    <path id="Path_1395" data-name="Path 1395" d="M4717.243-121a.761.761,0,0,1-.762-.762v-1.572a.761.761,0,0,1,.762-.762.762.762,0,0,1,.762.762v1.572A.762.762,0,0,1,4717.243-121Z" transform="translate(-4716.481 124.097)" fill="#cb4477"/>
                  </g>
                </g>
              </g>
              <g id="Group_1855" data-name="Group 1855" transform="translate(1940.178 952.099) rotate(45)">
                <g id="Group_1851" data-name="Group 1851" transform="translate(0 3.94)">
                  <g id="Group_1849" data-name="Group 1849">
                    <path id="Path_1396" data-name="Path 1396" d="M3515.983-822.6h-1.572a.762.762,0,0,1-.762-.762.762.762,0,0,1,.762-.762h1.572a.762.762,0,0,1,.762.762A.762.762,0,0,1,3515.983-822.6Z" transform="translate(-3513.649 824.122)" fill="#cb4477"/>
                  </g>
                  <g id="Group_1850" data-name="Group 1850" transform="translate(6.308)">
                    <path id="Path_1397" data-name="Path 1397" d="M3607.064-822.6h-1.572a.762.762,0,0,1-.762-.762.762.762,0,0,1,.762-.762h1.572a.762.762,0,0,1,.762.762A.762.762,0,0,1,3607.064-822.6Z" transform="translate(-3604.73 824.122)" fill="#cb4477"/>
                  </g>
                </g>
                <g id="Group_1854" data-name="Group 1854" transform="translate(3.94 0)">
                  <g id="Group_1852" data-name="Group 1852">
                    <path id="Path_1398" data-name="Path 1398" d="M3571.3-877.916a.762.762,0,0,1-.762-.762v-1.572a.762.762,0,0,1,.762-.762.762.762,0,0,1,.762.762v1.572A.762.762,0,0,1,3571.3-877.916Z" transform="translate(-3570.539 881.012)" fill="#cb4477"/>
                  </g>
                  <g id="Group_1853" data-name="Group 1853" transform="translate(0 6.308)">
                    <path id="Path_1399" data-name="Path 1399" d="M3571.3-786.834a.762.762,0,0,1-.762-.762v-1.572a.762.762,0,0,1,.762-.762.762.762,0,0,1,.762.762v1.572A.762.762,0,0,1,3571.3-786.834Z" transform="translate(-3570.539 789.93)" fill="#cb4477"/>
                  </g>
                </g>
              </g>
            </g>
            <g id="Path_1978" data-name="Path 1978" transform="translate(1991.001 4303)" fill="none">
              <path d="M3,0A3,3,0,1,1,0,3,3,3,0,0,1,3,0Z" stroke="none"/>
              <path d="M 3 1 C 1.897200107574463 1 1 1.897200107574463 1 3 C 1 4.102799892425537 1.897200107574463 5 3 5 C 4.102799892425537 5 5 4.102799892425537 5 3 C 5 1.897200107574463 4.102799892425537 1 3 1 M 3 0 C 4.65684986114502 0 6 1.34315013885498 6 3 C 6 4.65684986114502 4.65684986114502 6 3 6 C 1.34315013885498 6 0 4.65684986114502 0 3 C 0 1.34315013885498 1.34315013885498 0 3 0 Z" stroke="none" fill="#cb4477"/>
            </g>
            <g id="Path_1977" data-name="Path 1977" transform="translate(2078.001 4357)" fill="none">
              <path d="M3,0A3,3,0,1,1,0,3,3,3,0,0,1,3,0Z" stroke="none"/>
              <path d="M 3 1 C 1.897200107574463 1 1 1.897200107574463 1 3 C 1 4.102799892425537 1.897200107574463 5 3 5 C 4.102799892425537 5 5 4.102799892425537 5 3 C 5 1.897200107574463 4.102799892425537 1 3 1 M 3 0 C 4.65684986114502 0 6 1.34315013885498 6 3 C 6 4.65684986114502 4.65684986114502 6 3 6 C 1.34315013885498 6 0 4.65684986114502 0 3 C 0 1.34315013885498 1.34315013885498 0 3 0 Z" stroke="none" fill="#cb4477"/>
            </g>
          </g>
        </g>
      </g>
    </g>
    <g id="attention" transform="translate(5592 -1422.333)">
      <g id="Group_2847" data-name="Group 2847" transform="translate(0 21.333)">
        <g id="Group_2846" data-name="Group 2846" transform="translate(0 0)">
          <path id="Path_1975" data-name="Path 1975" d="M44.767,56.917h0c-3.008-6.169-8.049-14.92-12.5-22.64-2.327-4.041-4.526-7.856-6.115-10.756a4,4,0,0,0-7.129,0c-1.59,2.9-3.79,6.721-6.12,10.764C8.458,42,3.418,50.75.412,56.917A4.012,4.012,0,0,0,0,58.683a4.054,4.054,0,0,0,4.035,4.064l18.554,0,18.554,0a4.054,4.054,0,0,0,4.035-4.064A4.011,4.011,0,0,0,44.767,56.917Zm-3.623,3.948H4.037a2.171,2.171,0,0,1-2.153-2.182,2.14,2.14,0,0,1,.221-.941c2.978-6.109,8-14.826,12.431-22.517,2.335-4.053,4.54-7.881,6.139-10.8a2.18,2.18,0,0,1,3.827,0c1.6,2.917,3.8,6.742,6.135,10.791,4.433,7.693,9.457,16.414,12.436,22.525a2.135,2.135,0,0,1,.222.942A2.171,2.171,0,0,1,41.144,60.865Z" transform="translate(0 -21.333)" fill="#cb4477" stroke="#cb4477" stroke-width="1"/>
          <path id="Path_1976" data-name="Path 1976" d="M246.274,128.01a.941.941,0,0,0-.941.941v18.824a.941.941,0,1,0,1.883,0V128.951A.941.941,0,0,0,246.274,128.01Z" transform="translate(-223.685 -118.597)" fill="#cb4477" stroke="#cb4477" stroke-width="1"/>
          <circle id="Ellipse_384" data-name="Ellipse 384" cx="0.941" cy="0.941" r="0.941" transform="translate(21.648 33.884)" fill="#cb4477" stroke="#cb4477" stroke-width="1"/>
        </g>
      </g>
    </g>
  </g>
</svg>
