<svg xmlns="http://www.w3.org/2000/svg" width="79.788" height="72.938" viewBox="0 0 79.788 72.938"><defs><style>.a{fill:#cb4477;}</style></defs><g transform="translate(0 -20.882)"><g transform="translate(0 20.882)"><path class="a" d="M222.325,333.382a4.1,4.1,0,1,0,0,8.2,4.1,4.1,0,0,0,0-8.2Z" transform="translate(-182.433 -282.127)"/><path class="a" d="M77.846,86.669A14,14,0,0,0,77.878,72.5L52.193,28.017A14.152,14.152,0,0,0,27.624,28L1.906,72.531a14.205,14.205,0,0,0,12.3,21.289h51.3A14.125,14.125,0,0,0,77.846,86.669Zm-5.577-3.215a7.751,7.751,0,0,1-6.774,3.92h-51.3A7.645,7.645,0,0,1,7.5,83.536a7.761,7.761,0,0,1-.016-7.824L33.2,31.2a7.724,7.724,0,0,1,13.416.016l25.7,44.514A7.658,7.658,0,0,1,72.269,83.454Z" transform="translate(0 -20.882)"/><path class="a" d="M220.89,157.292a4.459,4.459,0,0,0-3.165,4.478c.1,1.3.18,2.608.279,3.9.279,4.937.558,9.775.836,14.712a3,3,0,0,0,3.067,2.887,3.067,3.067,0,0,0,3.067-2.985c0-1.017,0-1.952.1-2.985.18-3.165.377-6.331.558-9.5.1-2.05.279-4.1.377-6.151a5.065,5.065,0,0,0-.377-2.05A4.111,4.111,0,0,0,220.89,157.292Z" transform="translate(-182.015 -134.822)"/></g></g></svg>