<svg xmlns="http://www.w3.org/2000/svg" width="19.001" height="19.001" viewBox="0 0 19.001 19.001"><defs><style>.a{fill:#b7bfca;}</style></defs><g transform="translate(-1708 -1808)"><g transform="translate(1712.971 1815.869)"><path class="a" d="M136.839,212.518a1.687,1.687,0,1,0,0,2.385A1.689,1.689,0,0,0,136.839,212.518Zm-.853,1.532a.48.48,0,1,1,0-.679A.477.477,0,0,1,135.985,214.051Z" transform="translate(-133.959 -212.025)"/></g><g transform="translate(1718.663 1815.767)"><path class="a" d="M290.2,209.79a1.687,1.687,0,1,0,.494,1.193A1.689,1.689,0,0,0,290.2,209.79Zm-.853,1.532a.48.48,0,1,1,.141-.34A.481.481,0,0,1,289.347,211.322Z" transform="translate(-287.321 -209.296)"/></g><g transform="translate(1716.473 1813.419)"><g transform="translate(0 0)"><rect class="a" width="1.207" height="8.079" transform="translate(0 0.128) rotate(-6.09)"/></g></g><g transform="translate(1708 1808)"><g transform="translate(0)"><path class="a" d="M17.341,6.758a4.043,4.043,0,0,0-5.1-5.1L10.583,0,0,10.582l1.661,1.661a4.043,4.043,0,0,0,5.1,5.1L8.42,19,19,8.419ZM8.42,17.295,7.042,15.917l-.379.169a2.837,2.837,0,0,1-3.747-3.747l.169-.379L1.707,10.582l8.876-8.876,1.378,1.378.379-.169a2.837,2.837,0,0,1,3.747,3.747l-.169.379L17.3,8.419Z" transform="translate(-0.001)"/></g></g></g></svg>