<svg xmlns="http://www.w3.org/2000/svg" width="19.416" height="14.562" viewBox="0 0 19.416 14.562">
  <path id="Email_icon" data-name="Email icon" d="M17.111,14.562H2.3A2.253,2.253,0,0,1,0,12.306V2.258A2.255,2.255,0,0,1,2.3,0H17.111a2.285,2.285,0,0,1,2.305,2.258V12.306A2.284,2.284,0,0,1,17.111,14.562Zm1.5-12.3a1.458,1.458,0,0,0-1.5-1.449H2.3A1.455,1.455,0,0,0,.809,2.258V12.306A1.453,1.453,0,0,0,2.3,13.753H17.111a1.456,1.456,0,0,0,1.5-1.446ZM10.758,8.382a1.725,1.725,0,0,1-2.28,0L2.065,2.615a.4.4,0,0,1,.541-.6L9.019,7.78a.918.918,0,0,0,1.2,0L16.63,2.013a.4.4,0,0,1,.541.6ZM6.373,8.366a.4.4,0,0,1,.517.623l-4.3,3.573a.4.4,0,0,1-.517-.623Zm6.491,0,4.3,3.573a.4.4,0,0,1-.517.623l-4.3-3.573a.4.4,0,0,1,.518-.623Z" fill="#b7bfca" fill-rule="evenodd"/>
</svg>
