<svg xmlns="http://www.w3.org/2000/svg" width="14.567" height="19.395" viewBox="0 0 14.567 19.395">
  <path id="Lock_icon" data-name="Lock icon" d="M14.767,17.486a2.124,2.124,0,0,1-2.119,2.105H3.839a2.127,2.127,0,0,1-2.12-2.13l-.758-8A2.132,2.132,0,0,1,3.079,7.3H4.218V4.051a4.031,4.031,0,0,1,8.054,0V7.3h1.136a2.1,2.1,0,0,1,2.121,2.12Zm-3.3-13.435A3.175,3.175,0,0,0,8.245,1.017,3.175,3.175,0,0,0,5.023,4.051V7.3h6.444Zm1.941,4.067H3.079A1.3,1.3,0,0,0,1.765,9.426l.758,8a1.31,1.31,0,0,0,1.316,1.349h8.809a1.322,1.322,0,0,0,1.315-1.325l.761-8.067A1.289,1.289,0,0,0,13.408,8.118Zm-4.265,8.2h-1.8a.405.405,0,0,1-.4-.36L6.607,13.12a1.638,1.638,0,1,1,3.275-.057l-.34,2.889A.405.405,0,0,1,9.143,16.314Zm-.9-4.056a.824.824,0,0,0-.833.813L7.7,15.494H8.786l.294-2.48A.809.809,0,0,0,8.242,12.257Z" transform="translate(-0.961 -0.197)" fill="#b7bfca" fill-rule="evenodd"/>
</svg>
