<svg xmlns="http://www.w3.org/2000/svg" width="41.888" height="26.754" viewBox="0 0 41.888 26.754">
  <g id="Group_1640" data-name="Group 1640" transform="translate(-2268 -4670)">
    <g id="Group_1633" data-name="Group 1633" transform="translate(2268 4670)">
      <path id="Path_1177" data-name="Path 1177" d="M3.783,0H38.1a3.783,3.783,0,0,1,3.783,3.783V22.971A3.783,3.783,0,0,1,38.1,26.754H3.783A3.783,3.783,0,0,1,0,22.971V3.783A3.783,3.783,0,0,1,3.783,0Z" fill="none"/>
    </g>
    <g id="Group_1639" data-name="Group 1639" transform="translate(2267.924 4670.825)">
      <g id="Group_1638" data-name="Group 1638" transform="translate(0.076 -0.052)">
        <g id="Group_1634" data-name="Group 1634" transform="translate(1.645 21.296)">
          <path id="Path_1179" data-name="Path 1179" d="M40.28,135.143v.066h.06a.065.065,0,0,0,.033-.008.029.029,0,0,0,.012-.025.028.028,0,0,0-.012-.024.059.059,0,0,0-.033-.008Zm.061-.046a.111.111,0,0,1,.072.021.069.069,0,0,1,.025.057.066.066,0,0,1-.02.05.1.1,0,0,1-.058.024l.08.092h-.062l-.074-.092H40.28v.092h-.052V135.1Zm-.016.329a.2.2,0,0,0,.079-.016.21.21,0,0,0,.065-.044.2.2,0,0,0,.044-.065.21.21,0,0,0,0-.16.206.206,0,0,0-.109-.109.206.206,0,0,0-.079-.015.215.215,0,0,0-.081.015.209.209,0,0,0-.066.044.209.209,0,0,0-.043.226.193.193,0,0,0,.043.065.208.208,0,0,0,.066.044.2.2,0,0,0,.081.016m0-.47a.265.265,0,0,1,.1.021.268.268,0,0,1,.085.057.261.261,0,0,1,.057.084.261.261,0,0,1,0,.2.274.274,0,0,1-.057.084.29.29,0,0,1-.085.057.265.265,0,0,1-.1.021.269.269,0,0,1-.106-.021.277.277,0,0,1-.086-.057.274.274,0,0,1-.057-.084.261.261,0,0,1,0-.2.261.261,0,0,1,.057-.084.257.257,0,0,1,.086-.057.269.269,0,0,1,.106-.021m-24.761-.943a.8.8,0,1,1,.805.85.8.8,0,0,1-.805-.85m2.149,0v-1.327h-.577v.322a1.006,1.006,0,0,0-.838-.389,1.4,1.4,0,0,0,0,2.788,1.006,1.006,0,0,0,.838-.389v.322h.577Zm19.5,0a.8.8,0,1,1,.805.85.8.8,0,0,1-.805-.85m2.149,0v-2.393h-.578v1.388a1.006,1.006,0,0,0-.838-.389,1.4,1.4,0,0,0,0,2.788,1.006,1.006,0,0,0,.838-.389v.322h.578Zm-14.487-.877a.659.659,0,0,1,.672.644H24.17a.683.683,0,0,1,.705-.644m.011-.517a1.395,1.395,0,0,0,.039,2.788,1.613,1.613,0,0,0,1.088-.372l-.283-.428a1.269,1.269,0,0,1-.772.278.737.737,0,0,1-.794-.65h1.971c.006-.072.011-.144.011-.222a1.273,1.273,0,0,0-1.26-1.394m6.968,1.394a.8.8,0,1,1,.805.85.8.8,0,0,1-.805-.85m2.149,0v-1.327h-.577v.322a1.007,1.007,0,0,0-.838-.389,1.4,1.4,0,0,0,0,2.788,1.007,1.007,0,0,0,.838-.389v.322H34Zm-5.408,0a1.341,1.341,0,0,0,1.416,1.394,1.389,1.389,0,0,0,.955-.316l-.277-.467a1.166,1.166,0,0,1-.695.239.851.851,0,0,1,0-1.7,1.166,1.166,0,0,1,.695.239l.277-.467a1.39,1.39,0,0,0-.955-.317,1.341,1.341,0,0,0-1.416,1.394m7.44-1.394a.784.784,0,0,0-.7.389v-.322h-.572v2.654h.578v-1.488c0-.439.189-.683.566-.683a.937.937,0,0,1,.361.067l.178-.544a1.23,1.23,0,0,0-.411-.072m-15.47.278a1.984,1.984,0,0,0-1.082-.278c-.672,0-1.105.322-1.105.85,0,.433.322.7.916.783l.273.039c.317.044.466.128.466.278,0,.205-.211.322-.605.322a1.413,1.413,0,0,1-.883-.278l-.272.449a1.915,1.915,0,0,0,1.149.344c.767,0,1.211-.361,1.211-.866,0-.467-.349-.711-.927-.794l-.272-.039c-.25-.033-.45-.083-.45-.261,0-.195.189-.311.505-.311a1.712,1.712,0,0,1,.827.228Zm7.446-.278a.781.781,0,0,0-.7.389v-.322h-.572v2.654h.577v-1.488c0-.439.189-.683.566-.683a.936.936,0,0,1,.361.067l.178-.544a1.231,1.231,0,0,0-.411-.072m-4.925.067h-.944v-.805h-.583v.805h-.538v.528h.538v1.211c0,.616.239.982.922.982a1.354,1.354,0,0,0,.722-.205l-.167-.494a1.068,1.068,0,0,1-.511.15c-.289,0-.383-.178-.383-.444v-1.2h.944Zm-8.629,2.654v-1.666a.988.988,0,0,0-1.044-1.055,1.028,1.028,0,0,0-.933.472.974.974,0,0,0-.877-.472.878.878,0,0,0-.777.394v-.327H10.25v2.654h.583V133.87a.621.621,0,0,1,.65-.705c.383,0,.577.25.577.7v1.477h.583V133.87a.626.626,0,0,1,.65-.705c.394,0,.583.25.583.7v1.477Z" transform="translate(-10.25 -131.622)" fill="#fff"/>
        </g>
        <g id="Group_1635" data-name="Group 1635" transform="translate(31.189 15.801)">
          <path id="Path_1180" data-name="Path 1180" d="M193.765,98.039v-.388h-.1l-.117.266-.116-.266h-.1v.388h.072v-.292l.109.252h.074l.109-.253v.293Zm-.641,0v-.322h.13v-.066h-.33v.066h.13v.322Z" transform="translate(-192.923 -97.651)" fill="#f79410"/>
        </g>
        <path id="Path_1181" data-name="Path 1181" d="M81.75,28.889H73V13.171H81.75Z" transform="translate(-61.209 -11.032)" fill="#ff5f00"/>
        <g id="Group_1636" data-name="Group 1636" transform="translate(0 0)">
          <path id="Path_1182" data-name="Path 1182" d="M12.431,9.944a9.979,9.979,0,0,1,3.818-7.859,10,10,0,1,0,0,15.718,9.979,9.979,0,0,1-3.818-7.859" transform="translate(-0.076 0.052)" fill="#eb001b"/>
        </g>
        <g id="Group_1637" data-name="Group 1637" transform="translate(16.163 0)">
          <path id="Path_1183" data-name="Path 1183" d="M116.188,9.944A10,10,0,0,1,100.015,17.8a10,10,0,0,0,0-15.718,10,10,0,0,1,16.173,7.859" transform="translate(-100.015 0.052)" fill="#f79e1b"/>
        </g>
      </g>
    </g>
  </g>
</svg>
