<svg width="39.415" height="10.517" version="1.1" viewBox="0 0 39.415 10.517" xmlns="http://www.w3.org/2000/svg">
 <g transform="translate(-2176 -4678)" data-name="Group 1642">
  <path d="m2179.8 4670h34.317a3.783 3.783 0 0 1 3.783 3.783v19.188a3.783 3.783 0 0 1-3.783 3.783h-34.317a3.783 3.783 0 0 1-3.783-3.783v-19.188a3.783 3.783 0 0 1 3.783-3.783z" fill="none" data-name="Path 1177"/>
  <path id="Icon_payment-paypal" transform="translate(2173.4 4658)" d="m24.281 22.788h-1.475a0.426 0.426 0 0 0-0.352 0.187l-2.036 3-0.862-2.881a0.427 0.427 0 0 0-0.408-0.3h-1.448a0.256 0.256 0 0 0-0.242 0.338l1.625 4.769-1.528 2.156a0.256 0.256 0 0 0 0.209 0.4h1.474a0.428 0.428 0 0 0 0.35-0.183l4.907-7.082a0.256 0.256 0 0 0-0.21-0.4zm-9.864 2.857a1.637 1.637 0 0 1-1.657 1.4 1.138 1.138 0 0 1-1.216-1.428 1.642 1.642 0 0 1 1.645-1.413 1.236 1.236 0 0 1 0.979 0.4 1.264 1.264 0 0 1 0.249 1.038zm2.046-2.857h-1.463a0.256 0.256 0 0 0-0.253 0.216l-0.064 0.41-0.1-0.149a2.091 2.091 0 0 0-1.735-0.616 3.376 3.376 0 0 0-3.284 2.951 2.77 2.77 0 0 0 0.547 2.255 2.3 2.3 0 0 0 1.848 0.746 2.811 2.811 0 0 0 2.033-0.839l-0.065 0.408a0.256 0.256 0 0 0 0.253 0.3h1.32a0.425 0.425 0 0 0 0.421-0.359l0.794-5.025a0.256 0.256 0 0 0-0.253-0.295zm-8.809 0.035c-0.168 1.1-1.008 1.1-1.821 1.1h-0.463l0.324-2.055a0.255 0.255 0 0 1 0.252-0.216h0.212c0.553 0 1.076 0 1.346 0.315a1.024 1.024 0 0 1 0.149 0.855zm-0.354-2.871h-3.066a0.426 0.426 0 0 0-0.421 0.36l-1.24 7.861a0.255 0.255 0 0 0 0.252 0.3h1.465a0.426 0.426 0 0 0 0.421-0.359l0.335-2.121a0.426 0.426 0 0 1 0.421-0.36h0.97a3.148 3.148 0 0 0 3.489-2.914 2.36 2.36 0 0 0-0.391-1.978 2.842 2.842 0 0 0-2.235-0.789zm32.759 0.216-1.258 8a0.255 0.255 0 0 0 0.252 0.3h1.265a0.425 0.425 0 0 0 0.421-0.36l1.241-7.861a0.256 0.256 0 0 0-0.253-0.3h-1.416a0.256 0.256 0 0 0-0.253 0.216zm-3.776 5.478a1.637 1.637 0 0 1-1.657 1.4 1.138 1.138 0 0 1-1.216-1.428 1.642 1.642 0 0 1 1.645-1.413 1.236 1.236 0 0 1 0.979 0.4 1.264 1.264 0 0 1 0.249 1.038zm2.046-2.857h-1.469a0.256 0.256 0 0 0-0.253 0.216l-0.064 0.41-0.1-0.149a2.09 2.09 0 0 0-1.734-0.616 3.376 3.376 0 0 0-3.279 2.95 2.77 2.77 0 0 0 0.547 2.255 2.3 2.3 0 0 0 1.848 0.746 2.811 2.811 0 0 0 2.033-0.839l-0.065 0.408a0.256 0.256 0 0 0 0.253 0.3h1.322a0.425 0.425 0 0 0 0.421-0.359l0.794-5.025a0.256 0.256 0 0 0-0.253-0.3zm-8.809 0.035c-0.167 1.1-1.008 1.1-1.821 1.1h-0.462l0.324-2.055a0.255 0.255 0 0 1 0.252-0.216h0.212c0.553 0 1.076 0 1.346 0.315a1.025 1.025 0 0 1 0.149 0.855zm-0.354-2.871h-3.066a0.426 0.426 0 0 0-0.421 0.36l-1.239 7.861a0.256 0.256 0 0 0 0.252 0.3h1.573a0.3 0.3 0 0 0 0.294-0.251l0.352-2.229a0.426 0.426 0 0 1 0.421-0.36h0.97a3.148 3.148 0 0 0 3.489-2.914 2.36 2.36 0 0 0-0.391-1.978 2.842 2.842 0 0 0-2.234-0.784z" fill="#fff" data-name="Icon payment-paypal"/>
 </g>
</svg>
