<svg xmlns="http://www.w3.org/2000/svg" width="39.875" height="36.23" viewBox="0 0 39.875 36.23"><defs><style>.a{fill:#f90;}</style></defs><path class="a" d="M.075,29.773c.12-.193.311-.206.578-.037A38.631,38.631,0,0,0,20.383,35a39.055,39.055,0,0,0,14.04-2.651l.524-.233c.229-.1.389-.166.487-.216a.669.669,0,0,1,.873.216c.2.289.15.558-.2.8-.426.316-1,.681-1.672,1.087a26.982,26.982,0,0,1-6.956,2.869,29.282,29.282,0,0,1-7.506,1.014,29.134,29.134,0,0,1-10.7-1.973A29.718,29.718,0,0,1,.251,30.342.5.5,0,0,1,0,29.976a.362.362,0,0,1,.083-.216ZM10.987,19.438a7.315,7.315,0,0,1,1.235-4.283,7.606,7.606,0,0,1,3.391-2.684,18.385,18.385,0,0,1,4.84-1.2c.648-.076,1.717-.171,3.191-.289v-.615a6.647,6.647,0,0,0-.5-3.117,2.722,2.722,0,0,0-2.394-1.08h-.3a3.992,3.992,0,0,0-2.071.765,3.005,3.005,0,0,0-1.122,1.822.932.932,0,0,1-.723.848l-4.189-.524c-.412-.1-.618-.3-.618-.648a.992.992,0,0,1,.037-.249A6.992,6.992,0,0,1,14.788,3.4a11.626,11.626,0,0,1,5.635-1.745h.9A9.226,9.226,0,0,1,27.783,3.8c.224.249.449.5.673.8a4.309,4.309,0,0,1,.47.748,3.186,3.186,0,0,1,.324.947c.1.422.175.7.224.848A4.789,4.789,0,0,1,29.6,8.16c.017.52.033.819.033.919v8.776a5.42,5.42,0,0,0,.274,1.722,3.963,3.963,0,0,0,.524,1.12l.848,1.12a1.133,1.133,0,0,1,.226.6.64.64,0,0,1-.3.522c-1.995,1.745-3.092,2.693-3.263,2.842a.97.97,0,0,1-1.047.075,10.077,10.077,0,0,1-.874-.824l-.515-.577c-.1-.123-.276-.349-.527-.7l-.5-.723A8.908,8.908,0,0,1,20.493,25.8a10.509,10.509,0,0,1-3.042.377,6.378,6.378,0,0,1-4.588-1.719,6.438,6.438,0,0,1-1.8-4.887l-.083-.126Zm6.238-.728a3.436,3.436,0,0,0,.706,2.267,2.389,2.389,0,0,0,1.92.851,2.449,2.449,0,0,0,.324-.033,1.835,1.835,0,0,1,.276-.038A3.729,3.729,0,0,0,22.818,19.8a5.229,5.229,0,0,0,.6-1.513,6.489,6.489,0,0,0,.224-1.33c.025-.324.025-.9.025-1.67v-.9a12.856,12.856,0,0,0-3.191.3,3.9,3.9,0,0,0-3.191,4.039l-.058-.033ZM32.453,30.39a1.206,1.206,0,0,1,.219-.283,5.923,5.923,0,0,1,1.745-.831,13.453,13.453,0,0,1,2.679-.4,2.21,2.21,0,0,1,.681.05c1.08.1,1.745.279,1.948.549a1.156,1.156,0,0,1,.15.648v.249a8.3,8.3,0,0,1-.69,2.992,7.236,7.236,0,0,1-1.921,2.792.548.548,0,0,1-.327.15.388.388,0,0,1-.15-.02c-.15-.073-.178-.2-.106-.4a13.642,13.642,0,0,0,1.34-4.388.953.953,0,0,0-.145-.572c-.241-.276-.914-.427-2.034-.427-.4,0-.886.027-1.446.076-.6.075-1.164.15-1.662.224a.44.44,0,0,1-.3-.073c-.05-.05-.06-.078-.033-.128a.274.274,0,0,1,.033-.1v-.1Z" transform="translate(-0.002 -1.653)"/></svg>