<svg xmlns="http://www.w3.org/2000/svg" width="26.181" height="31.416" viewBox="0 0 26.181 31.416"><defs><style>.a{fill:#1c1c1c;}</style></defs><path class="a" d="M28.181,23.049c-1.029,2.985-4.109,8.269-7.282,8.327-2.1.041-2.782-1.248-5.188-1.248s-3.157,1.208-5.147,1.287C7.2,31.544,2,23.787,2,17.022c0-6.214,4.33-9.294,8.114-9.351,2.029-.037,3.945,1.368,5.183,1.368S18.866,7.35,21.312,7.6a7.342,7.342,0,0,1,5.745,3.112c-4.9,3.2-4.134,9.882,1.123,12.339ZM21.345,0c-3.7.149-6.718,4.031-6.3,7.24C18.468,7.506,21.748,3.673,21.345,0Z" transform="translate(-2)"/></svg>