<svg xmlns="http://www.w3.org/2000/svg" width="65.556" height="17.469" viewBox="0 0 65.556 17.469"><defs><style>.a{fill:#5a9dd8;}</style></defs><path class="a" d="M38.683,24.669H36.228a.709.709,0,0,0-.586.311l-3.386,4.986-1.434-4.791a.71.71,0,0,0-.679-.505H27.73a.425.425,0,0,0-.4.562l2.7,7.933L27.489,36.75a.425.425,0,0,0,.347.671h2.452a.712.712,0,0,0,.583-.3l8.162-11.78a.425.425,0,0,0-.349-.667ZM22.275,29.422a2.723,2.723,0,0,1-2.756,2.332A1.892,1.892,0,0,1,17.5,29.379a2.732,2.732,0,0,1,2.736-2.349,2.056,2.056,0,0,1,1.628.665,2.1,2.1,0,0,1,.414,1.727Zm3.4-4.753H23.237a.425.425,0,0,0-.42.359l-.107.682-.17-.247a3.478,3.478,0,0,0-2.885-1.024,5.615,5.615,0,0,0-5.45,4.912,4.607,4.607,0,0,0,.909,3.751,3.82,3.82,0,0,0,3.075,1.241,4.675,4.675,0,0,0,3.381-1.4l-.109.678a.425.425,0,0,0,.42.491h2.2a.708.708,0,0,0,.7-.6l1.32-8.359a.425.425,0,0,0-.42-.49Zm-14.653.058c-.279,1.83-1.676,1.83-3.029,1.83h-.77l.539-3.417a.424.424,0,0,1,.42-.359H8.54c.92,0,1.79,0,2.238.524a1.7,1.7,0,0,1,.248,1.422Zm-.588-4.776h-5.1a.708.708,0,0,0-.7.6L2.576,33.625a.425.425,0,0,0,.42.491H5.431a.708.708,0,0,0,.7-.6l.557-3.528a.708.708,0,0,1,.7-.6H9c3.359,0,5.3-1.625,5.8-4.847a3.926,3.926,0,0,0-.65-3.29,4.727,4.727,0,0,0-3.716-1.3Zm54.489.359L62.833,33.625a.425.425,0,0,0,.42.491h2.1a.708.708,0,0,0,.7-.6l2.064-13.075a.425.425,0,0,0-.42-.491H65.346a.425.425,0,0,0-.42.359Zm-6.281,9.111a2.723,2.723,0,0,1-2.756,2.332,1.892,1.892,0,0,1-2.022-2.374A2.732,2.732,0,0,1,56.6,27.03a2.056,2.056,0,0,1,1.628.665,2.1,2.1,0,0,1,.414,1.727Zm3.4-4.753H59.606a.425.425,0,0,0-.42.359l-.107.682-.171-.247a3.476,3.476,0,0,0-2.884-1.024,5.615,5.615,0,0,0-5.45,4.912,4.607,4.607,0,0,0,.909,3.751,3.82,3.82,0,0,0,3.075,1.241,4.675,4.675,0,0,0,3.381-1.4l-.109.678a.425.425,0,0,0,.42.491h2.2a.708.708,0,0,0,.7-.6l1.32-8.359a.425.425,0,0,0-.42-.491Zm-14.653.058c-.279,1.83-1.676,1.83-3.029,1.83H43.6l.539-3.417a.424.424,0,0,1,.42-.359h.353c.92,0,1.79,0,2.238.524a1.705,1.705,0,0,1,.247,1.422Zm-.588-4.776h-5.1a.708.708,0,0,0-.7.6L38.946,33.625a.425.425,0,0,0,.42.491h2.616a.5.5,0,0,0,.49-.418l.585-3.707a.708.708,0,0,1,.7-.6h1.613c3.359,0,5.3-1.625,5.8-4.847a3.926,3.926,0,0,0-.65-3.29,4.727,4.727,0,0,0-3.716-1.3Z" transform="translate(-2.571 -19.952)"/></svg>