<svg id="PayPal" xmlns="http://www.w3.org/2000/svg" width="97.336" height="23.768" viewBox="0 0 97.336 23.768">
  <path id="Path_2600" data-name="Path 2600" d="M43.97,6.749H38.584a.748.748,0,0,0-.74.632L35.665,21.193a.448.448,0,0,0,.444.518h2.572a.748.748,0,0,0,.74-.632l.588-3.725a.748.748,0,0,1,.739-.632h1.705c3.548,0,5.6-1.717,6.131-5.119A4.149,4.149,0,0,0,47.9,8.124,5,5,0,0,0,43.97,6.749Zm.621,5.045c-.295,1.933-1.771,1.933-3.2,1.933h-.813l.57-3.61a.449.449,0,0,1,.443-.379h.373c.973,0,1.89,0,2.364.554A1.8,1.8,0,0,1,44.591,11.794Z" transform="translate(-7.574 -1.434)" fill="#253b80"/>
  <path id="Path_2601" data-name="Path 2601" d="M63.364,13.01H60.784a.449.449,0,0,0-.443.379l-.114.721-.18-.261A3.671,3.671,0,0,0,57,12.767a5.932,5.932,0,0,0-5.759,5.187,4.869,4.869,0,0,0,.961,3.962,4.036,4.036,0,0,0,3.249,1.312,4.935,4.935,0,0,0,3.57-1.477l-.115.717a.449.449,0,0,0,.443.52h2.323a.748.748,0,0,0,.74-.632l1.394-8.828A.447.447,0,0,0,63.364,13.01Zm-3.6,5.02a2.875,2.875,0,0,1-2.91,2.463,2,2,0,0,1-2.137-2.508,2.887,2.887,0,0,1,2.89-2.483,2.176,2.176,0,0,1,1.72.7A2.233,2.233,0,0,1,59.768,18.03Z" transform="translate(-10.867 -2.712)" fill="#253b80"/>
  <path id="Path_2602" data-name="Path 2602" d="M80.855,13.075H78.263a.751.751,0,0,0-.62.328l-3.575,5.266-1.515-5.06a.751.751,0,0,0-.718-.534H69.288a.449.449,0,0,0-.426.594l2.855,8.378-2.684,3.789a.449.449,0,0,0,.366.709h2.589a.747.747,0,0,0,.615-.321L81.224,13.78A.449.449,0,0,0,80.855,13.075Z" transform="translate(-14.621 -2.777)" fill="#253b80"/>
  <path id="Path_2603" data-name="Path 2603" d="M92.751,6.749H87.364a.748.748,0,0,0-.739.632L84.446,21.193a.448.448,0,0,0,.443.518h2.764a.524.524,0,0,0,.517-.443l.618-3.915a.748.748,0,0,1,.739-.632h1.7c3.549,0,5.6-1.717,6.131-5.119a4.146,4.146,0,0,0-.688-3.477A4.992,4.992,0,0,0,92.751,6.749Zm.621,5.045c-.294,1.933-1.771,1.933-3.2,1.933h-.812l.571-3.61a.447.447,0,0,1,.443-.379h.373c.972,0,1.89,0,2.364.554A1.8,1.8,0,0,1,93.372,11.794Z" transform="translate(-17.936 -1.434)" fill="#179bd7"/>
  <path id="Path_2604" data-name="Path 2604" d="M112.145,13.01h-2.578a.447.447,0,0,0-.443.379l-.114.721-.181-.261a3.67,3.67,0,0,0-3.046-1.081,5.931,5.931,0,0,0-5.758,5.187,4.871,4.871,0,0,0,.96,3.962,4.038,4.038,0,0,0,3.249,1.312,4.935,4.935,0,0,0,3.57-1.477l-.115.717a.449.449,0,0,0,.444.52h2.323a.748.748,0,0,0,.739-.632l1.395-8.828A.45.45,0,0,0,112.145,13.01Zm-3.6,5.02a2.874,2.874,0,0,1-2.91,2.463,2,2,0,0,1-2.137-2.508,2.888,2.888,0,0,1,2.89-2.483,2.176,2.176,0,0,1,1.72.7A2.221,2.221,0,0,1,108.549,18.03Z" transform="translate(-21.229 -2.712)" fill="#179bd7"/>
  <path id="Path_2605" data-name="Path 2605" d="M118.7,7.128l-2.211,14.065a.448.448,0,0,0,.443.518h2.223a.747.747,0,0,0,.74-.632l2.18-13.811a.449.449,0,0,0-.443-.519H119.14A.45.45,0,0,0,118.7,7.128Z" transform="translate(-24.741 -1.434)" fill="#179bd7"/>
  <path id="Path_2606" data-name="Path 2606" d="M5.948,23.179l.412-2.616-.918-.021H1.061L4.106,1.235a.255.255,0,0,1,.085-.151.249.249,0,0,1,.162-.06h7.388c2.453,0,4.145.51,5.029,1.518a3.46,3.46,0,0,1,.806,1.51,5.451,5.451,0,0,1,.006,2.082l-.009.061v.532l.414.235a2.906,2.906,0,0,1,.839.64,2.978,2.978,0,0,1,.68,1.526,6.457,6.457,0,0,1-.1,2.215,7.8,7.8,0,0,1-.907,2.507,5.156,5.156,0,0,1-1.437,1.575,5.831,5.831,0,0,1-1.936.873,9.654,9.654,0,0,1-2.419.28h-.575a1.729,1.729,0,0,0-1.71,1.459l-.043.235-.728,4.611-.033.169a.146.146,0,0,1-.046.1.122.122,0,0,1-.076.028H5.948Z" transform="translate(-0.226 -0.218)" fill="#253b80"/>
  <path id="Path_2607" data-name="Path 2607" d="M19.467,7.667h0q-.033.211-.076.433c-.974,5-4.307,6.73-8.564,6.73H8.66a1.053,1.053,0,0,0-1.04.892h0L6.509,22.76,6.2,24.755a.555.555,0,0,0,.547.641h3.844a.925.925,0,0,0,.914-.78l.038-.2.724-4.593.046-.252a.924.924,0,0,1,.914-.781H13.8c3.725,0,6.64-1.512,7.492-5.888.356-1.828.172-3.354-.77-4.428A3.676,3.676,0,0,0,19.467,7.667Z" transform="translate(-1.314 -1.628)" fill="#179bd7"/>
  <path id="Path_2608" data-name="Path 2608" d="M18.834,7.057q-.223-.065-.46-.118t-.488-.092a12.038,12.038,0,0,0-1.911-.139h-5.79a.923.923,0,0,0-.913.781L8.04,15.29l-.035.228a1.053,1.053,0,0,1,1.04-.892h2.167c4.257,0,7.59-1.729,8.564-6.73.029-.148.054-.292.076-.433a5.193,5.193,0,0,0-.8-.338C18.981,7.1,18.908,7.079,18.834,7.057Z" transform="translate(-1.7 -1.425)" fill="#222d65"/>
  <path id="Path_2609" data-name="Path 2609" d="M7.572,6.064a.924.924,0,0,1,.913-.781h5.79a12.038,12.038,0,0,1,1.911.139q.25.04.488.092t.46.118l.219.068a5.272,5.272,0,0,1,.8.338,4.724,4.724,0,0,0-1-4.247C16.05.537,14.061,0,11.516,0H4.129A1.056,1.056,0,0,0,3.085.892L.008,20.4a.635.635,0,0,0,.626.734H5.195L6.34,13.866Z" fill="#253b80"/>
</svg>
